<svg xmlns="http://www.w3.org/2000/svg" fill="none" viewBox="0 0 1474 1474">
  <rect width="1474" height="1473.77" fill="#fff" rx="736.885" />
  <g clip-path="url(#a)">
    <path fill="#000"
      d="M720.368 252.339c-1.867 1.067-2.4 3.067-2.4 9.2v7.867l-6.667-.8c-10.133-1.2-10.667-.267-10.667 18.933 0 19.067.534 20 10.8 19.467 3.867-.134 7.066-1.006 6.534 1.2.532 1.294-3.6 1.333-8.934 1.333-9.466.133-12.133 1.2-14.933 6.267-.8 1.733-1.101 3.694-3.467 3.066-2.933 0-9.6 6.4-10.533 10-.667 2.8-1.6 3.334-5.867 3.334-5.866 0-10.133 2.666-12.933 8-2.533 4.933-2.533 8.4 0 13.333 2.667 5.2 8.4 8 16.533 8 6.134 0 6.667.267 8 4.133.8 2.534 1.467 14 1.467 27.334v23.066l-3.6 3.334c-4.533 4.133-4.8 10.8-.667 14.266 4.466 1.328 3.867 7.6.934 8.667-1.067.4-2.534 2.933-3.467 5.467.499 4.694-3.067 6.133-5.067 7.866-2.933 2.534-3.466 4-3.466 10.4l3.532 3.734-3.532 3.733-24 24c-19.2 19.2-24.134 23.6-24.934 21.6-.4-1.2-.933-9.067-.933-17.333l-.133-14.934h3.333c4.533 0 8.199-4.572 8.199-9.372 0-2.8-.866-4.761-3.799-7.294-13.067-6.4-13.2-11.334-1.467-20 3.467-7.467 4-17.6 1.6-28.934-1.866-9.066-10.001-24.739-15.334-31.272-2.8-3.6-3.066-6.461-2.932-9.661.266-6.933-4.934-10.8-14.267-10.8-9.2 0-14.533 3.867-14.4 10.8 1.099 3.161-1.067 5.733-2.933 7.867-4.534 4.933-11.067 18-14.134 28.266-3.466 11.2-3.066 26.934.667 34.8 1.333 2.667 4.366 7.295 4.499 10.228.267 4.667-1.966 5.772-5.166 7.372-8.533 4.4-6.666 15.867 2.8 17.867l4.667.933-.4 9.867c-1.2 37.733-1.733 42.267-5.067 45.467-3.733 3.466-4 7.733-1.066 13.333 1.466 3.067 1.866 6.133 1.066 13.067l-.8 9.066-42.533 42.534-42.533 42.533 127.6 127.6 127.733 127.733 127.6-127.6 127.733-127.733-33.866-34-33.734-34-2.266-19.333-6.8-66.267c-.8-9.467-.8-9.6 2.933-11.333 2-.934 4.533-3.467 5.733-5.6 1.067-2.134 2.866-5.506 5.2-6.8 2.267-2 3.2-4.267 3.2-7.467-.133-2.533-.901-16.906-1.034-32.239 0-34.4.901-34.294-12.832-34.294-9.2 0-8.701.4-10.168 4.266-1.333 3.467-2.899 3.734-7.299 3.734-4.201.794-5.067-.534-5.067-2.534 0-4.666-3.066-5.6-18.133-5.2-14.4.4-14.533.4-16.267 4-.734 3.028-2.829 5.334-6.429 5.334-5.305-.306-5.305-1.806-6.104-5.334-1.6-3.333-2.4-3.6-10.4-4-4.8-.133-9.6.267-10.667 1.067-1.6 1.067-2.133 6.933-2.8 34.267-.666 30.8-.666 33.333 1.734 36.4 1.333 1.866 4.932 4.794 5.733 8.4 1.867 2.8 4.933 5.6 6.8 6.4 2.8.933 3.333 1.866 2.667 4.266-.4 1.6-.8 4.4-.8 6.267 0 2.8-3.067.267-20.134-16.667C798 468.5 799 471 802.501 468.472c.499-5.972-1.067-10.666-5.333-14.666-1.734-1.734-3.2-4.134-3.2-5.467 0-1.467-1.467-3.867-3.334-5.6-4.133-4-4.133-5.733 0-8.4 2.667-1.733 3.334-3.333 3.334-7.467s-.667-5.733-3.334-7.466l-3.333-2.134v-24.533c0-29.733.4-31.2 9.6-31.2 8.4 0 13.467-2.667 16.267-8.533 2.666-5.6 2.666-7.867.266-12.667-2.933-5.467-5.733-7.333-12.666-8.133-5.067-.534-6.267-1.2-6.534-3.6-.4-3.067-7.333-9.734-10-9.734-3.234.628-4.234-1.372-5.333-4.666-3.6-4.534-4-4.667-12.933-4.667-5.067 0-9.6-.667-10-1.333-.534-.8 2.133-1.334 6.933-1.334 4.4 0 8.166-.939 9.099-1.872 2-2 2.501-30.528.501-34.394-2.001-1.606-2.533-2.534-8.933-2.134l-7.467.4.4-6.8c-.4-10.072-.933-11.2-18.933-11.2-8.267 0-16 .667-17.2 1.467zm29.333 14.533-.667 9.467 9.467-.933 9.467-.8v13.066l-.134 13.2-9.466-.4-9.334-.533.667 7.2c.267 3.867.8 7.2.933 7.467.267.266 4.8.4 10.134.533 12.4.134 14.933 1.333 14.266 6.533-.533 3.734-.4 3.867 5.067 3.867 7.2 0 9.6 2.667 7.6 8.133l-1.467 3.867h8.534c9.866 0 13.866 2.667 13.866 9.2 0 6.133-5.333 9.467-14.8 9.467-7.733 0-7.866 0-9.866 4.8-1.6 3.866-2 10.933-2 33.066 0 27.867 0 28.134 3.066 29.467 1.6.8 2.934 2.267 2.934 3.333s-1.334 2.534-2.934 3.334c-4.666 2-4.4 11.866.4 16.266 2.8 2.534 3.334 4 2.667 7.2-.533 3.2-.267 3.867 1.867 3.867 3.333 0 6.666 3.467 6.666 6.933 0 4.667-3.866 7.734-9.6 7.734h-5.2l.8 30.266c2.267 86.934 7.067 153.2 14.134 196.667 1.333 8.8 1.6 9.067 5.333 9.067 9.2 0 18.533 7.333 18.533 14.533 0 3.2.8 3.867 6.534 5.333 13.733 3.467 20.266 17.6 13.066 28.267-6.4 9.733-2.266 9.333-102.666 9.333-98.534 0-94.934.4-100.667-7.733-8.267-11.867-2.4-26 12.4-30 5.2-1.333 5.867-2 6.533-6.4 1.2-7.333 9.067-13.333 17.334-13.333 2.933 0 3.2-.8 5.333-15.734l2.8-19.6c4.4-29.333 8.8-102.133 10.533-175.066l.534-25.6h-4.934c-6.266 0-9.866-3.467-9.2-8.934.267-2.933 1.334-4 4.667-4.933 3.733-1.2 4.133-1.733 3.467-5.6-.534-3.6-.134-4.667 2.8-6.533 2.933-2 3.466-3.334 3.466-8.534 0-5.066-.533-6.4-2.933-7.466-1.733-.8-3.067-2.267-3.067-3.334s1.334-2.533 3.067-3.333c2.933-1.333 2.933-1.467 2.8-29.333 0-18.934-.667-29.467-1.733-32.667-1.6-4.533-1.867-4.667-10.4-5.333-10.134-.8-14.4-3.6-14.4-9.6 0-6.267 4.133-9.067 13.333-9.067h8l-.8-4c-1.2-5.6 1.333-8 8.267-8 5.733 0 5.733 0 5.066-4-.8-3.467-.4-4.133 2.8-5.333 2-.8 7.067-1.067 11.334-.667 9.2.667 10.133-.133 10.933-9.067l.4-6.533-9.333.533-9.334.4-.4-13.2-.4-13.066 9.734.4 9.733.533-.4-4.667c-.133-2.533-.667-6.666-1.067-9.066l-.666-4.267h27.2l-.667 9.333zM605.434 378.206c.534 1.066.134 2.933-.8 4-1.466 1.733-1.2 2.666 1.2 5.2l3.067 3.2-4.8 21.2c-2.933 13.333-4.267 21.466-3.467 22.266 2.4 2.4 3.734-1.066 7.467-18.933 2-9.6 4.133-17.6 4.8-17.6 3.2 0 13.067 27.733 13.067 36.667 0 7.066-2.667 14-7.6 19.466-4.267 4.667-4.4 5.2-1.867 5.2 3.6 0 3.733 4 .133 4.934-3.2.8-3.6 4.4-.533 4.4 1.2 0 2.4 1.2 2.8 2.533.4 1.6 2 2.8 4.267 3.067 2.666.266 3.466 1.066 3.466 3.733 0 2.933-.666 3.333-5.866 3.733l-5.867.4.8 18.934c2 42.4 2.4 45.066 5.867 46.4 3.733 1.333 3.733 1.333.533 7.066-1.733 2.934-2.4 6.267-2 9.067 4.4 33.6 6.4 46.8 8.933 59.733l2.934 15.334 8.533.666c6.667.534 8.933 1.334 10.933 3.867 1.334 1.733 2.534 4.133 2.534 5.467 0 1.6 1.333 2.8 4 3.333 10.666 2.4 14.4 14.533 6.8 22.133-2.934 2.934-5.2 3.867-9.067 3.867-2.8.133-31.2.133-63.067 0-53.866 0-58.266-.267-61.333-2.533-10.133-7.334-6.933-20.4 5.867-23.6 2.133-.534 3.466-1.734 3.466-3.2 0-1.334 1.2-3.734 2.534-5.467 2-2.533 4.266-3.333 10.933-3.867l8.4-.666 3.6-19.067c2.133-10.533 4.933-28.4 6.4-39.733 2.4-18.134 2.4-20.934.8-24.134-2.667-5.066-2.533-8 .4-8.666 2.933-.8 3.733-8 5.2-43.467l.8-21.6h-5.333c-6.4 0-9.734-2.8-7.067-6 .933-1.067 3.067-2 4.8-2 2.267 0 3.2-.8 3.2-2.667 0-1.733.933-2.666 2.667-2.666 1.466 0 2.666-.934 2.666-2s-1.2-2-2.666-2c-1.734 0-2.667-.934-2.667-2.667 0-1.867.933-2.667 3.067-2.667 2.933-.133 2.933-.133-.534-3.066-5.466-4.8-8.133-10.134-8.8-18.134-1.2-13.733 6.267-34.266 17.2-47.2 4.267-5.2 5.067-6.666 3.734-8.266-3.2-3.867-.534-6 7.333-6 5.333 0 7.6.533 8.133 2zm238.934 44.266.4 4.4h22.533v-4c0-4.8 2.4-5.6 14.667-5.066l8.666.4.4 4.4.4 4.4 10.934-.4 10.933-.4.4-4.4c.4-4.267.533-4.4 6-4l5.6.4.267 27.066c0 14.934.533 27.467.933 27.867.4.533.8 2.133.8 3.733 0 4.134-2.533 6.134-9.2 7.2-.4.134 0 .8.933 1.734s1.6 2 1.6 2.533c0 2.133-4.4 5.2-7.333 5.2-1.733 0-3.467.533-3.867 1.067-1.466 2.4 5.2 68 12 118.266l3.467 25.334 4.267 2c2.666 1.333 4.533 3.466 5.333 6.133.933 3.2 2.4 4.533 6.667 6 3.866 1.333 6.133 3.2 8 6.667 3.066 5.733 2.266 10.4-2.934 15.2l-3.6 3.333-30 .133c-87.733.134-96.266 0-99.6-2.133-3.466-2.267-5.733-7.067-5.733-12 0-4.267 5.867-10.933 10.667-12 2.933-.667 4.266-2 5.333-5.467 1.067-3.2 2.8-5.2 5.867-6.4 4-1.6 4.533-2.533 5.2-8.266l4.8-37.867c3.866-30.533 9.066-79.333 9.733-92.667.267-6.666.267-6.666-4-7.066-5.067-.534-8-4.667-5.467-7.734 1.2-1.466.8-2-2.666-2.666-5.2-1.067-7.467-4.8-5.467-8.667 1.067-1.733 1.467-12.267 1.333-29.867l-.133-27.2 5.733.267c5.467.267 5.734.533 6.134 4.533zm-161.867 61.867c-13.867 14.667-57.2 56.933-57.733 56.4-.8-.8 59.2-60.533 60.666-60.533.534 0-.666 1.866-2.933 4.133zm132.8 21.333c14 14 25.2 25.734 24.933 26s-7.6-6.533-16.4-15.2c-22-21.733-36-36.266-34.933-36.266.533 0 12.4 11.466 26.4 25.466zm-6.267 28.134c-18.666 18.8-18.533 18.8-19.866-12.934-.934-22.666-.934-22.666 2.266-26.266l3.2-3.6 14.4 14.266 14.267 14.267-14.267 14.267zm-126-38.934c3.067 2.534 3.067 2.534 2.134 26-.667 17.067-1.334 23.734-2.667 24.8-2.4 2-2.4 3.6.133 6.134 1.467 1.466 1.867 3.6 1.467 7.6-.4 2.933-1.067 14.133-1.467 24.8-.533 10.533-1.2 19.866-1.6 20.4-.4.666-7.2-5.334-15.2-13.2l-14.533-14.534 14.267-14.266 14.4-14.4-14.4-14.4-14.267-14.267 13.6-13.733c7.6-7.467 14-13.6 14.4-13.6.4.133 2 1.2 3.733 2.666zm126.667 68.4 13.6 13.6-14.667 14.667c-9.866 9.867-14.8 13.867-15.2 12.533-.4-1.066-1.333-12.533-2-25.733-1.333-23.867-.8-28.8 2.934-28.8.933 0 7.733 6.133 15.333 13.733zm-169.733 3.6 10.666 10.8-9.733 9.467c-5.333 5.2-9.867 9.2-10.133 8.933s-1.6-8.266-2.8-17.6c-2-15.866-1.867-22.266.4-22.266.533 0 5.733 4.8 11.6 10.666zm196 5.6a142.94 142.94 0 0 1-1.6 10.8l-.667 3.867-4.533-4.4c-2.534-2.4-4.4-4.933-4.134-5.6.534-1.867 9.467-11.333 10.667-11.467.667-.133.8 3.067.267 6.8zm-272.8 30.934c-.267.4-13.734 13.866-29.734 30-26.133 26.4-29.066 29.6-27.466 31.733.933 1.333 53.333 53.867 116.4 116.8l114.666 114.4 15.334-15.067 217.6-217.866c0-.667-9.334-10.534-20.667-21.867s-20.667-21.067-20.667-21.733c0-.534 9.867 8.8 22 20.8s22 22.4 22 23.066c0 1.067-234.133 235.2-235.2 235.2-1.2 0-235.466-234.133-235.466-235.333 0-1.6 58.933-60.667 60.533-60.667.667 0 .933.267.667.534zm117.866 8.266c-1.333 17.734-3.2 39.334-3.866 42.934l-.667 4.533-5.2-5.2-11.867-11.733c-3.733-3.6-6.8-7.2-6.8-7.867 0-2 25.867-27.467 27.334-27.067.666.267 1.2 2.267 1.066 4.4zm131.2 12 10.8 10.934-12.133 12.133c-9.867 9.733-12.4 11.6-13.067 9.733-1.333-3.466-4.533-43.466-4-48.8.134-1.6 4.667 2.4 18.4 16zm-252.4-2.4-2.266 10.934h-4.8c-2.667 0-6.8 1.2-9.334 2.8-3.2 1.866-4.933 2.266-5.866 1.333-1.067-1.067 2-5.067 11.066-14.133 6.934-6.934 12.667-12.4 12.934-12.134.266.134-.534 5.2-1.734 11.2zm88.4 11.6c-.133.134-2.8 0-5.866-.4-5.067-.533-5.6-.933-6.4-4.666l-1.6-6.934c-.4-1.733 1.866-.133 6.8 4.534 4 4 7.2 7.333 7.066 7.466zm289.334 2.8c-.534.534-2.4.267-4.267-.533-2.4-1.067-3.333-2.533-3.333-5.2v-3.733l4.266 4.266c2.4 2.4 3.867 4.667 3.334 5.2zm-108.934-2.933c0 .267-.933.933-2.133 1.333-1.067.4-1.6.267-1.2-.533.8-1.333 3.333-1.867 3.333-.8zm-16.4 49.333c2.8 1.734 6.534 4.8 8.4 6.8l3.334 3.6-6.134 5.6c-5.2 4.8-6.933 5.6-10.4 5.067-2.266-.267-4.133-.933-4.133-1.467 0-.4-.933-6.533-2-13.466s-2-14.4-2-16.534v-3.866l4 5.466c2.133 3.067 6.267 6.934 8.933 8.8zm-138.933 5.067-2.4 15.2c-.133.133-1.867.533-3.867 1.067-3.2.666-4.666 0-9.866-5.2-6-5.867-6.134-6.134-3.867-8.667 1.2-1.333 5.733-4.8 10-7.467s8.533-6.266 9.467-8 1.866-2.933 2.133-2.666c.4.266-.4 7.333-1.6 15.733zm-84 1.067 3.867 4.133-14.267 14.267-14.267 14.266-14.266-14.266-14.267-14.267 3.867-4.133 3.866-4h41.6l3.867 4zm57.333 0 3.867 4.133-14.267 14.267-14.266 14.266-14.267-14.4-14.4-14.266 4-3.867 4-4h20.8l20.667-.133 3.866 4zm230.267 0 4.267 4.133-14.267 14.267-14.267 14.266-14.266-14.266-14.267-14.267 3.867-4.133 3.866-4h40.8l4.267 4zm57.733 0 3.867 4.133-14.267 14.267-14.266 14.266-14.267-14.266-14.267-14.267 3.867-4.133 3.867-4h41.6l3.866 4zm-307.2 38.133 4.8 4.667-2.4 4.933c-3.6 6.933-3.2 15.333 1.067 23.2l3.6 6.533-6.267 6.267-6.266 6.267-14.267-14.4-14.4-14.267 14-14c7.733-7.733 14.267-14 14.533-14 .4 0 2.934 2.133 5.6 4.8zm239.867 9.2 14 14-14.4 14.267-14.267 14.4-6.266-6.267-6.267-6.267 2.8-3.066c6.4-6.8 7.733-18.534 3.2-27.334l-2.533-5.066 4.133-4.4c2.267-2.267 4.4-4.267 4.933-4.267.4 0 6.934 6.267 14.667 14zm-185.067 39.6-2.933 2.933-2.933-2.933-2.934-2.933h11.734l-2.934 2.933zm59.734-1.6c0 2.267-4.534 3.867-7.067 2.533-3.733-2.133-2.667-3.866 2.4-3.866 2.533 0 4.667.533 4.667 1.333zm57.333-.133c0 2.533-4.133 4.666-6.4 3.333-4-2.667-3.333-4.533 1.6-4.533 2.667 0 4.8.533 4.8 1.2zm-92 33.733c0 .533-6.267 7.2-13.867 14.8l-13.866 13.867-14.134-14.134-14.133-14.133 14.267-14.267 14.4-14.4 13.6 13.6c7.6 7.6 13.733 14.134 13.733 14.667zm57.333.4c0 1.733-25.6 27.333-27.333 27.333-.667 0-7.467-6.133-14.933-13.6l-13.734-13.733 14.267-14.267 14.4-14.4 13.6 13.6c7.6 7.6 13.733 14.267 13.733 15.067zm48.134-10.667 10.533 10.667-14 14-14.133 14.133-13.6-13.733-14.134-14.533c-.4-.267 5.6-6.934 13.2-14.534l13.867-14 3.867 3.734c2.133 2 8.666 8.4 14.4 14.266zm-61.067 82.267-14.4 14.4-14.267-14.267-14.4-14.4 14.267-14.266 14.4-14.4 14.267 14.266 14.4 14.4-14.267 14.267z" />
    <path fill="#f9d100"
      d="M679.435 37.006c-34.8 3.067-67.334 8.133-101.334 15.733-20.4 4.667-43.866 11.333-68.8 19.733-90.266 30.534-176.933 81.867-247.333 146.534-77.6 71.333-131.467 147.466-175.333 247.2-19.333 44.266-38.533 111.866-46.533 164-10.667 69.866-10.8 148.133-.4 216l1.6 10.666h77.334c69.733 0 77.333-.266 76.933-2.133-.133-1.067-1.733-11.067-3.6-22-6.133-36.267-7.733-59.733-6.933-103.867.666-40.266 1.866-53.333 7.733-87.333 1.467-8.4 3.2-17.467 3.867-20l4.666-18.667c8-32.533 21.467-69.466 37.6-102.666 76.134-157.067 220.934-269.067 391.067-302.534 132.4-26.133 270.933-2.8 386.662 65.2 60 35.067 113.87 82.267 156.94 137.334 54.26 69.333 90.8 150.266 107.6 238 12.13 63.866 12 140.133-.4 205.066-1.74 9.334-2 13.334-.94 13.734.8.266 35.74.4 77.47.266l76-.4 2.93-20c4.54-31.333 6.14-66.8 5.34-115.333-.67-44.667-2.67-66.533-9.07-102.667-22.67-129.2-77.07-242.4-165.07-344.4-15.2-17.6-56.66-58-76.13-74.4-129.2-108-288.665-165.733-455.999-165.066-19.466.133-44.533 1.067-55.866 2z" />
    <path fill="#d8201f"
      d="M679.435 37.006c-34.8 3.067-67.334 8.133-101.334 15.733-20.4 4.667-43.866 11.333-68.8 19.733-90.266 30.534-176.933 81.867-247.333 146.534-77.6 71.333-131.467 147.466-175.333 247.2-19.333 44.266-38.533 111.866-46.533 164-10.667 69.866-10.8 148.133-.4 216l1.6 10.666h77.334c69.733 0 77.333-.266 76.933-2.133-.133-1.067-1.733-11.067-3.6-22-6.133-36.267-7.733-59.733-6.933-103.867.666-40.266 1.866-53.333 7.733-87.333 1.467-8.4 3.2-17.467 3.867-20l4.666-18.667c8-32.533 21.467-69.466 37.6-102.666 76.134-157.067 220.934-269.067 391.067-302.534 132.4-26.133 270.933-2.8 386.662 65.2 60 35.067 113.87 82.267 156.94 137.334 54.26 69.333 90.8 150.266 107.6 238 12.13 63.866 12 140.133-.4 205.066-1.74 9.334-2 13.334-.94 13.734.8.266 35.74.4 77.47.266l76-.4 2.93-20c4.54-31.333 6.14-66.8 5.34-115.333-.67-44.667-2.67-66.533-9.07-102.667-22.67-129.2-77.07-242.4-165.07-344.4-15.2-17.6-56.66-58-76.13-74.4-129.2-108-288.665-165.733-455.999-165.066-19.466.133-44.533 1.067-55.866 2zm13.866 36.933c-.266.933-4.266 17.2-8.666 36.267l-9.334 37.6c-1.6 3.866-8.533 4.533-7.466.666l8.133-34.266 8.8-36.934c.933-3.467 2.133-5.067 4.267-5.333 3.733-.667 4.933-.133 4.266 2zm94.267 1.733c13.867.933 19.733 3.6 21.867 10 2.8 8.4-1.334 15.867-10.8 19.067l-5.067 1.733 4.533 1.6c6.667 2.267 9.2 4.667 11.2 10.134 4 11.733-4.933 24-19.333 26.533-5.2.933-32.933-.933-34.267-2.4-.533-.4.267-1.6 1.6-2.667 2.934-2.133 4.134-10.4 5.467-40.4l.933-20.133-3.2-.533c-1.733-.133-3.333-1.467-3.6-2.667-.533-2.533-2.533-2.533 30.667-.267zm145.333 23.867c.4.4-2.4 11.6-6.266 25.067l-8.667 32.666c-1.6 8.134-1.6 8.534 1.2 10.4 4.933 3.467 2 4.134-7.467 1.734-8.533-2.134-9.066-2.4-8.666-5.734.533-4.133.266-4.266-6.667-.666-5.2 2.666-5.6 2.666-11.333.533-4.4-1.733-6.4-3.467-8.4-7.467-4.8-9.2-2.667-22.8 4.533-30 7.6-7.6 25.333-10.533 30.8-5.066 1.6 1.733 2.133.933 4-5.067 2.667-9.067 2.533-11.333-.667-13.067-1.466-.8-2.666-2-2.666-2.666 0-1.334 18.933-1.867 20.266-.667zm-81.733 6c2.533.667 6 2.533 7.733 4.267 3.734 3.466 4 10.4 1.067 23.733-2.533 11.6-2.533 16.933.133 18.4 4.534 2.533.667 3.733-7.333 2.4-7.2-1.2-8.133-1.6-8.133-4.4 0-3.733 0-3.733-6-.267-4.267 2.534-5.467 2.667-10.134 1.334-5.733-1.734-7.866-4.667-7.866-10.8 0-10 6.666-14.667 20.933-14.667 5.733 0 7.067-.4 7.733-2.667 2.4-7.733-8.666-14.933-14.533-9.466-3.867 3.6-4.8 3.466-4.8-.534 0-2.8 1.2-4 5.733-6 6.4-2.933 9.067-3.2 15.467-1.333zm-252.4 14.133c1.2 1.6 2.933 6.534 4 10.8 5.2 20.534 5.733 21.734 9.2 21.734 2 0 3.333.8 3.333 1.866s-3.333 2.667-8.8 4c-4.933 1.2-9.066 2.134-9.2 1.867-.266-.267-2-6.933-3.866-15.067-2-8-4.534-15.6-5.734-16.933-3.333-3.733-10.533-3.2-13.2 1.067-2.133 3.2-2.133 4-.133 12.666 3.333 13.734 5.467 18.267 9.2 18.8 6 .8 2.533 3.067-9.6 6.267-12.267 3.2-16.533 2.8-10.933-.8 3.6-2.533 3.6-4.267.133-17.333-4.133-15.734-5.067-17.467-8.933-18-5.867-.667-4.534-3.067 4.4-7.467 4.8-2.4 8.933-4.267 9.2-4.267s.933 1.6 1.466 3.6l.934 3.734 4.133-4.934c7.067-8.266 19.6-9.066 24.4-1.6zm-64 16.667c1.6 1.6 3.6 4.4 4.4 6.267.667 2 3.2 8.533 5.467 14.533 4 10.533 4.4 11.067 8.266 11.067 2.267 0 3.734.666 3.467 1.466-.533 1.734-16.8 8.134-18.4 7.2-.533-.266-2-4.4-3.333-8.933-1.2-4.667-3.734-11.6-5.6-15.333-3.734-8-7.867-10.134-13.6-6.8-4.934 2.666-4.534 10.8 1.2 23.333 3.6 8 4.933 9.733 7.466 9.733 4.267 0 5.334 2.4 1.6 4-14.4 5.867-21.466 8.134-22.533 7.067-.933-.933-.133-2.133 2-3.467l3.333-2.266-3.333-9.6c-5.467-16.134-8.667-21.734-12.4-21.734-5.733-.133-4.4-2.933 3.867-8.4l8.133-5.466 1.467 3.2c2 4.4 3.066 4.133 5.2-.8 1.066-2.8 3.466-5.067 7.066-6.667 6.4-3.067 12-2.4 16.267 1.6zm436.133 3.867c6 3.6 8.8 9.733 8 17.066-1.066 9.334-2.533 9.867-14.933 6.134-18.667-5.867-17.2-6-16.4 2 .933 9.466 4.933 13.6 14.267 14.533 3.733.267 6.8.933 6.8 1.467-.134 4.933-9.2 6.666-18.534 3.466-7.2-2.4-14.133-8.933-15.6-14.8-2-7.733 2.4-22.133 8.4-27.466 6.134-5.6 20.667-6.934 28-2.4zm34.399 14.4c4.93.933 5.33 1.333 5.07 5.2-.4 4.133-.4 4.133 4.66 2.933 3.07-.667 6.54-.667 9.2.267 5.2 1.6 11.07 8.266 11.07 12.4 0 1.733-2.93 9.2-6.67 16.666-7.06 14.4-7.86 18-4.66 19.334 2.66.933 2.53 3.466 0 3.466-1.74 0-14.8-5.866-16.4-7.333-.27-.267 2.53-6.533 6.26-14 3.74-7.467 6.8-15.067 6.8-17.067 0-7.2-9.06-11.066-14.13-6-1.2 1.334-4.67 7.334-7.599 13.6-4.933 10.134-5.2 11.334-3.2 12.8 2.534 1.867 3.067 4.667.934 4.667-3.2 0-22.667-10.133-22.667-11.733 0-1.334 1.067-1.6 3.867-.934 3.6.8 4.133.267 9.466-9.333 3.067-5.6 6.4-12.8 7.467-15.733 1.867-5.334 1.867-5.734-.8-7.467-4.133-2.8-3.333-4.667 1.733-3.6 2.267.4 6.669 1.333 9.599 1.867zm-527.332 6.933c5.2 3.6 12 17.333 12 23.867 0 12-10.533 22.8-23.2 23.866-8.4.667-13.733-1.733-18.533-8-10.4-13.733-10-28 .8-36.266 10.533-8 20.8-9.2 28.933-3.467zm616.402 14.8c1.6.933 3.2 2 3.6 2.4.4.533 4.13 3.2 8.4 6 4.13 2.933 7.6 5.6 7.6 6.133 0 2-1.87 2.534-4.4 1.067-2.4-1.2-3.07-.933-4.8 1.6-2.4 3.6-14.8 31.867-14.8 33.733s2.53.534 22.66-12.266c18.14-11.6 21.74-13.334 23.2-11.067.27.533-1.73 10-4.4 20.933l-5.86 24.4c-.8 4-.67 4.267 1.46 2.667 7.47-5.333 28.27-24.4 28.27-25.733 0-.934-.93-2.4-2-3.334-2-1.6-2.8-5.333-1.07-5.333.4 0 4.67 2.533 9.2 5.6 8.8 6 11.34 10 5.2 8.533-4.4-1.066-7.6 1.067-33.73 23.467-18.67 15.867-21.47 17.733-24 16.667-1.6-.8-2.93-2.134-2.93-3.067 0-1.467 9.33-40 11.46-47.6.8-2.4-13.6 5.733-34 19.2-9.06 6.133-10 6.533-12.66 4.667-1.47-1.067-2.67-2.667-2.4-3.734.26-.933 5.86-14.8 12.53-30.8 11.47-27.2 12-29.066 10-31.333-1.33-1.333-1.87-2.933-1.33-3.333 1.2-1.2 1.46-1.2 4.8.533zm-664.402 5.2c3.467 6.8 3.333 8-.667 8-1.866 0-4.533 1.2-5.866 2.533-3.334 3.334-2.267 7.467 4.666 19.2 5.334 8.8 7.067 10.534 9.2 9.734.8-.267 2.4-.934 3.734-1.467 1.466-.667 2.266-.4 2.266.933 0 2.4-22.933 15.867-24.533 14.267-.8-.667-.267-2.133 1.2-3.867 2.8-3.066 2-5.866-5.733-19.333-6.667-11.6-8.134-12.933-12.534-12-5.466 1.2-4.666-1.067 2.4-7.6 7.734-7.2 8.4-7.467 11.2-3.6l2.4 3.067 1.734-5.734c1.333-4.533 5.2-9.466 7.466-9.466.134 0 1.6 2.4 3.067 5.333zm-78 32c8 12.267 11.333 15.067 11.333 9.867 0-3.867 4-9.6 8.4-12.4 10.267-6.4 22.667-1.067 28.267 12.133 2.667 6.667 2.533 10.533-.933 21.6-2.534 7.6-4 9.867-8.267 13.067-2.8 2-6.533 3.733-8.267 3.733s-4.133 1.467-5.6 3.6l-2.533 3.467-9.733-14.534-18.4-26.266c-8-10.934-8.934-11.734-12.4-11.067-6.4 1.2-5.867-1.867 1.6-9.333 3.866-4 7.2-7.2 7.333-7.2s4.267 6 9.2 13.333zm-27.867 24.933c6.4 8 16.134 19.334 21.6 25.467 9.067 10.133 10.267 10.933 13.734 10.267 5.866-1.334 4.933 2.133-1.734 7.066-3.2 2.267-7.333 5.6-9.333 7.467-5.467 5.2-8.533 4.133-4.8-1.733 2-3.2.933-4.667-14.4-23.067-18.667-22.4-21.6-25.333-24.667-23.6-5.466 2.8-5.066-.533.934-8.267 3.466-4.266 6.4-7.866 6.666-7.866.134 0 5.6 6.4 12 14.266zm-33.6 15.867c2.534 2.533 2.8 7.2.4 10.4-2.533 3.467-9.066 2.4-11.466-2-1.734-3.2-1.734-3.867.266-7.067 2.667-4 7.6-4.666 10.8-1.333zm900.529-.533c3.87 3.866 1.07 10.666-4.4 10.666-4 0-6-2.133-6-6.533 0-4.8 7.07-7.467 10.4-4.133zm-20.93 10.666c4.27 2.4 7.87 4.934 7.87 5.6s-5.34 6.8-12 13.6c-6.54 6.8-12 13.467-12 14.667 0 3.733 5.33 8.533 9.46 8.533 2.94 0 5.6-2 11.47-8.133 10-10.4 10.53-11.467 7.73-14.667-2-2.133-2-2.533-.4-3.2 2-.8 16.94 7.2 17.07 9.067 0 .667-6.4 8-14.13 16.4-13.74 14.933-14.14 15.467-11.74 18 2.94 3.2.67 6.8-2.53 3.733-.93-1.066-4.13-3.866-6.93-6.4-4.4-3.866-4.94-4.8-3.6-6.933 2.26-3.6 2.13-3.867-3.2-3.867-6.27 0-12-3.466-14.67-9.066-2.93-6.267-1.6-10 7.2-19.467 15.2-16.4 14.4-15.067 11.87-17.867-5.2-5.6-1.87-5.6 8.53 0zm34.67 2.4c3.86 2.134 3.46 8.934-.8 10.934-2.8 1.2-3.74 1.066-6-.934-3.2-2.933-3.34-5.6-.4-8.933 2.53-2.8 3.6-2.933 7.2-1.067zm-891.202 12.667c16 17.867 17.333 18.933 20.667 16.8 2-1.2 3.066-1.333 4.133-.267s-1.2 3.867-7.733 10.134c-8.8 8-12.667 10.266-12.667 7.466 0-.8.667-1.733 1.333-2.133 3.2-2 .534-6.667-9.866-17.6-10.534-11.067-11.467-11.6-14.134-10-5.466 3.333-5.2-.4.4-8.667 3.067-4.533 5.867-8.133 6.4-8 .4.134 5.467 5.6 11.467 12.267zm-21.867 20.267c2.667 1.866 4.934 3.733 4.934 4.266-.134 2-3.867 7.067-10.267 14.134-3.867 4.266-7.067 8.266-7.067 8.933 0 1.6 8.534 5.067 12.534 5.067 3.866 0 10.666-5.334 13.066-10.267 2.134-4.267 4.267-4.133 4.8.267.667 5.2-5.6 14.8-12.266 18.666-12.134 7.067-24.934 2.267-34-12.666-6.134-10.134-.8-25.334 10.8-31.2 5.333-2.534 10.666-1.734 17.466 2.8zm924.929 12.533c4 3.067 7.47 6 7.74 6.533.26.667-.8 2-2.27 2.934-4.27 2.666-3.33 3.733 2.93 3.733 4.27 0 6.54.8 8.4 2.8 2.54 2.8 2.54 2.8-2.13 6.667-5.2 4.4-8 4.933-8 1.6 0-1.2-.93-3.334-2.27-4.667-4-4.4-8.13-2.933-18.66 6.4-9.74 8.8-9.87 8.933-7.6 12.133 1.2 2 1.6 3.867.93 4.534-1.2 1.2-19.07-17.467-19.07-20 0-1.867 2.14-1.867 5.2.133 2.94 1.867 6.4-.533 20.14-13.067 6.66-6.266 7.73-7.866 6.66-9.866-1.6-2.934-1.73-5.334-.26-5.334.53 0 4.26 2.4 8.26 5.467zm-991.062 10.133c-.267 4.8.133 5.334 11.733 14.134l22.934 16.533c10.4 7.067 11.2 7.333 13.466 5.333 3.2-2.933 6.134-2.933 5.067-.133-1.733 4.4-16 23.2-17.733 23.2-2 0-2.4-3.467-.4-4.667.8-.4 1.333-1.6 1.333-2.533 0-2.133-19.067-16.8-21.733-16.8-1.867 0-18.267 21.733-18.267 24.4 0 1.467 20 15.6 22.133 15.6.534 0 2.134-1.067 3.467-2.267 1.6-1.466 2.933-1.733 3.733-.933.934.933-1.066 4.533-5.6 10.8l-8.933 12.133c-2.667 3.867-4.4 2.267-3.333-3.066.8-4.267.533-4.667-11.734-13.6-33.066-24.534-34-25.067-38.266-21.2-3.2 2.933-5.2.4-2.534-3.067l8.4-12c6.667-9.333 11.2-12.533 9.467-6.533-.533 1.733-1.067 3.866-1.2 4.933-.267 1.733 15.333 14.8 17.733 14.8 1.2 0 18.667-23.333 18.667-25.067 0-.533-4.267-3.866-9.467-7.333l-9.466-6.267-3.734 2.667c-3.866 2.8-6.533 1.733-4.4-1.733 3.734-6 16.667-22.267 17.734-22.267.666 0 1.066 2.267.933 4.933zm1036.002 15.867c.26.8-2.8 3.733-6.94 6.533-4 2.8-7.33 5.467-7.33 5.867s1.6 2.4 3.6 4.4c3.47 3.6 3.47 3.733.93 5.6-2.26 1.733-2.93 1.6-6.53-2l-4.13-3.867-10.14 8.4c-10.53 8.4-12.53 12.267-8.4 15.6 3.34 2.667 2.27 4-3.06 4-5.6 0-8.54-2.266-10.8-8.133-.67-2-.94-4.8-.54-6.267.27-1.466 6.27-7.2 13.2-12.933 11.74-9.467 12.54-10.4 10.67-12.533-3.2-3.6-2.67-4.267 2.93-3.334 4.27.667 5.6.134 10.27-3.866l5.33-4.667 5.2 2.8c2.94 1.6 5.47 3.6 5.74 4.4zm17.2 26.667c3.2 1.866 5.86 3.733 5.86 4s-2.53 2.133-5.6 4.133c-10.66 6.8-10.66 6.8-7.46 11.333 2.53 3.734 2.66 4.134.53 6.134-2.13 2.133-2.53 2-5.87-2.134l-3.6-4.266-5.33 3.6c-15.73 10.533-19.73 16.133-14.67 20.4 2.94 2.4 1.34 3.6-3.6 2.933-5.46-.8-7.73-2.533-10-7.867-2.66-6.4-.4-9.733 13.74-19.866 12.13-8.8 12.26-8.934 10.26-12l-2-3.2 5.74.8c5.2.666 6.4.266 10.53-3.334 2.53-2.266 4.8-4 5.07-4.133.26 0 3.06 1.6 6.4 3.467zm6.13 42.8c7.47 4 13.07 12.133 13.07 18.666 0 5.2-6.94 14.8-11.34 15.867-3.86.933-4.53.4-12.8-12.533-3.06-4.534-6.26-8.267-7.33-8.267-2.93 0-7.2 8.133-7.2 13.6 0 3.867 1.07 6.267 4.67 10.267 5.6 6.133 5.73 6.8 1.33 6.8-5.33 0-13.6-8.4-16.13-16.667-2.14-6.667-2.14-7.467 0-13.067 2.66-6.933 5.73-10.133 14.66-14.8 8.27-4.4 12.8-4.4 21.07.134zm-1087.732 29.6 3.733 3.866-4.8 9.2c-7.6 14.534-7.466 14.534-11.866 10l-3.734-3.866 5.734-11.6c3.066-6.267 6-11.467 6.4-11.467.533 0 2.533 1.733 4.533 3.867zm1114.002 14.133c2.93 4.133 5.46 7.867 5.46 8.533 0 .534-1.33 1.6-2.93 2.4-2.93 1.334-2.8 1.467 2.4 4.134 8.4 4.266 12.13 13.733 7.87 19.866-2 2.8-1.87 3.067 3.33 5.734 8.93 4.533 12.4 12.666 8.67 20-1.74 3.466-5.07 5.6-17.47 11.466-14.27 6.667-15.33 7.334-14.93 10.667.66 6.267-2.27 4.8-6-2.8-2-4.133-3.6-8.267-3.6-9.2 0-1.067 3.46-3.2 7.73-4.8 14.13-5.6 22.93-10.933 23.73-14.133 1.07-4.267 0-6.534-4.13-9.334-3.2-2.133-3.73-2-16.8 4.267-12.13 5.867-13.33 6.667-12.93 9.733.26 2.267-.27 3.467-1.47 3.467-2.53 0-12.53-21.6-10.53-22.8.8-.533 2.13 0 3.06 1.2 2.4 3.2 4 2.933 18-4.133 13.74-6.8 15.6-9.334 11.47-15.734-3.2-4.666-8-4.133-20.93 2.4-9.07 4.667-11.34 6.4-11.6 9.067-.94 6.667-2.8 5.333-8.14-6-3.06-6.4-5.46-12.267-5.46-12.8 0-2.133 3.73-1.333 4.53.933 1.2 3.067 5.73 1.867 19.73-4.666 12.4-5.867 13.87-7.2 13.2-11.867-.53-4.8 1.74-3.467 7.74 4.4zM144.101 484.872c3.2 1.334 5.334 3.467 6.934 7.2l2.4 5.334 4-2.667c7.6-4.933 21.066-1.733 27.066 6.533 11.2 15.734-4.4 41.067-21.066 34.134-6.667-2.8-10.4-6.667-11.334-11.867l-.8-4.267-5.866 2c-12.4 4.534-24.134-4-23.734-17.2.267-10.8 7.6-20.933 15.334-21.2 1.333 0 4.4.934 7.066 2zm1227.869 48.134c2.66 4.933 4.53 9.066 4.26 9.466-.4.267-7.06 2.267-14.93 4.4s-14.67 4.134-14.93 4.534c-.4.4 1.46 2.533 4 4.8 12.53 10.933 8 27.6-8.54 32-9.86 2.666-17.46.133-28.4-9.734-6.53-5.733-6.66-6-7.2-14.666-.4-5.334-1.33-9.467-2.4-10.4-1.06-.8-1.86-2-1.86-2.534s5.6-2.4 12.4-4c13.06-3.2 40.4-11.066 46.66-13.6 2.8-1.066 3.6-2.266 3.6-5.2 0-6 2-4.666 7.34 4.934zm-1245.602 5.466c11.333 10.667 32.667 28.8 38.667 33.067 2.266 1.6 2.4 2.267.933 6.533-.8 2.667-2 4.8-2.533 4.8s-7.867-6.933-16.267-15.6c-20.4-20.8-25.467-25.733-26.533-25.733-.8 0-3.334 8-7.467 22.933-.533 1.734.8 3.2 4 5.2 4.4 2.534 6.933 7.6 3.2 6.134-.933-.4-6.133-1.734-11.333-3.067-5.334-1.333-9.734-2.933-9.734-3.6 0-.933 8.667-32 11.334-40.667 1.066-3.066 3.333-1.6 15.733 10zm3.6 49.334c19.867 4.8 29.333 13.333 29.333 26 0 5.733-5.733 15.066-10.266 16.8-7.734 2.933-10 3.066-22 .933-13.734-2.4-28.267-8.667-32-14-5.2-7.2-4.667-19.733 1.067-26.667 6-6.933 14.534-7.733 33.867-3.066zM1355.7 602.072c4.8 2 11.2 8.8 13.2 14 2 5.334 1.6 13.067-.8 16.8-2.93 4.534-9.87 8.667-14.27 8.667-3.06 0-3.73-.933-5.6-7.067-1.2-3.733-2.93-10-3.6-13.733-1.33-6-1.86-6.8-4.13-6.267-4 1.067-10.13 7.734-10.93 12-.67 3.334.4 7.734 3.73 15.334.67 1.6.4 2.4-.8 2.4-2.67 0-4.27-1.334-7.87-6.667-4.4-6.267-4.8-21.333-.66-26.933 6.4-8.4 22-12.667 31.73-8.534zm-1221.732 44.8v5.334h5.467c4.8 0 5.6-.4 6.933-4 .8-2.267 2.267-4 3.2-4s1.733.133 1.733.266c0 .267-.933 6.934-2 15.067l-2 16.267c0 .933-.933 1.733-2 1.733-1.466 0-2-1.467-2-5.333 0-5.734-2.4-8-8.4-8-3.066 0-3.466.8-4.8 8.4-.8 4.666-1.466 9.733-1.466 11.333 0 2.133-.8 2.933-3.067 2.933-3.867 0-28-16.533-37.067-25.2-5.733-5.6-6.533-6.933-6.533-11.866 0-6.667-1.067-6.534 20.667-2.934 21.466 3.6 21.866 3.6 22.933-1.333.533-3.333 1.333-4 4.533-4 3.6 0 3.867.4 3.867 5.333zm1240.132 9.334c2 5.066 3.2 9.6 2.8 10s-2.13.666-3.87.666c-4.26 0-3.86 1.734 1.6 5.867 6 4.667 6.54 10.133 1.07 10.133-2.13 0-5.07.4-6.8.934-3.07.8-3.07.533-2.27-5.334.8-5.333.54-6.266-2.26-8.133-2.54-1.6-4.67-1.733-12.4-.667-15.47 2.134-17.34 2.8-17.34 7.2-.13 4.667-3.06 6-3.86 1.734-3.74-19.6-3.34-32.134.8-23.067 1.6 3.6 1.73 3.6 10.4 2.8 4.8-.533 12.4-1.467 17.06-2.267 7.2-1.333 8.27-1.866 8.27-4.4 0-2.933.93-4.8 2.53-4.8.54 0 2.4 4.134 4.27 9.334zM93.968 696.872c4.8 2.667 18.133 9.467 29.733 15.067 20.534 10 20.934 10.267 20.934 14.533 0 2.267-.667 4.667-1.467 5.067-.667.533-8.667-3.733-17.6-9.333-16.8-10.667-33.6-20.667-34.933-20.667-.4 0-.667 6.267-.667 13.867v13.866l5.067 1.2c2.667.667 4.933 1.867 4.933 2.8s-.4 1.6-.933 1.6H76.902l.667-21.066c.267-11.467.8-21.734 1.067-22.534.667-2.133 3.733-1.066 15.333 5.6zm1233.332.934c1.47 1.733 2.53 3.6 2.67 4.266 0 .8 1.2 0 2.66-1.6 3.74-3.866 7.74-3.733 12.4.667 3.07 2.933 4.14 3.333 4.67 1.867 1.47-4.4 7.33-8.134 12.53-8.134 7.34 0 12.54 3.2 15.87 9.6 2.93 5.734 2.93 5.467.4 30.8-.67 6.934-1.07 7.734-3.6 7.334-2-.267-3.07-1.467-3.33-3.734-.4-2.933-1.07-3.333-6.54-3.6-9.33-.4-16.4-8.533-16.4-19.333 0-5.6-1.6-8.133-4.8-7.467-2.26.4-2.53 1.867-2.53 15.334 0 18.266-1.2 20.4-12 20.4-9.2 0-14.93-3.867-19.6-13.2-6.4-12.534-4-31.6 4.67-35.867 4.13-2.133 10-.8 12.93 2.667zM778.901 81.139c-.4.533-.8 5.867-1.067 11.733l-.533 10.666 3.866.4c5.2.667 10.8-2 12.667-5.866 2.267-4.933 1.867-11.867-.8-14.133-2.8-2.4-13.067-4.533-14.133-2.8zm-2.8 35.2c-2.134 19.867-2 21.334 1.6 22.667 4.666 1.733 10 .4 13.733-3.6 2.533-2.667 3.067-4.8 3.2-11.2 0-9.867-2.8-13.333-11.733-14.267l-6-.666-.8 7.066zm117.333 10.4c-5.2 5.733-7.333 16.8-4.666 23.733 1.733 4.667 3.333 5.734 9.333 5.734 6.133 0 7.333-1.467 10.533-12.934 3.334-11.333 3.334-11.333-.666-15.6s-11.067-4.8-14.534-.933zm-55.2 4.133c-7.067 2.934-6.267 13.334 1.067 13.334 4.666 0 8-3.067 8-7.334 0-1.733.4-4 .8-5.2.666-1.6 0-2.133-2.934-2-2.133 0-5.2.534-6.933 1.2zm118.8 12.134c-1.6.533-3.867 2.8-4.933 4.933-2.4 4.667-1.867 5.334 6.8 8.667 5.466 2.133 5.733 2.133 7.066-.4 4.267-8-1.2-16.133-8.933-13.2zm-503.199 25.333c-2.267 2.267-2.667 3.867-2 7.6 1.733 10.934 13.066 26.934 19.2 26.934 1.333 0 3.733-.934 5.333-2.134 4.267-2.933 3.733-9.466-1.333-20-6.8-14-14.934-18.666-21.2-12.4zm-83.601 55.2c-6.133 5.2-6.133 7.6.8 17.733 3.333 4.934 6.667 9.334 7.467 9.867 3.066 2.133 8.933 1.067 12.133-2.267 4.533-4.4 4.4-10.533-.533-18.266-6.267-9.867-13.467-12.4-19.867-7.067zm-101.067 85.334c-1.866 2.8-1.866 4-.533 7.333 3.067 7.333 4.933 7.6 10.667 2 6.266-6.133 6.533-7.6 2-10.533-4.8-3.2-9.6-2.667-12.134 1.2zM1274.77 415.272c-2.4 1.734-2.27 2 .26 7.067 4.14 8 5.87 9.067 10 5.867 4.67-3.734 5.6-7.467 3.07-11.334-2.53-3.733-9.33-4.533-13.33-1.6zM131.834 493.273c-2.133 1.466-4.533 6.4-4.533 9.466 0 3.734 4.533 8.134 8.4 8.134 1.733 0 5.6-1.734 8.666-3.867 6.134-4.533 6.267-7.733.534-12.133-3.334-2.667-10.267-3.467-13.067-1.6zm34.8 12.266c-1.467.533-4.667 2.8-7.2 4.933-3.733 3.2-4.4 4.534-3.733 7.334 1.333 5.066 8.4 9.733 14.666 9.733 4.134 0 6-.933 9.067-4.4 4.4-4.933 4.667-7.067 1.6-12.267-3.333-5.733-8.8-7.733-14.4-5.333zm1158.796 51.333c-5.06 1.734-9.6 3.867-10.26 4.8-1.6 2.534-1.47 8.8.13 11.867 3.47 6.4 18.93 6.133 27.33-.533 7.6-6 3.87-19.734-5.2-19.334-1.46 0-6.93 1.467-12 3.2zM100.634 597.806c-2.533 1.466-3.333 2.8-3.333 6.4 0 4.266.667 5.066 6.666 8.266 6.534 3.467 30 9.067 37.867 9.067 13.467 0 16.8-10.267 5.2-15.867-12.4-6-40.8-10.8-46.4-7.866zm1247.996 15.733c0 .667.67 4.267 1.47 8 1.2 5.867 1.87 6.667 4.67 6.667 3.46 0 9.86-5.334 9.86-8.267 0-1.067-.93-3.2-2.13-4.8-1.6-2.267-3.33-2.933-8-2.933-3.2 0-5.87.533-5.87 1.333zm-1253.329 48c2.533 2.267 9.066 7.067 14.533 10.667 11.2 7.466 11.6 7.466 12.4-3.334l.4-6.666-13.333-2.267c-19.067-3.2-19.6-3.2-14 1.6zM1318.5 704.206c-6.8 2.666-9.47 14.4-5.2 22.533 2.4 4.8 8.93 7.6 13.73 6 3.47-1.2 3.6-1.733 4-12 .4-10.667.27-10.933-3.73-14.4-4.53-3.733-4.67-3.867-8.8-2.133zm37.6 5.466c-4 3.2-4.4 6-1.33 10.4 2 2.8 3.06 3.067 10.26 2.534 8.27-.667 11.6-2.934 11.6-8 0-7.334-13.33-10.534-20.53-4.934z" />
    <path fill="#000"
      d="M413.968 754.206c-6.933 4.8-13.2 8.8-14 9.2-.667.266-.933.933-.4 1.466s3.867-.266 7.333-1.733c3.6-1.467 6.934-2.267 7.467-1.733.667.666.933 14.666.667 31.333-.4 33.2-.267 32.8-8.667 32.8-2.267 0-4.667.533-5.067 1.333-.533.8 6.267 1.334 19.334 1.334s19.866-.534 19.333-1.334c-.4-.8-2.8-1.333-5.333-1.333-2.8 0-4.8-.8-5.467-2.4-.667-1.2-1.2-18.8-1.2-39.2 0-20.267-.4-37.2-.8-37.6s-6.267 3.2-13.2 7.867zm62.133-7.2c-12.133 2.933-19.466 11.6-19.466 23.333 0 12.133 8.4 20.533 20.4 20.533 6.933 0 15.6-2.933 15.6-5.466 0-.934-.934-1.067-2.267-.534-12.133 5.2-21.733-2.666-21.733-17.6 0-15.066 12.666-21.733 22.133-11.466 4.533 4.933 6.267 12.666 5.6 25.866-.4 9.734-1.2 12.934-5.067 20.667-4.133 8.533-14.933 21.2-20.666 24.267-1.467.8-2.134 1.866-1.6 2.4 1.733 1.733 12.133-4.4 20.666-12.267 14.667-13.333 21.067-27.333 20-44.133-.533-8.134-1.333-10.8-4.533-15.334-6.267-8.933-17.867-12.933-29.067-10.266zm578.529 3.2c-10.8 3.866-16.53 15.066-12.26 24 1.2 2.4 4.53 6.4 7.46 8.666l5.34 4.4-5.74 3.6c-11.33 7.2-15.73 19.334-10.53 29.334 3.87 7.466 12.27 11.333 24.53 11.333 8.94 0 10.8-.533 16.54-4 15.86-9.867 15.2-28.8-1.47-39.333l-5.87-3.734 4.67-2.666c9.87-5.867 13.2-18.934 6.8-26.534-5.6-6.666-18.67-8.933-29.47-5.066zm18 6c5.74 5.733 5.07 15.866-1.46 22.133l-4 3.867-4.94-2.8c-10.53-6-13.33-15.734-6.66-22.8 3.73-4 13.2-4.267 17.06-.4zm-2 39.466c1.74 1.2 4.54 4.134 6 6.534 6.54 10.666-.26 24.8-12 24.666-13.06-.133-20-13.733-13.33-26.533 1.33-2.8 4.27-6.4 6.27-7.867 4-2.933 3.06-3.2 13.06 3.2zm-94.663-36.666c-1.066 10-.266 13.066 1.867 7.466.8-1.866 2.533-4.133 4-4.8 2.933-1.6 36.666-2 35.866-.533-.13.667-3.87 7.467-8.13 15.333-13.203 24.4-24.669 52.534-22.403 54.8 1.867 1.867 10.4-1.466 12.8-4.8 1.063-1.6 2.003-4.266 2.003-6.133 0-7.733 14.53-46.4 22.8-61.067 2.26-3.866 3.73-7.6 3.2-8.4-.54-.8-10.4-1.333-26-1.333h-25.069l-.934 9.467zm-648.666 92.533v3.333h236v-6.666h-236v3.333zm583.601 1.867c-.4 1.466-.267 2.933.133 3.333s53.733.8 118.535.8h117.73v-6.667h-117.86c-115.472 0-117.872 0-118.538 2.534zM435.568 961.139c-.667 1.333-8.267 20-16.8 41.601-18.267 45.87-19.867 49.2-24.267 50.8-6 2.27-14.933 1.6-17.866-1.33-2.534-2.54-2.667-4.4-2.667-42.8 0-25.071.533-41.071 1.333-42.671.8-1.467 2.8-2.533 4.667-2.533 1.733 0 3.6-.667 4-1.334.533-.8-6-1.333-18.533-1.333-12.134 0-19.467.533-19.467 1.333 0 .667 1.6 1.334 3.733 1.334 7.067 0 7.6 1.066 8 20l.534 17.334-25.2-.27-25.067-.4.4-16.664c.267-9.2 1.067-17.467 1.867-18.267.8-.933 2.8-1.733 4.533-1.733s3.2-.667 3.2-1.334c0-.8-7.467-1.333-19.6-1.333-12 0-19.067.533-18.4 1.2.8.667 3.067 1.467 5.333 1.733 6.8.667 7.334 3.334 7.2 41.738 0 19.06-.533 37.33-.933 40.66-.8 5.34-1.467 6.14-5.2 7.34-2.4.66-4.4 1.6-4.4 2 0 1.06 38.267.8 39.467-.4.533-.54-.8-.94-3.067-.94s-5.333-1.06-6.8-2.4c-2.533-2.13-2.8-3.86-3.2-22.93l-.267-20.67 25.067-.4 25.067-.26-.534 21.06c-.4 22.94-1.2 25.6-7.466 25.6-1.867 0-2.934.4-2.4.94 1.333 1.46 70.133 1.46 70.933.13.4-.53-.8-1.07-2.533-1.07-7.2 0-7.2-3.33-.134-21.6l3.467-9.06h30l4.8 13.06c5.333 14.14 5.867 17.6 3.333 17.74-.933 0-.533.53.8 1.06 4.267 1.6 29.734 1.87 30.8.27.534-.93-.533-1.47-2.533-1.47-7.867 0-10.667-4.93-29.333-51.2-9.6-24.131-18.267-44.131-19.067-44.398s-2.133.534-2.8 1.867zm5.867 41.471c2.666 7.46 4.666 14 4.266 14.4-.4.26-5.866.53-12.133.26l-11.333-.4 5.2-14 6-15.998c1.066-2.8 2.266-.4 8 15.738zm646.795-40.938c-.53 1.734-.93 20-.93 40.538-.13 48.53-.93 52.53-8.93 52.66-1.74 0-3.07.54-3.07 1.07 0 1.47 33.2 1.6 34.13.13.4-.66-1.06-1.2-3.33-1.2-8.4 0-8.93-2.53-10-43.33l-.67-25.334 5.47 6c10.8 11.864 65.6 66.664 66.53 66.664 2 0 2.54-8.8 2.8-49.46.4-43.738.67-45.204 7.2-45.204 1.74 0 3.2-.667 3.2-1.334 0-.8-6.53-1.333-16.8-1.333-10.8 0-16.4.533-15.86 1.333.4.667 2.4 1.334 4.4 1.334 7.46 0 7.46 0 8.66 34.8.67 17.604.8 32.404.54 32.664-.54.67-24-22.93-57.2-57.331-14.27-14.8-15.34-15.733-16.14-12.667zm-962.262.667c-9.867 4.267-14.667 11.467-14.667 21.867 0 11.066 3.867 16.934 21.067 31.864 12 10.54 14.933 14.94 14.933 22.27 0 3.73-1.066 5.87-4.533 9.33-4 4-5.333 4.54-11.333 4.54-3.867 0-8.8-.94-10.934-2.14-4-2-9.066-10.66-9.2-15.6 0-1.2-.533-2.26-1.333-2.26s-1.333 4.66-1.333 11.33c0 11.2 0 11.47 3.733 12.8 10.4 4.13 28 2.67 36.8-3.07 8-5.2 10.8-11.06 10.8-22.4 0-9.06-.4-10.53-4.267-16.26-2.4-3.34-9.733-10.4-16.4-15.604-15.6-12.267-18.533-18-14-26.667 4.4-8.533 18.267-9.067 25.6-.933 2.4 2.666 4.4 6 4.4 7.466s.667 2.667 1.334 2.667c.8 0 1.333-4 1.333-9.333 0-8.8-.133-9.467-3.467-10.667-5.2-2-23.2-1.467-28.533.8zm85.867-.133c-14.8 4.666-26.267 15.066-31.2 28.4-4 10.534-4 26.134 0 36.664 3.6 9.74 13.866 20.4 24.133 25.2 9.733 4.54 25.2 6.94 39.067 6 15.466-1.06 17.733-2.4 19.466-11.06.8-4 1.334-8.8 1.067-10.8-.4-3.47-.667-3.34-3.333 2.53-4 8.67-10.134 11.73-24 11.73-8.134 0-11.867-.66-17.067-3.2-14.933-7.06-23.467-20.53-24.4-38.93-1.067-19.068 5.467-33.201 18-39.334 8.667-4.267 26-4.4 35.333-.267 6.667 3.067 11.734 9.333 11.734 14.667 0 1.6.533 3.2 1.2 3.6 1.6 1.066 2.8-5.867 2.8-15.867v-8.267l-9.2-1.6c-12.134-1.866-36.667-1.733-43.6.534zm314.133-.134c-23.466 6.4-37.733 26.667-35.6 50.268 2.8 31.07 28.134 48.67 66 46.13 15.6-1.06 17.734-2.4 19.867-12.26 2.8-14 1.733-16.8-2.933-7.07-4.4 9.33-8.134 11.07-23.067 11.07-11.067 0-13.867-.4-19.333-3.34-8.267-4.13-14.934-11.6-19.2-21.06-2.667-6-3.334-9.87-3.334-18.94-.133-13.864 1.6-20.798 7.334-28.264 7.066-9.2 14.133-12.4 27.6-12.4 9.466 0 12.4.533 18 3.333 7.066 3.6 12.666 10.4 12.666 15.467 0 1.733.534 3.2 1.2 3.2 1.334 0 2.8-22.8 1.6-24.267-2.933-3.467-40.133-4.8-50.8-1.867zm219.6-.8c-19.466.134-30.133.8-29.6 1.6.4.8 2.534 1.334 4.534 1.334s4.266.666 5.2 1.6c1.2 1.2 1.6 12.666 1.6 43.204 0 36.13-.267 42-2.134 43.73-1.066 1.2-3.2 2.13-4.666 2.13-1.334 0-2.534.4-2.534 1.07 0 1.2 38.134 1.2 39.467-.13.533-.54-1.067-.94-3.6-.94s-5.467-.53-6.533-1.33c-2.134-1.33-3.734-14.53-3.867-32.4l-.133-11.6h10.8c12.266 0 15.866 1.33 15.866 6 0 1.87.534 3.33 1.2 3.33 1.067 0 2.8-10.4 2.8-17.06 0-2.804-.133-2.938-3.2-.94-2.4 1.6-6 2-14.933 1.74l-11.867-.4v-33.338l10.134-.4c12.266-.4 16.933 1.067 18.933 6.4.8 2.267 1.867 4 2.4 4 1.2 0 2.267-16.4 1.333-17.333-.533-.4-14.533-.533-31.2-.267zm173.466-.133c-17.866.267-29.066.933-29.066 1.733s2.133 1.334 4.666 1.334c3.2 0 4.934.8 6 2.533 2.134 4 1.734 79.871-.4 84.131-3.2 6.4-13.733 5.07-22.933-2.93-4.8-4.27-19.067-20.93-29.067-34-.8-1.07.4-2.93 3.6-5.73 7.2-6.4 12-17.204 11.2-25.338-.8-8-5.2-14.933-11.733-18.133-3.867-2-8.933-2.533-31.2-2.933-18.933-.4-26.133-.134-25.6.933.533.8 2.667 1.467 4.667 1.467s4.266.666 5.2 1.6c1.2 1.2 1.6 12.666 1.6 43.204 0 36.13-.267 42-2.134 43.73-1.066 1.2-3.2 2.13-4.666 2.13-1.334 0-2.534.54-2.534 1.07 0 1.33 35.467 1.33 36.8-.13.534-.54-.666-.94-2.533-.94-2 0-4.8-1.2-6.267-2.66-2.4-2.4-2.666-4.4-2.666-18.67v-16h13.2l8.266 11.6c10.4 14.67 16.534 21.6 21.734 25.07 3.866 2.53 6.666 2.66 44.533 2.93l40.4.13 1.333-3.2c.667-1.86 1.2-6.53 1.067-10.26l-.133-6.94-1.6 4.67c-1.067 3.07-3.2 5.47-6.267 6.93-7.467 3.87-22.533 2.67-25.467-2-.533-.93-1.066-9.6-1.066-19.33v-17.6h10.666c11.6 0 16 2.27 16 8.27 0 1.86.534 2.4 1.2 1.6 1.067-.94 2.134-14.4 1.6-19.604-.133-.667-1.466-.134-3.066.934-2.134 1.6-6.267 2.13-14.667 2.13h-11.733v-34.664l9.733.133c13.467.133 16 1.067 17.6 6.267 1.733 6.133 2.8 5.333 3.867-2.8 1.066-9.2 1.066-11.6-.134-11.334-.666.267-14.133.534-30 .667zm-79.866 9.467c5.866 4.4 8.266 8.933 9.066 17.2 1.467 16.134-6.8 25.734-20.4 23.604l-5.866-.8v-21.071c0-15.6.4-21.333 1.733-21.867 2.8-1.2 12.133.534 15.467 2.934zm504.402-9.334c-18.94.134-29.47.8-28.94 1.6.4.8 2.54 1.334 4.54 1.334 7.33 0 7.46.933 7.46 43.204 0 21.33-.53 40.53-1.06 42.53-.67 2.67-2.14 3.87-4.94 4.53-8.8 1.74-2.66 2.4 24.54 2.8 21.73.27 28.8 0 29.86-1.33 1.87-2.27 3.6-17.07 2-17.07-.66 0-2 2.14-2.93 4.67-1.33 3.73-2.67 4.93-7.2 6.13-6.4 1.74-18.8.8-21.73-1.6-1.47-1.2-1.87-5.6-1.87-20.13v-18.67l11.33.4c12.14.54 14 1.6 14 7.47 0 1.73.67 3.07 1.34 3.07.8 0 1.33-1.6 1.33-3.74 0-2 .4-6.8.8-10.66l.93-6.938-3.86 1.998c-2.54 1.34-7.74 2-14.8 2h-11.07v-34.664h9.2c11.73 0 15.87 1.6 17.6 6.666.8 2.134 2 4 2.53 4 1.2 0 2.4-17.466 1.34-17.733-.4-.133-14-.133-30.4.133zm-750.935 1.6c0 .667 1.733 1.334 3.866 1.334 8.267 0 8.267 0 7.867 46.134-.4 45.33-.267 44.4-7.6 44.53-1.733 0-2.8.4-2.267.94 1.334 1.46 39.467 1.6 39.467.13 0-.53-1.733-1.07-3.733-1.07-2.134 0-4.934-.8-6.4-1.86-2.267-1.74-2.534-4-3.067-23.34l-.4-21.46 24.933.26 25.067.4-.267 20.4c-.133 11.34-.666 21.34-1.066 22.4-.4 1.07-2.4 2.4-4.534 2.8s-3.866 1.07-3.866 1.6c0 1.2 38.266 1.07 39.466-.26.534-.54-1.2-.94-3.866-.94-2.534 0-5.6-.93-6.667-2-2.933-2.8-3.867-19.06-3.333-54.131.4-32.267.933-34.533 7.2-34.533 1.733 0 3.2-.667 3.2-1.334 0-.8-7.334-1.333-19.467-1.333-12.533 0-19.067.533-18.533 1.333.4.667 2.533 1.334 4.533 1.334 2.133 0 4.4.8 5.2 1.733s1.6 8.8 1.733 18.267l.134 16.664-24.8.4-24.8.27v-15.201c0-18.667 1.066-22.133 6.666-22.133 2.134 0 4-.667 4-1.334 0-.8-7.333-1.333-19.333-1.333s-19.333.533-19.333 1.333zm372 0c0 .667 1.6 1.334 3.733 1.334 7.6 0 7.467-.134 8.4 34.933.533 20.001 1.467 34.401 2.533 37.731.934 3.07 4.267 8 7.867 11.6 8 8 17.732 11.07 31.602 10 15.06-1.06 25.46-7.6 31.06-19.46 3.34-7.2 3.47-8.4 4.14-39.871.66-34.667.8-34.8 7.73-34.933 1.6 0 2.93-.667 2.93-1.334 0-.8-6.53-1.333-16.8-1.333-10.8 0-16.4.533-15.86 1.333.4.667 2.26 1.334 4 1.334 1.73 0 4.13 1.066 5.33 2.266 2 2 2.27 5.734 1.73 34.938-.4 28.8-.8 33.46-2.93 37.86-6.4 13.07-26.93 16.94-38 7.07-1.73-1.47-4.399-5.47-5.999-8.8-2.533-5.47-2.8-8.93-3.2-36-.533-33.868 0-37.334 6.4-37.334 2.129 0 3.999-.667 3.999-1.334 0-.8-7.332-1.333-19.332-1.333s-19.333.533-19.333 1.333zm233.335-.133c0 .8 2 1.467 4.26 1.733 7.34.667 7.74 2.934 7.6 41.738 0 19.06-.53 37.33-.93 40.66-.8 5.34-1.47 6.14-5.47 7.47-2.53.8-4 1.73-3.33 2.13.67.27 15.07.54 31.87.54 29.2-.14 31.06-.27 38.66-3.34 31.6-12.8 40-57.731 14.8-79.864-11.6-10.134-21.46-12.267-59.06-12.267-16.8 0-28.4.533-28.4 1.2zm46.26 5.467c23.07 2.933 37.34 17.866 38.8 40.664 1.2 19.87-4.66 32.94-17.86 38.94-12.27 5.6-31.2 5.73-36.67.26-2.4-2.4-2.53-4.8-2.53-41.06v-38.671l3.73-.533c2-.267 3.87-.667 4.27-.667.4-.133 5.06.4 10.26 1.067zM237.168 1167.67c3.2 3.2 3.067 45.2-.133 48.8-2 2.27-1.867 2.4 5.333 2.4h7.6l-2.666-2.66c-2.267-2.27-2.667-4.4-2.667-14v-11.34h30.667v12.67c0 10.53-.4 12.8-2.267 13.87-1.867 1.06-.267 1.33 6.267 1.33s7.866-.4 5.733-1.2c-3.067-1.2-3.067-1.6-3.067-25.07 0-16.66.534-24.26 1.6-25.33 1.2-1.2-.133-1.6-6.266-1.47-6.134 0-7.334.27-4.934 1.2 2.667 1.2 2.934 2.14 2.934 11.34v10.13l-14.934-.4-15.066-.4-.4-8.53c-.267-6.54.133-9.07 1.866-10.94 2.267-2.4 2-2.53-4.666-2.53-6.4 0-6.8.13-4.934 2.13zm613.333.8c2.933 4.14 3.067 41.2.267 46.67l-2 3.73h9.866c5.467 0 11.334-.53 13.334-1.33 5.6-2.13 10-7.87 10-12.93 0-4.54-3.2-12.4-5.067-12.4-.533 0-2-.94-3.467-2-2.4-1.74-2.4-2 .4-5.74 2.8-4 3.6-8.8 2-12.93-1.466-3.87-8-6-17.866-6h-9.467l2 2.93zm17.867 1.6c2.666 2.54 3.6 11.2 1.6 14.94-1.467 2.53-2.8 3.2-6.934 3.2h-5.066v-9.87c0-6.67.533-10.13 1.733-10.53 2.133-.94 6.533.26 8.667 2.26zm1.466 22.94c3.467 2.53 6.8 9.46 6.8 14.4 0 4.8-4.8 8.8-10.666 8.8-7.067 0-8-1.74-8-14.27v-11.07h4.4c2.4 0 5.733.94 7.466 2.14zm-362.8-19.6c-14.4 4.66-20.933 20-14 33.46 4.667 9.2 8.534 11.34 20.934 11.34 9.6 0 10.8-.27 15.6-4.14 6.8-5.46 10.666-16.26 8.533-24.13-1.733-6.53-5.733-11.73-10.667-14.4-4.8-2.4-15.733-3.6-20.4-2.13zm16 4.13c8.8 5.33 12 19.47 6.934 30.13-6.267 12.8-25.2 11.47-31.334-2-3.333-7.6-2.4-20.13 2.134-24.93 5.866-6.4 14.8-7.73 22.266-3.2zm537.066-1.2c-.93 2.53-4.67 11.87-8.13 20.93-7.07 18.14-8.94 20.94-12.54 19.07-2.26-1.2-13.06-13.47-15.33-17.2-.53-.93.4-3.33 2.4-5.73 3.33-4 4.4-9.34 2.67-13.87-1.6-4-7.87-6-18.8-5.87-5.74 0-9.6.4-8.67.8 2.27.94 2.27 40.54 0 42.8-1.2 1.2 0 1.6 5.33 1.6h6.94l-2.8-2.8c-2.14-2.13-2.54-4-2.27-9.6l.4-6.93 4.67.4c3.2.27 5.46 1.6 7.33 4 1.33 2 5.07 6.13 8.13 9.2 5.34 5.6 5.74 5.73 14 5.73 6.14 0 8-.4 6.94-1.46-1.07-1.07-.8-3.34.8-8.4l2.4-6.8 7.06-.4c3.87-.27 7.6.13 8.14.66.66.67 2.4 4.54 3.73 8.54 2.53 7.06 2.67 7.2 8.13 7.6l5.74.4-3.47-3.07c-2.13-1.87-6.53-10.53-11.6-23.07-4.53-11.06-8.53-20.26-8.8-20.53s-1.33 1.47-2.4 4zm-38.27 3.33c3.34 4.27 3.6 10.8.67 14.94-1.73 2.53-3.2 2.93-7.6 2.66l-5.6-.4-.4-10.4-.4-10.26h5.33c4.14 0 5.87.8 8 3.46zm42.8 10.67c1.47 4.13 2.54 7.87 2.14 8.13-.8.8-10.14.8-10.94.14-.4-.54.8-4.94 4.14-14.14 1.06-2.8 1.73-1.86 4.66 5.87zm40-16.53c-13.6 3.73-20.13 20.93-12.93 33.6 4.4 7.73 12.27 11.46 24.4 11.46 10.8 0 14-1.73 13.73-7.73 0-2.13-.4-2.8-.8-1.6-2.66 7.2-13.2 9.07-23.2 4-12.13-6.27-15.33-24.67-6-34 6.67-6.67 24.14-5.6 28 1.73l2 3.6.14-5.46v-5.47l-6.94-.93c-9.06-1.07-12.66-.94-18.4.8zm-801.595 1.33c2.266 2.27 2.266 39.87 0 42.13-1.334 1.34.8 1.6 10.8 1.34l12.666-.4.934-4c1.066-4 .933-4-1.067-1.07-1.6 2.4-3.333 3.07-7.867 3.07-7.2 0-8.8-2.54-8.266-12.67l.4-7.33h6.266c5.067 0 6.4.4 6.4 2.26 0 2.94.8 1.87 1.734-2.26.8-3.34.666-3.34-6.8-3.34h-7.6v-16l6-.4c4.4-.4 6.266.14 7.6 1.87 1.6 2.13 1.733 2 1.733-1.2v-3.6h-12.267c-9.6 0-11.866.4-10.666 1.6zm38.667-.67c2.266.94 2.266 40.54 0 42.8-1.2 1.2 0 1.6 5.733 1.6 5.467-.13 6.667-.4 4.933-1.46-2.133-1.2-2.4-3.74-2.4-21.87 0-15.07.4-20.67 1.734-21.07.8-.4-1.334-.66-5.067-.66-3.6 0-5.867.26-4.933.66zm26 .54c2 1.2 2.266 3.6 2.266 20.53 0 15.6-.4 19.47-2.133 21.2-1.867 2-.8 2.13 11.467 2.13 13.2 0 13.466 0 14.8-3.46 1.6-4.4.666-5.74-1.467-2-1.067 2.26-2.667 2.8-7.733 2.8-3.6 0-7.067-.67-8-1.6-1.067-1.07-1.6-7.47-1.6-20 0-16 .266-18.4 2.4-19.6 1.733-1.07.533-1.34-5.067-1.34s-6.8.27-4.933 1.34zm38 .13c1.066 1.07 1.6 7.73 1.6 21.07 0 13.33-.534 20-1.6 21.06-1.2 1.2.666 1.6 8.533 1.6 8.267 0 10.8-.53 14.533-3.06 8.4-5.6 8.534-14.8.4-20.27-4.133-2.8-4.133-2.8-1.733-5.87 3.6-4.53 3.2-10-.933-13.33-2.8-2.27-5.467-2.8-12.934-2.8-7.333 0-9.066.4-7.866 1.6zm17.066 2.67c4.4 3.33 2.534 13.73-2.666 14.66-6.4 1.2-7.467 0-7.467-8.26 0-4.94.533-8 1.733-8.4 1.867-.8 6.267.26 8.4 2zm.534 19.06c5.066 2.67 7.6 9.87 5.066 14.94-1.466 3.06-2.666 3.86-7.6 4.13-7.333.53-8.133-.53-8.133-12.13 0-8.67.133-8.94 3.333-8.94 2 0 5.2.94 7.334 2zm23.066-21.86c2 1.2 2.266 3.6 2.266 20.53 0 15.6-.4 19.47-2.133 21.2-1.867 2-1.333 2.13 5.733 2 6.667 0 7.334-.27 4.667-1.47-2.8-1.33-3.067-2.26-2.667-9.6l.4-8.13 4 .4c2.8.27 5.334 2 8.667 6 9.467 11.47 11.467 12.93 16.933 12.93h5.067l-4-2.53c-2.267-1.33-7.2-6-10.933-10.27-6.8-7.73-6.934-7.86-4.534-10.53 6.534-7.2 6.934-12.67 1.6-18.13-3.733-3.74-4.4-3.87-15.733-3.87-8.667.13-11.067.4-9.333 1.47zm19.866 3.46c3.334 3.74 4 8 2.4 13.07-1.6 4.93-4.933 6.67-10.8 5.73-3.066-.4-3.2-1.06-3.6-10.8l-.4-10.26h5.2c3.334 0 6 .8 7.2 2.26zm83.734 16.14c0 14.66-.533 21.6-1.6 22.66-1.2 1.2-.133 1.6 4.934 1.6 6 0 6.266-.13 3.866-1.86-2.266-1.74-2.533-3.87-2.933-18.14l-.533-16.13 17.733 18.13c9.6 9.87 18.133 18 18.8 18 .533 0 1.067-9.86 1.067-21.86 0-16.27.4-22.14 1.733-22.54.8-.4-1.067-.8-4.267-.8-5.066-.13-5.6.14-3.733 1.47 1.733 1.47 2.267 4.67 2.533 17.47.267 8.53 0 15.6-.4 15.6s-8.4-7.87-17.733-17.34c-9.333-9.6-17.6-17.33-18.267-17.33s-1.2 9.47-1.2 21.07zm57.333.26c0 18.8-.267 21.34-2.267 22.54-1.867 1.06-.8 1.33 4.667 1.46h6.933l-2.667-2.66c-2.4-2.4-2.666-4.4-2.666-18v-15.2l17.466 17.86c9.6 9.87 18 17.6 18.667 17.2s1.2-9.86 1.2-21.06c0-14 .533-20.8 1.6-21.87 1.2-1.2.267-1.6-4.267-1.6-4.8.13-5.466.4-3.6 1.47 2 1.2 2.267 3.46 2.267 17.73v16.4l-16.933-17.6c-9.467-9.73-17.867-17.73-18.667-17.87-1.333-.13-1.733 4.94-1.733 21.2zm289.067-19.73c2 2 2.266 39.2.266 40.4-3.2 2-.8 3.33 5.734 3.2 3.733 0 6-.4 4.933-.8s-2.4-1.47-2.933-2.27c-1.734-2.53-1.2-38.8.533-40.53 1.2-1.2.267-1.6-4.267-1.6s-5.466.4-4.266 1.6zm25.334-.8c2.266 1.07 2.266 40.67 0 42.93-2.134 2.14 17.866 2.27 22 .14 4.666-2.4 7.6-6.8 7.6-11.74 0-3.46-1.067-5.46-4.8-9.06-4.4-4.14-4.667-4.67-2.8-6.8 3.6-4 4-8.8 1.2-12.4-2.4-2.8-3.867-3.2-13.867-3.47-6-.27-10.267 0-9.333.4zm18 4.8c2.533 3.07 2.933 6.67.933 10.53-1.067 1.87-2.8 2.54-6.667 2.54h-5.333v-7.87c0-5.07.533-8.13 1.733-8.53 2.534-1.07 6.8.4 9.334 3.33zm1.333 18.4c4.533 3.6 6 10.8 3.067 15.33-1.734 2.67-3.334 3.34-7.467 3.34-6.533 0-8-2.4-8-13.2v-8.14h4.533c2.4 0 6 1.2 7.867 2.67zm21.333-22.53c2 1.2 2.267 3.73 2.267 20.93 0 14-.534 20.27-1.6 21.33-1.334 1.34.933 1.6 10.933 1.34 12.4-.4 12.667-.54 13.067-3.74.266-2.93.133-3.06-1.067-1.06-1.067 1.73-3.2 2.4-7.333 2.4-7.2 0-8.667-2.14-8.667-12.54v-7.46h6.533c5.2 0 6.8.53 7.2 2.26.4 1.34.667.67.8-1.6.134-4 0-4-6.8-4h-7.066l-.4-5.2c-.8-9.6.4-11.46 7.066-11.46 4.134 0 6.267.66 7.2 2.26 1.2 2 1.334 1.87 1.467-1.33v-3.6h-12.933c-9.6.13-12.4.4-10.667 1.47zm180.662-.54c2.27.94 2.27 40.54 0 42.8-1.2 1.2 0 1.6 5.74 1.6 5.46-.13 6.66-.4 4.93-1.46-2-1.07-2.4-3.2-2.4-11.87v-10.67h25.33v10.4c0 6.27-.66 11.07-1.6 12-1.2 1.2 0 1.6 5.74 1.6 5.46-.13 6.66-.4 4.93-1.46-2.13-1.2-2.4-3.74-2.4-21.87 0-15.07.4-20.67 1.73-21.07.8-.4-1.33-.66-5.06-.66-3.6 0-5.87.26-4.94.66 1.07.4 1.6 3.6 1.6 9.2v8.54h-25.33v-8.54c0-5.6.53-8.8 1.73-9.2.8-.4-1.33-.66-5.06-.66-3.6 0-5.87.26-4.94.66z" />
    <g stroke="#000">
      <path fill="#d8201f" stroke-width="3"
        d="M679.674 1115.89h-1.577l.079 1.58 1.498-.08-1.498.08v.01l.002.04.008.16.031.62.12 2.35.436 8.55 1.425 27.11 3.132 51.75c1.431 16.67 8.948 32.39 21.149 44.28 12.636 12.32 29.05 19.12 46.221 19.12s33.587-6.8 46.22-19.12c12.202-11.89 19.717-27.62 21.148-44.28.741-8.61 2.03-31.27 3.134-51.75l1.426-27.11.437-8.55.119-2.35.031-.62.008-.16.002-.04.001-.01-1.498-.08 1.498.08.079-1.58H679.674z" />
      <g fill-rule="evenodd">
        <path fill="#000"
          d="M704.856 1145.41c5.546 7.18 3.449 13.11 12.757 19.78-5.508 2.89-8.77 6.9-12.497 10.68l-15.62-4.43c1.732 4.34 5.481 11.07-2.603 14.58 6.577-.88 10.817 2.45 12.689 10.04l9.843-11.27c7.197-2.01 10.667-.92 15.998-1.37 6.823 7.57 13.103 15.91 22.574 20.66-12.457 5.06-11.317 11.27-9.036 17.87-1.555 3.78-6.638 5.79-11.195 8.07l-15.1-4.69c5.442 6.16 1.846 10.81-3.905 15.1 4.524.78 10.594-1.63 10.414 8.85 5.223-2.4 7.74-6.53 9.669-7.88 1.219-.85 3.476-.01 4.862.38 5.533-1.85 8.358-4.95 17.513-5.13 6.649-.47 5.227-2.23 4.357-5.05-.331-1.92-.502-3.83.046-5.75 1.056-1.44 1.597-3.05 4.426-3.9 5.72 3.2 12.473 4.09 15.881 12.49l2.272 10.09-14.248-2.28c6.605 7.27-.322 10.3-4.803 13.38 6.581-.09 16.62-3.93 12.614 7.45 7.537-3.94 11.29-8.27 12.877-12.84l2.172.45c7.269-8.22.429-14.66 6.819-21.45-4.743-1.59-8.188-6.1-11.715-10.42-1.159-3.12-.699-6.24 0-9.37l13.487 15.72c13.071 10.12 18.03-4.41 16.645-7.4-10.458-15.65-18.863-14.28-28.57-21.34l-19.786-15.1c-2.631-4.2-5.103-9.24-3.224-17.88 6.713-9.02 9.749-17.81 3.484-23.77 1.342-6-2.291-8.01-5.181-11.29l.025-5.25-9.355 2.27c-5.398-.11-9.707-1.73-16.78 1.23-.913 1.48-5.492 5.12-2.813 9.66l2.343.78 1.562 1.56-6.509 1.3c-2.343-.37-2.063-2.78-1.637-5.31-2.228 1.03-3.886 3.69-3.643 6.31.51 3.12 7.276-.13 11.268-.48-.008 1.14-.263 2.13-1.822 2.34l-.05 2.42c2.186.49 4.578.99 5.257 1.49-1.407 1.13-3.216 4.17-9.868 3.74l-13.513-11.63c-.216-4.4-.423-10.21-2.746-14.97-.413 1.58-.364 3.71-1.99 4.38-4.592 1.13-8.999.06-13.278-2.57 5.656 6.36 5.134 12.19-4.14 15.25 2.61 1.72 8.474 3.08 13.773 4.5z" />
        <path fill="#f9d100"
          d="M719.828 1228.99c2.133 1.62 1.803 2.58 6.48 4.88-5.022.91-8.761 2.84-12.951 4.41 3.915.57 8.653-.22 13.058-.47l-4.352 5.53c-1.403 2 1.075 2.09 2.325 1.16 1.686-1.53 2.812-2.32 4.498-4.69 8.332.31 14.903-4.31 22.351-6.47 2.98-2.29 2.013-4.59 2.304-6.88-1.767-.64-2.63 1.4-3.804 5.33-5.148 1.75-11.042 2.99-16.028 5.55-2.116-.2-2.438-1.53-3.176-2.59.862.59 1.617 1.39 2.823 1.3 5.389-3.14 7.897-3.06 12.959-5.05 4.934-.97 3.608-3.95 5.275-5.66l2.235-.47c.786-.15 1.676.12 2.118-1.41-.028-7.53-1.505-14.95-7.765-17.14-3.916.59-6.051 1.2-8.705 4.67-2.314 3.5-1.616 7.53 1.559 10.78.682 1.35-3.468 3.59-5.245 4.66l-8.195 4.44c-2.603-.65-5.699-2.04-7.764-1.88zm-4.908 6.61c.956-1.9 1.928-3.86 1.734-6.29-.1-.57.014-.44.442-.18l3.898 2.52c.561.97 1.333 2.06-.618 2.67l-5.049 1.86c-.773.29-.756.11-.407-.58zm5.745 7.48 3.236-4c-.371-.25-7.536.14-7.644.2-.969.04-.546.56.199.93 1.505.79 2.377 1.62 3.076 2.76.309.45.629.83 1.133.11zm47.835 3.51 4.738 2.02-5.176 2.81.438-4.83zm2.282 7.2 5.528-1.23-2.457 4.65-3.071-3.42zm-51.339-96.31 5.698-6.44c-4.101-2.57-8.864-7.13-13.504-11.32.46-3.97-.462-7.12-.852-10.58-.727 2.15-.753 4.3-2.676 6.45-5.409-1.79-4.948-4.06-7.422-6.09-.91 3.33 2.596 5.68 3.893 8.52.225 1.18.687 2.42-1.095 3.04l-9.165-.34c3.402 2.88 7.803 2.77 11.72 4.11 3.463 5.14 3.243 10.09 10.392 15.42l1.288-1.55c-4.598-3.97-6.599-9.13-9.246-13.99 3.398 4.48 6.337 9.35 10.969 12.77zm-18.829-23.68c-.521 2.47-2.259 3.86-3.577 5.8l4.177.66c.223-1.38 1.514-1.68 2.028-2.48l-2.628-3.98zm2.242-4.2c1.098 1.16.884 2.76 3.103 4.12l2.92-1.09.334-3.27c-3.344 1.01-4.088.14-6.357.24zm77.884 70.22 1.978 4.48c.037 1.21-.283 1.33.31 4.21 2.878 4.67 9.482 12.94 16.934 17.11.721.48 2.108 1.2 3.703 1.41.951.12-.307-1.22.695-1.61.982-.39 4.225.18 5.071-1 .262-.37.513-.78.751-1.24 1.894-3.55-.087-6.37-1.15-8.41a28.72 28.72 0 0 0-9.8-8.86c-4.93-3.11-10.702-6.22-15.616-7.38-.01-.06-.603-1.73-2.825-3.04-7.164-4.4-12.751-8.86-18.544-13.43-6.318-6.34-3.614-16.27-3.372-16.72 3.223-5.1 3.78-8.96 6.159-13.9 2.324-5.28.587-9.06-2.543-11.72 0 0 1.333-6.16-2.38-7.95-2.271-1.1-3.31 2.28-3.31 2.28l-1.367 5.67c-.896 1.83-5.944 9.66-17.276 9.98-11.684.92-16.424 7.39-18.586 10.41 5.631-4.11 6.988-3.68 10.8-5.06-3.766 1.35-7.78 4.18-11.923 7.79v2.68c-5.145 3.11-8.511 7.41-12.652 11.19l-14.815-4.08c3.748 3.52 6.798 3.55 10.191 5.3l-9.246 6.32 11.68-1.21-2.92 9.73 8.273-9.98 18.249-2.19c1.547-.89 1.381-1.78 1.703-2.67.74-.09 1.687-.57 2.046-.04.85 1.25 4.291 1.13 7.452 1.31-2.2.66-3.816 1.57-8.525 1.16-.815.25-2.063.83-1.46 2.68 4.239 6.59 8.122 13.17 21.899 19.95.581-1.47.036-2.56-.486-3.65 6.053.39 6.243 3.94 6.569 14.84.105 1.39.48 4.61 4.137 5.84.587.28 19.522 3.72 18.241 24.89-2.063.07-7.346-.15-12.379-1.53 3.085 3.43 6.457 3.13 9.711 4.38l.243 1.46-12.41 4.62 14.6-2.43-4.623 6.57.243 1.95c7.924-4.03 6.813-6.82 10.22-10.22 1.297-.02 2.595.24 3.893-1.22.486-3 .699-8.92.964-9.22.733-5.09 1.466-6.75 2.199-10-5.616-2.76-7.99-7.47-11.985-11.2 1.591-5.79 1.817-14.39 1.765-14.35l-.486-3.9zm-42.247-62.85c-2.671-1.48-.411-7.09-.298-9.25-2.635 1.95-4.584 4.61-5.534 8.69-1.853.58-1.522-2.31-1.696-3.75l1.741-.7c.068-1.06-.847-.47-1.082-.73-.954-1.09-.025-2.49.444-2.92 4.129-3.39 11.301-2.01 16.208-2.17v1.58c2.012-2.41 6.52-3.23 9.871-3.66-.987 2.83 1.066 7.18-3.94 8.01 3.454 10.59-8.507 13.84-12.256 15.22-4.119.44-3.615-1.64-3.756-3.36-1.701.41-3.472.72-5.732.39-.236-.41-.498-.8 0-1.58 2.179-.66 5.613-.6 6.523-1.98 1.087-1.85-.075-2.44-.493-3.79zm-1.315 3.34c-1.074-5.14-.697-6.89-.832-10.15-.12-.29-2.972 6.26-2.499 10.01.099.78 2.594 1.08 3.331.14zm-13.412-3.1c-.679.99-1.422 1.98-1.186 3.16.897 2.87 6.237.35 9.883-.2l.127-.8c-4.909 1.81-7.738 2.14-8.824-2.16zm-29.651 39.13c.513 1.69.233 3.25-.395 4.75 3.293-.92 4.699-2.07 4.941-3.36-1.3-.64-2.182-1.63-4.546-1.39zm-.321 8.27c3.928 2.25 4.872 4.5 6.448 6.76.266-2.22 1.756-4.99 1.572-7.26l-8.02.5z" />
        <path fill="#000"
          d="M707.161 1179.9c3.456-.64 6.753-.8 10.38-1.96 3.799.18 5.446-.04 6.619-.61l4.744-3.75-3.446 4.99-10.081.6c-4.955 1.86-5.668.64-9.402.93l1.186-.2zm40.832-21.53c3.732 2.67 4.185 3.42 4.39 9.47 1.649-2.17-.397-6.11 1.038-7.94 5.468-6.99 5.496-15 4.102-20.92 1.586 7.96-3.081 26.01-9.53 19.39zm-7.11-29.27c-.775 1.53.962 2.6 2.925 2.85 2.794-.1 4.037-2.98 3.389-3.35-2.028-.4-5.445-.86-6.314.5z" />
        <path fill="#fff"
          d="M741.651 1129.89c-.092.57.461 1.25 1.983 1.23 1.607.18 2.851-.79 2.863-1.43.015-1.33-4.781-1.15-4.846.2z" />
        <path fill="#000"
          d="M752.139 1132.24c.046-.23-.967-3.28-1.762-3.01.637.5 6.521-3.07 6.044-3.08-1.404 1.99-4.049 2.76-4.282 6.09z" />
      </g>
      <path fill="#f9d100" stroke-width="2"
        d="M744.345 1129.72a.48.48 0 0 1-.043.2.574.574 0 0 1-.125.17.46.46 0 0 1-.187.11c-.07.03-.145.04-.221.04s-.15-.01-.22-.04a.46.46 0 0 1-.187-.11.574.574 0 0 1-.125-.17.5.5 0 0 1-.044-.2c0-.07.015-.14.044-.2a.507.507 0 0 1 .125-.18c.053-.04.117-.08.187-.11s.145-.04.22-.04.151.01.221.04.134.07.187.11c.054.05.096.11.125.18a.45.45 0 0 1 .043.2z" />
      <g stroke-width="3">
        <path d="M791.581 1203.49c7.07 8-1.059 9.67-5.775 4.21m9.776 4.49c6.123 7.51-.966 10.34-6.017 5.32" />
        <path d="M800.267 1207.21c7.07 8-1.249 9.02-6.578 3.33m11.51 3.09c6.457 7.34-2.316 11.78-7.311 5.03" />
        <path
          d="M801.674 1221.55c6.346 7.06-.581 7.7-5.632 2.68m13.314-8.91c4.843 5.89-1.245 13.27-5.627 9.03m5.724-9.11c-1.738-.02-4.523-1.31-6.504-3.28m-16.1-8.49c1.608 3.41-.844 4.69-3.926 3.89m8.714-6.16c.991 3.82-4.475 3.63-8.38-.25m17.85 5.63c-.888 1.95-5.2 1.52-8.398-1.66m-3.498 5.62c2.594 3.65 1.553 5.6-.638 5.76" />
      </g>
      <path fill="#000" fill-rule="evenodd" d="m782.526 1224.93 6.941 5.18-5.647 16.94 2.706-15.88-4-6.24z" />
    </g>
    <mask id="b" width="441" height="523" x="517.302" y="250.539" fill="#000" maskUnits="userSpaceOnUse">
      <path fill="#fff" d="M517.302 250.539h441v523h-441z" />
      <path
        d="M751.392 276.107a2 2 0 0 1-2.191-2.131l.5-7.104.514-7.19a2 2 0 0 0-1.995-2.143h-22.716a2 2 0 0 0-1.976 2.309l.306 1.958 1.067 9.066.203 2.373a2 2 0 0 1-2.102 2.168l-7.434-.407-7.587-.312a2 2 0 0 0-2.081 2.059l.673 22.095a2 2 0 0 0 2.084 1.938l7.311-.314 7.085-.405a2 2 0 0 1 2.11 2.119l-.262 4.286c-.8 8.934-1.733 9.734-10.933 9.067-4.267-.4-9.334-.133-11.334.667-3.2 1.2-3.6 1.866-2.8 5.333.298 1.782.462 2.77.047 3.318-.518.682-1.934.682-5.113.682-6.934 0-9.467 2.4-8.267 8l.322 1.608a2 2 0 0 1-1.962 2.392h-5.56c-9.2 0-13.333 2.8-13.333 9.067 0 6 4.266 8.8 14.4 9.6 8.533.666 8.8.8 10.4 5.333 1.066 3.2 1.733 13.733 1.733 32.667.133 27.866.133 28-2.8 29.333-1.733.8-3.067 2.267-3.067 3.333s1.334 2.534 3.067 3.334c2.4 1.066 2.933 2.4 2.933 7.466 0 5.2-.533 6.534-3.466 8.534-2.934 1.866-3.334 2.933-2.8 6.533.666 3.867.266 4.4-3.467 5.6-3.333.933-4.4 2-4.667 4.933-.666 5.467 2.934 8.934 9.2 8.934h2.891a2 2 0 0 1 2 2.041l-.491 23.559c-1.733 72.933-6.133 145.733-10.533 175.066-.139 1.109-.565 4.057-1.112 7.83l-1.688 11.77c-2.133 14.934-2.4 15.734-5.333 15.734-8.267 0-16.134 6-17.334 13.333-.666 4.4-1.333 5.067-6.533 6.4-14.8 4-20.667 18.133-12.4 30 .869 1.233 1.523 2.269 2.352 3.141 4.636 4.88 14.713 4.592 98.315 4.592 83.376 0 94.663.276 99.758-5.204 1.041-1.12 1.823-2.479 2.908-4.129 7.2-10.667.667-24.8-13.066-28.267-5.734-1.466-6.534-2.133-6.534-5.333 0-7.2-9.333-14.533-18.533-14.533-3.733 0-4-.267-5.333-9.067-7.067-43.467-11.867-109.733-14.134-196.667l-.745-28.213a2 2 0 0 1 1.999-2.053h3.146c5.734 0 9.6-3.067 9.6-7.734 0-3.466-3.333-6.933-6.666-6.933-2.134 0-2.4-.667-1.867-3.867.667-3.2.133-4.666-2.667-7.2-4.8-4.4-5.066-14.266-.4-16.266 1.6-.8 2.934-2.267 2.934-3.334s-1.334-2.533-2.934-3.333c-3.066-1.333-3.066-1.6-3.066-29.467 0-22.133.4-29.2 2-33.066 2-4.8 2.133-4.8 9.866-4.8 9.467 0 14.8-3.334 14.8-9.467 0-6.533-4-9.2-13.866-9.2h-5.636a2 2 0 0 1-1.87-2.709l.439-1.158c2-5.466-.4-8.133-7.6-8.133-5.467 0-5.6-.133-5.067-3.867.667-5.2-1.866-6.4-14.266-6.533-4.649-.116-8.69-.232-9.827-.437-.212-.038-.345-.198-.39-.408-.202-.953-.623-3.861-.85-7.155l-.452-4.886a2 2 0 0 1 2.105-2.181l7.014.4 7.403.313a2 2 0 0 0 2.084-1.978l.113-11.135v-10.89a2 2 0 0 0-2.169-1.993l-7.298.617-7.109.701zM604.634 382.206c.934-1.067 1.334-2.934.8-4-.533-1.467-2.8-2-8.133-2-7.867 0-10.533 2.133-7.333 6 1.333 1.6.533 3.066-3.734 8.266-10.933 12.934-18.4 33.467-17.2 47.2.667 8 3.334 13.334 8.8 18.134 1.935 1.637 2.79 2.36 2.658 2.703-.105.272-.828.304-2.124.363-2.134 0-3.067.8-3.067 2.667 0 1.733.933 2.667 2.667 2.667 1.466 0 2.666.933 2.666 2s-1.2 2-2.666 2c-1.734 0-2.667.933-2.667 2.666 0 1.867-.933 2.667-3.2 2.667-1.733 0-3.867.933-4.8 2-2.667 3.2.667 6 7.067 6h3.258a2 2 0 0 1 1.998 2.074l-.723 19.526c-1.467 35.467-2.267 42.667-5.2 43.467-2.933.666-3.067 3.6-.4 8.666 1.6 3.2 1.6 6-.8 24.134-1.467 11.333-4.267 29.2-6.4 39.733l-3.316 17.565a2.003 2.003 0 0 1-1.807 1.623l-6.877.545c-6.667.534-8.933 1.334-10.933 3.867-1.334 1.733-2.534 4.133-2.534 5.467 0 1.466-1.333 2.666-3.466 3.2-12.8 3.2-16 16.266-5.867 23.6 3.067 2.266 7.467 2.533 61.333 2.533h63.067c3.867 0 6.133-.933 9.067-3.867 7.6-7.6 3.866-19.733-6.8-22.133-2.667-.533-4-1.733-4-3.333 0-1.334-1.2-3.734-2.534-5.467-2-2.533-4.266-3.333-10.933-3.867l-7.012-.547a2 2 0 0 1-1.808-1.619l-2.647-13.834c-2.533-12.933-4.533-26.133-8.933-59.733-.4-2.8.267-6.133 2-9.067 1.853-3.319 2.633-4.717 2.236-5.564-.288-.616-1.198-.941-2.769-1.502-3.467-1.334-3.867-4-5.867-46.4l-.718-16.986a2 2 0 0 1 1.862-2.08l3.923-.268c5.2-.4 5.866-.8 5.866-3.733 0-2.667-.8-3.467-3.466-3.733-2.267-.267-3.867-1.467-4.267-3.067-.4-1.333-1.6-2.533-2.8-2.533-3.067 0-2.667-3.6.533-4.4 3.6-.934 3.467-4.934-.133-4.934-2.533 0-2.4-.533 1.867-5.2 4.933-5.466 7.6-12.4 7.6-19.466 0-8.934-9.867-36.667-13.067-36.667-.667 0-2.8 8-4.8 17.6-3.733 17.867-5.067 21.333-7.467 18.933-.8-.8.534-8.933 3.467-22.266l4.563-20.151a2 2 0 0 0-.507-1.826l-2.323-2.423c-2.4-2.534-2.666-3.467-1.2-5.2zm241.96 44.666a2 2 0 0 1-1.992-1.819l-.234-2.581c-.4-4-.667-4.266-6.134-4.533l-3.63-.169a2 2 0 0 0-2.093 2.008l.123 25.094c.134 17.6-.266 28.134-1.333 29.867-2 3.867.267 7.6 5.467 8.667 3.466.666 3.866 1.2 2.666 2.666-2.533 3.067.4 7.2 5.467 7.734 1.815.17 2.858.268 3.437.837.781.769.716 2.399.563 6.229-.667 13.334-5.867 62.134-9.733 92.667l-4.8 37.867c-.667 5.733-1.2 6.666-5.2 8.266-3.067 1.2-4.8 3.2-5.867 6.4-1.067 3.467-2.4 4.8-5.333 5.467-4.8 1.067-10.667 7.733-10.667 12 0 4.933 2.267 9.733 5.733 12 3.334 2.133 11.867 2.267 99.6 2.133l29.222-.13a2 2 0 0 0 1.35-.532l3.028-2.804c5.2-4.8 6-9.467 2.934-15.2-1.867-3.467-4.134-5.334-8-6.667-4.267-1.467-5.734-2.8-6.667-6-.8-2.667-2.667-4.8-5.333-6.133l-3.282-1.539a1.995 1.995 0 0 1-1.132-1.539l-3.32-24.256c-6.8-50.266-13.466-115.866-12-118.266.4-.534 2.134-1.067 3.867-1.067 2.933 0 7.333-3.067 7.333-5.2 0-.533-.666-1.6-1.6-2.533-.792-.792-1.2-1.392-1.061-1.637.054-.095.184-.105.292-.123 6.544-1.073 9.036-3.074 9.036-7.174 0-1.495-.349-2.99-.721-3.615-.049-.081-.107-.149-.132-.241-.393-1.386-.88-13.468-.88-27.744l-.249-25.222a2 2 0 0 0-1.857-1.976l-3.761-.268c-5.467-.4-5.6-.267-6 4l-.241 2.647a2 2 0 0 1-1.918 1.817l-18.214.666a2 2 0 0 1-2.065-1.817l-.471-5.177a2 2 0 0 0-1.899-1.817l-6.925-.319c-12.267-.534-14.667.266-14.667 5.066v2a2 2 0 0 1-2 2h-18.707z" />
    </mask>
    <path fill="#f9d100"
      d="M751.392 276.107a2 2 0 0 1-2.191-2.131l.5-7.104.514-7.19a2 2 0 0 0-1.995-2.143h-22.716a2 2 0 0 0-1.976 2.309l.306 1.958 1.067 9.066.203 2.373a2 2 0 0 1-2.102 2.168l-7.434-.407-7.587-.312a2 2 0 0 0-2.081 2.059l.673 22.095a2 2 0 0 0 2.084 1.938l7.311-.314 7.085-.405a2 2 0 0 1 2.11 2.119l-.262 4.286c-.8 8.934-1.733 9.734-10.933 9.067-4.267-.4-9.334-.133-11.334.667-3.2 1.2-3.6 1.866-2.8 5.333.298 1.782.462 2.77.047 3.318-.518.682-1.934.682-5.113.682-6.934 0-9.467 2.4-8.267 8l.322 1.608a2 2 0 0 1-1.962 2.392h-5.56c-9.2 0-13.333 2.8-13.333 9.067 0 6 4.266 8.8 14.4 9.6 8.533.666 8.8.8 10.4 5.333 1.066 3.2 1.733 13.733 1.733 32.667.133 27.866.133 28-2.8 29.333-1.733.8-3.067 2.267-3.067 3.333s1.334 2.534 3.067 3.334c2.4 1.066 2.933 2.4 2.933 7.466 0 5.2-.533 6.534-3.466 8.534-2.934 1.866-3.334 2.933-2.8 6.533.666 3.867.266 4.4-3.467 5.6-3.333.933-4.4 2-4.667 4.933-.666 5.467 2.934 8.934 9.2 8.934h2.891a2 2 0 0 1 2 2.041l-.491 23.559c-1.733 72.933-6.133 145.733-10.533 175.066-.139 1.109-.565 4.057-1.112 7.83l-1.688 11.77c-2.133 14.934-2.4 15.734-5.333 15.734-8.267 0-16.134 6-17.334 13.333-.666 4.4-1.333 5.067-6.533 6.4-14.8 4-20.667 18.133-12.4 30 .869 1.233 1.523 2.269 2.352 3.141 4.636 4.88 14.713 4.592 98.315 4.592 83.376 0 94.663.276 99.758-5.204 1.041-1.12 1.823-2.479 2.908-4.129 7.2-10.667.667-24.8-13.066-28.267-5.734-1.466-6.534-2.133-6.534-5.333 0-7.2-9.333-14.533-18.533-14.533-3.733 0-4-.267-5.333-9.067-7.067-43.467-11.867-109.733-14.134-196.667l-.745-28.213a2 2 0 0 1 1.999-2.053h3.146c5.734 0 9.6-3.067 9.6-7.734 0-3.466-3.333-6.933-6.666-6.933-2.134 0-2.4-.667-1.867-3.867.667-3.2.133-4.666-2.667-7.2-4.8-4.4-5.066-14.266-.4-16.266 1.6-.8 2.934-2.267 2.934-3.334s-1.334-2.533-2.934-3.333c-3.066-1.333-3.066-1.6-3.066-29.467 0-22.133.4-29.2 2-33.066 2-4.8 2.133-4.8 9.866-4.8 9.467 0 14.8-3.334 14.8-9.467 0-6.533-4-9.2-13.866-9.2h-5.636a2 2 0 0 1-1.87-2.709l.439-1.158c2-5.466-.4-8.133-7.6-8.133-5.467 0-5.6-.133-5.067-3.867.667-5.2-1.866-6.4-14.266-6.533-4.649-.116-8.69-.232-9.827-.437-.212-.038-.345-.198-.39-.408-.202-.953-.623-3.861-.85-7.155l-.452-4.886a2 2 0 0 1 2.105-2.181l7.014.4 7.403.313a2 2 0 0 0 2.084-1.978l.113-11.135v-10.89a2 2 0 0 0-2.169-1.993l-7.298.617-7.109.701zM604.634 382.206c.934-1.067 1.334-2.934.8-4-.533-1.467-2.8-2-8.133-2-7.867 0-10.533 2.133-7.333 6 1.333 1.6.533 3.066-3.734 8.266-10.933 12.934-18.4 33.467-17.2 47.2.667 8 3.334 13.334 8.8 18.134 1.935 1.637 2.79 2.36 2.658 2.703-.105.272-.828.304-2.124.363-2.134 0-3.067.8-3.067 2.667 0 1.733.933 2.667 2.667 2.667 1.466 0 2.666.933 2.666 2s-1.2 2-2.666 2c-1.734 0-2.667.933-2.667 2.666 0 1.867-.933 2.667-3.2 2.667-1.733 0-3.867.933-4.8 2-2.667 3.2.667 6 7.067 6h3.258a2 2 0 0 1 1.998 2.074l-.723 19.526c-1.467 35.467-2.267 42.667-5.2 43.467-2.933.666-3.067 3.6-.4 8.666 1.6 3.2 1.6 6-.8 24.134-1.467 11.333-4.267 29.2-6.4 39.733l-3.316 17.565a2.003 2.003 0 0 1-1.807 1.623l-6.877.545c-6.667.534-8.933 1.334-10.933 3.867-1.334 1.733-2.534 4.133-2.534 5.467 0 1.466-1.333 2.666-3.466 3.2-12.8 3.2-16 16.266-5.867 23.6 3.067 2.266 7.467 2.533 61.333 2.533h63.067c3.867 0 6.133-.933 9.067-3.867 7.6-7.6 3.866-19.733-6.8-22.133-2.667-.533-4-1.733-4-3.333 0-1.334-1.2-3.734-2.534-5.467-2-2.533-4.266-3.333-10.933-3.867l-7.012-.547a2 2 0 0 1-1.808-1.619l-2.647-13.834c-2.533-12.933-4.533-26.133-8.933-59.733-.4-2.8.267-6.133 2-9.067 1.853-3.319 2.633-4.717 2.236-5.564-.288-.616-1.198-.941-2.769-1.502-3.467-1.334-3.867-4-5.867-46.4l-.718-16.986a2 2 0 0 1 1.862-2.08l3.923-.268c5.2-.4 5.866-.8 5.866-3.733 0-2.667-.8-3.467-3.466-3.733-2.267-.267-3.867-1.467-4.267-3.067-.4-1.333-1.6-2.533-2.8-2.533-3.067 0-2.667-3.6.533-4.4 3.6-.934 3.467-4.934-.133-4.934-2.533 0-2.4-.533 1.867-5.2 4.933-5.466 7.6-12.4 7.6-19.466 0-8.934-9.867-36.667-13.067-36.667-.667 0-2.8 8-4.8 17.6-3.733 17.867-5.067 21.333-7.467 18.933-.8-.8.534-8.933 3.467-22.266l4.563-20.151a2 2 0 0 0-.507-1.826l-2.323-2.423c-2.4-2.534-2.666-3.467-1.2-5.2zm241.96 44.666a2 2 0 0 1-1.992-1.819l-.234-2.581c-.4-4-.667-4.266-6.134-4.533l-3.63-.169a2 2 0 0 0-2.093 2.008l.123 25.094c.134 17.6-.266 28.134-1.333 29.867-2 3.867.267 7.6 5.467 8.667 3.466.666 3.866 1.2 2.666 2.666-2.533 3.067.4 7.2 5.467 7.734 1.815.17 2.858.268 3.437.837.781.769.716 2.399.563 6.229-.667 13.334-5.867 62.134-9.733 92.667l-4.8 37.867c-.667 5.733-1.2 6.666-5.2 8.266-3.067 1.2-4.8 3.2-5.867 6.4-1.067 3.467-2.4 4.8-5.333 5.467-4.8 1.067-10.667 7.733-10.667 12 0 4.933 2.267 9.733 5.733 12 3.334 2.133 11.867 2.267 99.6 2.133l29.222-.13a2 2 0 0 0 1.35-.532l3.028-2.804c5.2-4.8 6-9.467 2.934-15.2-1.867-3.467-4.134-5.334-8-6.667-4.267-1.467-5.734-2.8-6.667-6-.8-2.667-2.667-4.8-5.333-6.133l-3.282-1.539a1.995 1.995 0 0 1-1.132-1.539l-3.32-24.256c-6.8-50.266-13.466-115.866-12-118.266.4-.534 2.134-1.067 3.867-1.067 2.933 0 7.333-3.067 7.333-5.2 0-.533-.666-1.6-1.6-2.533-.792-.792-1.2-1.392-1.061-1.637.054-.095.184-.105.292-.123 6.544-1.073 9.036-3.074 9.036-7.174 0-1.495-.349-2.99-.721-3.615-.049-.081-.107-.149-.132-.241-.393-1.386-.88-13.468-.88-27.744l-.249-25.222a2 2 0 0 0-1.857-1.976l-3.761-.268c-5.467-.4-5.6-.267-6 4l-.241 2.647a2 2 0 0 1-1.918 1.817l-18.214.666a2 2 0 0 1-2.065-1.817l-.471-5.177a2 2 0 0 0-1.899-1.817l-6.925-.319c-12.267-.534-14.667.266-14.667 5.066v2a2 2 0 0 1-2 2h-18.707z" />
    <path stroke="#d8201f" stroke-width="14"
      d="M751.392 276.107a2 2 0 0 1-2.191-2.131l.5-7.104.514-7.19a2 2 0 0 0-1.995-2.143h-22.716a2 2 0 0 0-1.976 2.309l.306 1.958 1.067 9.066.203 2.373a2 2 0 0 1-2.102 2.168l-7.434-.407-7.587-.312a2 2 0 0 0-2.081 2.059l.673 22.095a2 2 0 0 0 2.084 1.938l7.311-.314 7.085-.405a2 2 0 0 1 2.11 2.119l-.262 4.286c-.8 8.934-1.733 9.734-10.933 9.067-4.267-.4-9.334-.133-11.334.667-3.2 1.2-3.6 1.866-2.8 5.333.298 1.782.462 2.77.047 3.318-.518.682-1.934.682-5.113.682-6.934 0-9.467 2.4-8.267 8l.322 1.608a2 2 0 0 1-1.962 2.392h-5.56c-9.2 0-13.333 2.8-13.333 9.067 0 6 4.266 8.8 14.4 9.6 8.533.666 8.8.8 10.4 5.333 1.066 3.2 1.733 13.733 1.733 32.667.133 27.866.133 28-2.8 29.333-1.733.8-3.067 2.267-3.067 3.333s1.334 2.534 3.067 3.334c2.4 1.066 2.933 2.4 2.933 7.466 0 5.2-.533 6.534-3.466 8.534-2.934 1.866-3.334 2.933-2.8 6.533.666 3.867.266 4.4-3.467 5.6-3.333.933-4.4 2-4.667 4.933-.666 5.467 2.934 8.934 9.2 8.934h2.891a2 2 0 0 1 2 2.041l-.491 23.559c-1.733 72.933-6.133 145.733-10.533 175.066-.139 1.109-.565 4.057-1.112 7.83l-1.688 11.77c-2.133 14.934-2.4 15.734-5.333 15.734-8.267 0-16.134 6-17.334 13.333-.666 4.4-1.333 5.067-6.533 6.4-14.8 4-20.667 18.133-12.4 30 .869 1.233 1.523 2.269 2.352 3.141 4.636 4.88 14.713 4.592 98.315 4.592 83.376 0 94.663.276 99.758-5.204 1.041-1.12 1.823-2.479 2.908-4.129 7.2-10.667.667-24.8-13.066-28.267-5.734-1.466-6.534-2.133-6.534-5.333 0-7.2-9.333-14.533-18.533-14.533-3.733 0-4-.267-5.333-9.067-7.067-43.467-11.867-109.733-14.134-196.667l-.745-28.213a2 2 0 0 1 1.999-2.053h3.146c5.734 0 9.6-3.067 9.6-7.734 0-3.466-3.333-6.933-6.666-6.933-2.134 0-2.4-.667-1.867-3.867.667-3.2.133-4.666-2.667-7.2-4.8-4.4-5.066-14.266-.4-16.266 1.6-.8 2.934-2.267 2.934-3.334s-1.334-2.533-2.934-3.333c-3.066-1.333-3.066-1.6-3.066-29.467 0-22.133.4-29.2 2-33.066 2-4.8 2.133-4.8 9.866-4.8 9.467 0 14.8-3.334 14.8-9.467 0-6.533-4-9.2-13.866-9.2h-5.636a2 2 0 0 1-1.87-2.709l.439-1.158c2-5.466-.4-8.133-7.6-8.133-5.467 0-5.6-.133-5.067-3.867.667-5.2-1.866-6.4-14.266-6.533-4.649-.116-8.69-.232-9.827-.437-.212-.038-.345-.198-.39-.408-.202-.953-.623-3.861-.85-7.155l-.452-4.886a2 2 0 0 1 2.105-2.181l7.014.4 7.403.313a2 2 0 0 0 2.084-1.978l.113-11.135v-10.89a2 2 0 0 0-2.169-1.993l-7.298.617-7.109.701zM604.634 382.206c.934-1.067 1.334-2.934.8-4-.533-1.467-2.8-2-8.133-2-7.867 0-10.533 2.133-7.333 6 1.333 1.6.533 3.066-3.734 8.266-10.933 12.934-18.4 33.467-17.2 47.2.667 8 3.334 13.334 8.8 18.134 1.935 1.637 2.79 2.36 2.658 2.703-.105.272-.828.304-2.124.363-2.134 0-3.067.8-3.067 2.667 0 1.733.933 2.667 2.667 2.667 1.466 0 2.666.933 2.666 2s-1.2 2-2.666 2c-1.734 0-2.667.933-2.667 2.666 0 1.867-.933 2.667-3.2 2.667-1.733 0-3.867.933-4.8 2-2.667 3.2.667 6 7.067 6h3.258a2 2 0 0 1 1.998 2.074l-.723 19.526c-1.467 35.467-2.267 42.667-5.2 43.467-2.933.666-3.067 3.6-.4 8.666 1.6 3.2 1.6 6-.8 24.134-1.467 11.333-4.267 29.2-6.4 39.733l-3.316 17.565a2.003 2.003 0 0 1-1.807 1.623l-6.877.545c-6.667.534-8.933 1.334-10.933 3.867-1.334 1.733-2.534 4.133-2.534 5.467 0 1.466-1.333 2.666-3.466 3.2-12.8 3.2-16 16.266-5.867 23.6 3.067 2.266 7.467 2.533 61.333 2.533h63.067c3.867 0 6.133-.933 9.067-3.867 7.6-7.6 3.866-19.733-6.8-22.133-2.667-.533-4-1.733-4-3.333 0-1.334-1.2-3.734-2.534-5.467-2-2.533-4.266-3.333-10.933-3.867l-7.012-.547a2 2 0 0 1-1.808-1.619l-2.647-13.834c-2.533-12.933-4.533-26.133-8.933-59.733-.4-2.8.267-6.133 2-9.067 1.853-3.319 2.633-4.717 2.236-5.564-.288-.616-1.198-.941-2.769-1.502-3.467-1.334-3.867-4-5.867-46.4l-.718-16.986a2 2 0 0 1 1.862-2.08l3.923-.268c5.2-.4 5.866-.8 5.866-3.733 0-2.667-.8-3.467-3.466-3.733-2.267-.267-3.867-1.467-4.267-3.067-.4-1.333-1.6-2.533-2.8-2.533-3.067 0-2.667-3.6.533-4.4 3.6-.934 3.467-4.934-.133-4.934-2.533 0-2.4-.533 1.867-5.2 4.933-5.466 7.6-12.4 7.6-19.466 0-8.934-9.867-36.667-13.067-36.667-.667 0-2.8 8-4.8 17.6-3.733 17.867-5.067 21.333-7.467 18.933-.8-.8.534-8.933 3.467-22.266l4.563-20.151a2 2 0 0 0-.507-1.826l-2.323-2.423c-2.4-2.534-2.666-3.467-1.2-5.2zm241.96 44.666a2 2 0 0 1-1.992-1.819l-.234-2.581c-.4-4-.667-4.266-6.134-4.533l-3.63-.169a2 2 0 0 0-2.093 2.008l.123 25.094c.134 17.6-.266 28.134-1.333 29.867-2 3.867.267 7.6 5.467 8.667 3.466.666 3.866 1.2 2.666 2.666-2.533 3.067.4 7.2 5.467 7.734 1.815.17 2.858.268 3.437.837.781.769.716 2.399.563 6.229-.667 13.334-5.867 62.134-9.733 92.667l-4.8 37.867c-.667 5.733-1.2 6.666-5.2 8.266-3.067 1.2-4.8 3.2-5.867 6.4-1.067 3.467-2.4 4.8-5.333 5.467-4.8 1.067-10.667 7.733-10.667 12 0 4.933 2.267 9.733 5.733 12 3.334 2.133 11.867 2.267 99.6 2.133l29.222-.13a2 2 0 0 0 1.35-.532l3.028-2.804c5.2-4.8 6-9.467 2.934-15.2-1.867-3.467-4.134-5.334-8-6.667-4.267-1.467-5.734-2.8-6.667-6-.8-2.667-2.667-4.8-5.333-6.133l-3.282-1.539a1.995 1.995 0 0 1-1.132-1.539l-3.32-24.256c-6.8-50.266-13.466-115.866-12-118.266.4-.534 2.134-1.067 3.867-1.067 2.933 0 7.333-3.067 7.333-5.2 0-.533-.666-1.6-1.6-2.533-.792-.792-1.2-1.392-1.061-1.637.054-.095.184-.105.292-.123 6.544-1.073 9.036-3.074 9.036-7.174 0-1.495-.349-2.99-.721-3.615-.049-.081-.107-.149-.132-.241-.393-1.386-.88-13.468-.88-27.744l-.249-25.222a2 2 0 0 0-1.857-1.976l-3.761-.268c-5.467-.4-5.6-.267-6 4l-.241 2.647a2 2 0 0 1-1.918 1.817l-18.214.666a2 2 0 0 1-2.065-1.817l-.471-5.177a2 2 0 0 0-1.899-1.817l-6.925-.319c-12.267-.534-14.667.266-14.667 5.066v2a2 2 0 0 1-2 2h-18.707z"
      mask="url(#b)" />
  </g>
  <defs>
    <clipPath id="a">
      <path fill="#fff" d="M32 35h1410v1238H32z" />
    </clipPath>
  </defs>
</svg>
