<?xml version="1.0" standalone="no"?>
<!DOCTYPE svg PUBLIC "-//W3C//DTD SVG 20010904//EN"
 "http://www.w3.org/TR/2001/REC-SVG-20010904/DTD/svg10.dtd">
<svg version="1.0" xmlns="http://www.w3.org/2000/svg"
 width="700.000000pt" height="700.000000pt" viewBox="0 0 700.000000 700.000000"
 preserveAspectRatio="xMidYMid meet">
<metadata>
Created by potrace 1.14, written by Peter Selinger 2001-2017
</metadata>
<g transform="translate(0.000000,700.000000) scale(0.100000,-0.100000)"
fill="#000000" stroke="none">
<path d="M3150 6819 c-735 -84 -1383 -379 -1925 -877 -328 -301 -599 -678
-786 -1092 -250 -555 -341 -1204 -257 -1832 l12 -88 362 0 c200 0 365 4 368 8
2 4 -5 66 -17 137 -19 113 -21 168 -21 420 1 269 3 301 27 436 261 1439 1602
2382 3039 2138 538 -92 1042 -358 1428 -755 138 -143 215 -237 317 -391 217
-330 360 -717 408 -1109 29 -235 18 -595 -25 -823 -5 -30 -10 -55 -10 -57 0
-2 166 -4 369 -4 l369 0 11 73 c6 39 16 161 22 270 36 623 -74 1174 -341 1707
-169 337 -368 611 -637 878 -183 180 -317 290 -508 417 -465 308 -977 491
-1524 545 -121 12 -573 11 -681 -1z m140 -166 c-1 -5 -20 -87 -43 -183 -31
-129 -47 -176 -58 -178 -14 -2 -9 26 26 171 23 95 45 178 49 185 8 13 26 16
26 5z m517 -27 c47 -15 42 -96 -7 -116 l-30 -12 33 -22 c26 -18 33 -29 35 -63
3 -35 -1 -44 -28 -67 -29 -24 -39 -26 -122 -26 -82 0 -89 2 -83 18 7 18 24
189 25 255 0 26 -4 37 -15 37 -8 0 -15 3 -15 8 0 8 174 -1 207 -12z m619 -113
c-3 -10 -22 -79 -42 -153 -29 -108 -34 -138 -24 -153 10 -16 9 -18 -9 -13 -12
3 -30 9 -41 12 -11 3 -20 12 -20 21 0 11 -5 13 -17 8 -42 -18 -61 -16 -88 8
-53 45 -32 149 35 177 31 13 92 16 109 5 15 -9 34 44 27 78 -5 26 -4 27 35 27
34 0 39 -3 35 -17z m-371 -25 c33 -15 40 -46 26 -119 -7 -33 -9 -69 -6 -79 5
-16 2 -20 -19 -20 -13 0 -31 7 -40 15 -12 12 -20 13 -40 4 -52 -24 -98 38 -63
85 8 11 33 20 67 24 60 8 74 26 44 57 -13 12 -27 16 -53 12 l-36 -6 24 19 c26
23 58 25 96 8z m-1231 -44 c9 -4 25 -37 37 -78 12 -39 28 -79 36 -88 14 -15
12 -18 -18 -26 -19 -5 -35 -8 -37 -7 -1 1 -11 33 -22 71 -24 85 -40 102 -75
86 -16 -8 -25 -20 -25 -35 0 -35 29 -127 40 -127 6 0 10 -4 10 -9 0 -5 -20
-14 -44 -20 -58 -14 -61 -14 -46 4 18 22 -16 156 -41 162 -28 8 -23 17 16 36
43 21 45 21 45 2 0 -21 5 -19 34 10 24 24 58 31 90 19z m-293 -93 c13 -10 33
-45 45 -77 13 -36 30 -63 43 -70 21 -11 21 -12 -16 -27 -21 -8 -41 -13 -45
-11 -3 2 -12 21 -18 42 -20 61 -41 100 -56 106 -25 10 -54 -12 -54 -40 0 -36
40 -124 56 -124 8 0 14 -4 14 -8 0 -11 -99 -46 -107 -38 -3 3 1 8 10 12 14 5
13 13 -8 72 -13 37 -33 75 -45 84 -20 16 -20 17 10 38 24 17 34 19 44 10 11
-8 17 -6 28 9 12 17 48 38 69 40 4 1 17 -7 30 -18z m2090 -30 c16 -13 23 -29
23 -54 0 -20 -3 -40 -7 -43 -7 -7 -81 7 -119 21 -15 6 -18 1 -18 -28 0 -41 36
-77 77 -77 14 0 21 -4 18 -10 -10 -16 -78 -12 -105 7 -37 25 -49 45 -50 76 0
36 25 96 48 113 26 20 106 17 133 -5z m154 -60 c11 -5 20 -14 20 -22 0 -9 13
-14 38 -15 41 -1 77 -27 77 -55 0 -9 -14 -48 -31 -86 -24 -54 -28 -72 -20 -86
11 -17 9 -17 -26 -2 -20 9 -38 17 -40 19 -2 1 11 35 29 75 35 80 32 103 -15
109 -23 3 -30 -4 -57 -58 -17 -34 -29 -68 -26 -76 7 -19 -1 -17 -53 10 -37 19
-41 24 -24 28 28 7 76 93 77 134 1 35 11 40 51 25z m-2501 -39 c79 -72 50
-195 -50 -209 -23 -3 -51 0 -63 7 -58 30 -81 135 -40 179 47 50 112 60 153 23z
m-224 -113 c0 -4 -9 -9 -20 -12 -11 -3 -23 -12 -26 -21 -8 -22 38 -108 66
-122 21 -12 21 -13 -22 -38 -55 -32 -56 -32 -51 -2 6 32 -50 132 -79 142 -20
6 -20 7 6 32 23 23 29 25 46 14 16 -10 20 -10 20 1 0 7 7 23 16 36 l17 24 13
-24 c7 -13 13 -27 14 -30z m3191 19 c35 -26 40 -33 25 -36 -20 -4 -101 -165
-86 -170 5 -2 51 22 101 52 91 55 109 63 109 49 0 -5 -11 -55 -25 -112 -14
-57 -23 -106 -21 -109 6 -6 71 46 115 92 29 30 32 38 21 51 -21 26 4 17 40
-15 31 -26 33 -29 13 -30 -11 0 -43 -18 -70 -39 -26 -22 -79 -65 -116 -95 -38
-31 -73 -56 -78 -56 -5 0 -9 9 -9 21 0 17 28 142 46 202 9 28 -14 20 -108 -38
-86 -53 -118 -66 -118 -45 0 6 25 72 55 148 30 75 53 143 50 149 -7 21 9 15
56 -19z m-3572 -143 c23 -30 46 -55 50 -55 5 0 12 11 15 25 6 25 51 55 82 55
9 0 31 -15 50 -34 28 -28 34 -41 34 -77 0 -59 -27 -110 -69 -131 -19 -9 -38
-21 -44 -27 -6 -6 -37 29 -91 107 -57 82 -88 118 -104 120 -12 2 -22 6 -22 10
0 5 51 62 56 62 1 0 20 -25 43 -55z m-97 -160 c92 -110 123 -139 137 -130 26
15 8 -15 -21 -37 -54 -40 -61 -43 -54 -21 8 25 -147 214 -183 223 l-24 5 28
33 c15 18 31 30 35 25 3 -4 41 -48 82 -98z m-194 -42 c5 -10 7 -24 5 -30 -6
-18 -42 -16 -49 2 -15 38 26 63 44 28z m4280 -6 c4 -20 -25 -34 -40 -19 -15
15 -1 44 19 40 10 -2 19 -11 21 -21z m-100 -37 l34 -21 -56 -63 c-31 -35 -56
-71 -56 -80 0 -20 36 -39 60 -31 28 9 90 84 83 101 -3 8 -2 14 1 14 11 0 66
-30 66 -36 0 -3 -28 -37 -61 -75 -45 -50 -60 -74 -56 -89 3 -11 2 -20 -2 -20
-14 0 -62 57 -59 71 2 9 -7 15 -24 17 -27 3 -68 43 -68 67 0 6 25 40 55 75 42
49 52 66 44 77 -16 19 1 16 39 -7z m-3975 -152 c20 -3 19 -6 -18 -40 l-40 -38
-7 27 c-9 33 -98 125 -115 118 -18 -6 -16 2 8 41 l20 33 65 -69 c36 -38 75
-70 87 -72z m4147 122 c0 -24 -26 -38 -42 -22 -16 16 -2 42 22 42 13 0 20 -7
20 -20z m-4355 -132 c34 -15 32 -28 -15 -84 l-40 -48 23 -13 c35 -19 56 -15
89 17 36 36 46 33 28 -11 -15 -35 -63 -69 -98 -69 -64 0 -129 74 -118 134 8
41 51 86 82 86 13 0 35 -5 49 -12z m4430 -88 c3 -5 1 -11 -5 -15 -19 -12 -10
-24 23 -27 35 -3 43 -24 15 -42 -14 -9 -21 -6 -33 12 -22 31 -35 28 -89 -20
-33 -28 -46 -47 -43 -59 5 -17 4 -17 -17 -2 -11 9 -32 30 -45 46 -23 27 -23
29 -4 23 29 -9 133 77 133 111 l0 24 30 -21 c16 -11 32 -25 35 -30z m-4630
-127 c77 -56 105 -72 123 -68 l24 6 -19 -31 c-22 -38 -69 -84 -60 -58 4 11 -8
27 -40 52 -26 20 -52 36 -59 36 -12 0 -94 -99 -94 -113 0 -4 24 -23 53 -42 37
-24 60 -33 72 -29 17 7 17 6 1 -22 -10 -16 -28 -42 -42 -59 l-24 -30 0 26 c0
22 -16 39 -87 92 -105 77 -127 89 -147 81 -23 -9 -20 0 22 58 35 50 37 51 40
26 4 -30 65 -83 87 -74 14 5 72 79 82 104 6 14 -14 32 -60 58 -21 11 -32 12
-48 3 -26 -13 -22 -6 30 64 l36 48 5 -28 c4 -21 28 -44 105 -100z m4798 43
c17 -13 16 -16 -17 -41 -34 -26 -35 -28 -19 -51 18 -28 1 -34 -27 -9 -16 14
-22 11 -70 -34 -47 -44 -52 -52 -40 -66 12 -15 11 -16 -15 -13 -22 2 -32 10
-39 31 -10 26 -6 31 52 83 34 31 60 60 56 65 -3 5 4 9 14 9 11 0 30 9 43 20
28 23 38 24 62 6z m117 -156 c0 -3 -14 -16 -31 -29 -26 -20 -29 -27 -23 -54
l6 -32 -24 22 -24 22 -49 -37 c-39 -30 -50 -44 -50 -65 1 -30 -16 -35 -39 -11
-31 31 -20 60 44 109 37 29 57 51 54 60 -4 9 0 12 13 9 10 -2 31 4 47 15 23
15 34 17 52 9 13 -6 24 -14 24 -18z m-6 -184 c38 -16 76 -60 76 -88 0 -25 -37
-78 -55 -78 -7 0 -23 15 -34 33 -11 18 -30 42 -41 52 -20 18 -21 18 -35 -1
-22 -28 -18 -74 8 -102 l22 -24 -25 4 c-29 4 -70 60 -70 95 0 41 27 80 72 102
51 25 41 24 82 7z m-5159 -210 c-29 -49 -34 -53 -52 -35 -9 9 -5 25 15 65 26
53 27 54 45 35 19 -18 19 -20 -8 -65z m5303 -8 c15 -24 18 -34 9 -40 -8 -5 -1
-16 22 -36 31 -25 34 -32 28 -65 -5 -30 -2 -39 14 -47 10 -6 26 -22 35 -36 26
-39 6 -67 -75 -108 -39 -20 -71 -43 -73 -53 -3 -13 -10 -8 -24 21 -16 33 -17
40 -4 44 47 16 135 70 138 85 5 23 -15 47 -40 47 -27 0 -115 -46 -126 -67 -8
-14 -13 -10 -31 25 -12 23 -21 43 -21 45 0 2 13 4 30 4 37 0 124 52 129 78 2
10 -5 24 -14 31 -14 11 -27 10 -69 -6 -28 -11 -61 -31 -74 -45 l-22 -26 -20
46 c-24 57 -25 53 4 48 29 -6 146 52 146 72 0 25 17 17 38 -17z m-5529 -167
c10 -10 20 -23 22 -30 3 -8 14 -8 41 1 44 13 91 -2 115 -39 21 -31 12 -98 -18
-129 -40 -43 -119 -25 -133 30 -6 23 -9 24 -36 14 -64 -22 -120 33 -105 102
14 64 74 91 114 51z m5815 -217 c9 -20 16 -37 14 -38 -2 -2 -31 -11 -66 -21
-35 -10 -65 -22 -67 -25 -2 -4 7 -18 20 -30 56 -53 15 -140 -65 -140 -73 0
-132 46 -144 113 -4 21 -9 44 -12 51 -3 8 34 23 118 46 143 39 168 48 168 67
0 24 16 13 34 -23z m-5871 -63 c56 -49 113 -98 126 -108 19 -16 22 -23 13 -38
-9 -18 -20 -10 -110 79 -55 53 -102 94 -105 89 -3 -4 -12 -31 -20 -59 -15 -50
-14 -52 6 -74 21 -21 21 -22 2 -17 -11 4 -32 9 -47 13 -33 7 -34 16 -7 108 27
95 27 96 35 96 3 0 52 -40 107 -89z m7 -206 c65 -23 100 -60 100 -105 0 -55
-36 -90 -93 -90 -67 0 -172 36 -196 67 -30 38 -28 97 5 130 23 23 31 25 82 20
32 -4 77 -13 102 -22z m5821 -84 c53 -54 29 -151 -37 -151 -19 0 -24 8 -35 56
-7 31 -19 58 -26 61 -8 3 -25 -5 -39 -18 -26 -24 -28 -48 -9 -104 5 -16 1 -14
-19 8 -21 22 -26 38 -26 77 0 42 4 52 31 74 24 20 41 26 81 26 41 0 54 -5 79
-29z m-5841 -186 c0 -21 5 -25 30 -25 17 0 33 7 39 18 10 16 10 15 11 -3 0
-45 -13 -125 -21 -125 -5 0 -9 11 -9 24 0 16 -7 27 -21 31 -29 9 -40 -5 -46
-59 -3 -25 -7 -46 -10 -46 -9 0 -70 35 -103 58 -87 64 -129 119 -102 135 4 3
47 -1 95 -9 91 -15 107 -13 107 12 0 8 7 14 15 14 9 0 15 -9 15 -25z m5900
-67 c0 -10 -4 -18 -10 -18 -17 0 -11 -25 10 -43 28 -23 25 -34 -10 -39 -28 -4
-30 -2 -30 28 0 40 -14 46 -86 34 -53 -9 -72 -20 -75 -45 -2 -17 -18 68 -18
99 -1 27 0 28 12 12 12 -16 22 -18 81 -11 43 4 74 13 84 24 16 16 18 16 29 -3
7 -12 12 -29 13 -38z m-5850 -308 c0 -11 -2 -20 -5 -20 -2 0 -57 32 -122 70
-86 51 -119 67 -125 58 -4 -7 -8 -37 -8 -66 0 -47 3 -54 25 -62 38 -14 30 -20
-25 -20 l-50 0 0 89 c0 49 3 96 6 105 9 23 304 -126 304 -154z m5623 129 c9
-13 17 -16 22 -10 8 15 48 14 63 -1 9 -9 16 -8 29 4 27 24 58 30 86 17 40 -18
51 -49 44 -130 -7 -78 -13 -93 -28 -66 -6 9 -21 17 -35 17 -33 0 -74 42 -74
77 0 15 -4 34 -9 42 -16 25 -31 0 -31 -54 0 -82 -12 -105 -55 -105 -24 0 -44
9 -67 29 -27 24 -32 36 -36 89 -3 46 0 68 12 87 20 31 59 33 79 4z"/>
<path d="M3697 6614 c-4 -4 -7 -32 -7 -62 l0 -54 33 6 c48 9 73 56 49 93 -10
15 -64 28 -75 17z"/>
<path d="M3687 6473 c-4 -3 -7 -35 -7 -69 0 -53 3 -64 20 -69 63 -20 109 103
50 135 -21 11 -54 13 -63 3z"/>
<path d="M4236 6391 c-22 -24 -31 -83 -17 -110 9 -15 21 -21 46 -21 32 0 35 2
51 55 17 52 17 55 -1 75 -23 25 -57 26 -79 1z"/>
<path d="M3970 6370 c-16 -16 -18 -25 -10 -40 20 -37 70 -12 70 36 0 30 -31
33 -60 4z"/>
<path d="M4530 6310 c-26 -26 -25 -34 5 -48 35 -16 52 -15 59 4 9 24 8 31 -10
48 -20 21 -30 20 -54 -4z"/>
<path d="M2157 6202 c-10 -10 -17 -25 -17 -33 1 -23 53 -111 76 -126 18 -12
24 -11 45 5 22 18 22 22 10 63 -12 40 -68 109 -88 109 -6 0 -17 -8 -26 -18z"/>
<path d="M1746 5928 c-17 -23 -12 -38 31 -95 26 -36 53 -42 77 -17 24 23 19
68 -10 103 -31 38 -75 42 -98 9z"/>
<path d="M1282 5538 c-16 -16 -15 -43 3 -58 12 -10 20 -9 40 4 14 9 25 25 25
35 0 29 -45 42 -68 19z"/>
<path d="M6053 5029 c-15 -15 10 -69 32 -69 15 0 45 26 45 40 0 15 -31 40 -49
40 -9 0 -22 -5 -28 -11z"/>
<path d="M620 4650 c-25 -25 -25 -42 -1 -64 22 -20 50 -15 76 14 23 25 14 45
-25 58 -26 10 -34 8 -50 -8z"/>
<path d="M773 4590 c-44 -26 -45 -63 -3 -85 16 -8 36 -15 45 -15 21 0 55 36
55 60 0 22 -33 60 -52 60 -7 0 -28 -9 -45 -20z"/>
<path d="M6282 4353 c-41 -14 -43 -17 -40 -51 4 -47 37 -61 98 -43 50 15 69
48 52 86 -14 29 -44 32 -110 8z"/>
<path d="M472 4158 c-35 -35 -2 -68 93 -92 104 -28 165 -20 165 20 0 30 -38
50 -128 70 -82 17 -114 18 -130 2z"/>
<path d="M6413 4092 c-13 -8 -6 -57 11 -71 17 -14 56 14 56 39 0 28 -41 48
-67 32z"/>
<path d="M440 3871 c0 -10 114 -91 129 -91 6 0 11 17 11 39 l0 39 -63 11 c-76
13 -77 13 -77 2z"/>
<path d="M6235 3625 c-11 -26 -12 -41 -4 -62 13 -34 26 -43 62 -43 26 0 27 1
27 58 0 63 -11 82 -48 82 -17 0 -27 -9 -37 -35z"/>
<path d="M6450 3637 c-52 -26 -25 -84 34 -71 59 12 73 41 34 68 -27 19 -36 19
-68 3z"/>
<path d="M3409 5789 c-6 -12 -9 -30 -6 -40 4 -16 0 -19 -27 -19 -18 0 -37 -5
-44 -12 -18 -18 -15 -139 4 -166 14 -20 14 -22 -3 -22 -16 0 -26 -8 -93 -72
-15 -16 -35 -28 -43 -28 -8 0 -26 -9 -41 -21 -56 -44 -23 -118 59 -133 l35 -7
0 -129 c0 -75 -4 -131 -10 -135 -13 -8 -13 -41 2 -64 9 -15 8 -26 -5 -53 -9
-20 -23 -41 -32 -48 -8 -7 -15 -29 -15 -49 0 -33 -10 -46 -108 -144 -59 -59
-111 -107 -115 -107 -4 0 -7 32 -7 70 0 39 4 70 9 70 18 0 41 31 41 55 0 13
-10 31 -21 39 -24 16 -23 39 6 115 14 38 14 52 4 95 -15 64 -43 131 -69 163
-11 14 -20 36 -20 49 0 49 -91 73 -130 34 -11 -11 -20 -29 -20 -40 0 -10 -11
-35 -25 -55 -58 -87 -82 -218 -50 -275 21 -36 18 -73 -5 -88 -13 -8 -20 -23
-20 -43 0 -25 6 -33 30 -42 l29 -11 -6 -111 c-3 -60 -12 -122 -19 -136 -9 -18
-11 -48 -7 -98 l6 -73 -204 -204 -204 -204 608 -608 607 -607 607 607 608 608
-158 158 -157 157 -20 180 c-32 296 -31 274 -11 285 11 5 30 29 43 52 23 42
24 48 18 196 -6 167 -7 172 -67 172 -22 0 -37 -7 -45 -20 -7 -11 -21 -20 -30
-20 -10 0 -27 9 -38 20 -15 15 -33 20 -75 20 -42 0 -60 -5 -75 -20 -25 -25
-45 -25 -70 0 -23 23 -82 27 -98 8 -6 -8 -12 -83 -13 -176 -3 -146 -1 -165 14
-173 9 -6 17 -16 17 -24 0 -7 11 -22 26 -32 18 -13 23 -24 18 -37 -6 -15 -21
-3 -96 71 -74 73 -88 92 -83 111 4 17 -5 40 -31 78 -35 54 -36 56 -20 87 13
28 13 35 1 54 -11 17 -15 55 -15 148 l0 125 39 6 c53 8 81 36 81 79 0 39 -21
64 -61 72 -16 3 -31 13 -34 23 -3 9 -18 23 -33 31 -15 8 -33 22 -40 32 -7 9
-20 17 -28 17 -16 0 -19 16 -4 25 14 9 13 148 -2 163 -7 7 -25 12 -40 12 -22
0 -28 5 -28 21 0 50 -15 59 -100 59 -70 0 -81 -2 -91 -21z m151 -59 l0 -40 40
0 40 0 0 -58 0 -58 -40 4 -40 4 0 -40 0 -41 58 -3 c50 -3 57 -6 60 -25 2 -15
11 -23 30 -25 21 -2 28 -9 30 -30 3 -24 8 -27 44 -30 55 -4 73 -31 39 -59 -13
-10 -38 -19 -57 -19 -47 0 -54 -23 -54 -177 0 -99 3 -130 15 -143 14 -15 14
-18 0 -30 -19 -16 -19 -50 0 -76 8 -10 15 -26 15 -35 0 -9 10 -23 23 -32 18
-12 20 -19 11 -34 -6 -10 -23 -19 -38 -21 -31 -4 -30 12 -16 -337 15 -376 48
-734 71 -777 5 -10 20 -18 32 -18 29 -1 54 -20 66 -53 6 -16 24 -32 44 -41 64
-26 85 -87 47 -136 l-19 -25 -456 0 c-445 0 -457 1 -471 20 -40 54 -24 106 40
140 23 12 43 33 52 53 9 23 21 34 43 38 17 4 35 11 40 18 28 35 80 707 81
1044 0 69 -1 72 -24 72 -43 0 -59 49 -20 64 8 3 14 14 14 24 0 11 7 25 15 32
20 16 19 64 -1 81 -14 11 -14 13 0 21 13 8 16 32 16 149 0 78 -5 149 -10 160
-6 11 -21 19 -35 19 -13 0 -36 5 -50 10 -21 8 -26 16 -23 38 3 24 8 27 45 30
37 3 42 6 45 30 2 21 9 28 31 30 19 2 31 11 37 28 8 21 16 24 55 24 40 0 47 3
56 27 16 42 5 56 -41 51 l-40 -4 0 58 0 57 43 3 42 3 -3 38 -4 37 61 0 61 0 0
-40z m-692 -538 c-2 -11 2 -25 9 -33 8 -11 7 -34 -8 -99 -10 -47 -19 -96 -19
-109 0 -46 22 -6 39 69 9 39 21 71 26 72 6 0 20 -28 33 -63 26 -75 24 -128 -8
-172 -18 -24 -20 -31 -9 -38 11 -8 11 -11 -4 -20 -18 -11 -18 -12 2 -30 11
-10 25 -19 31 -19 20 0 9 -29 -12 -32 -30 -4 -32 -22 -23 -176 5 -83 12 -127
21 -136 10 -11 11 -21 3 -44 -8 -22 -4 -69 16 -196 14 -92 29 -174 32 -182 5
-13 20 -19 68 -26 11 -2 24 -13 30 -25 5 -12 22 -28 37 -34 33 -13 45 -50 29
-85 l-11 -24 -306 0 c-272 0 -310 2 -326 17 -10 9 -18 25 -18 36 0 24 27 57
46 57 8 0 20 14 29 30 12 24 22 30 48 30 17 0 37 4 43 8 17 11 67 329 60 381
-4 26 -2 49 5 57 10 12 30 291 22 307 -2 4 -15 7 -28 7 -30 0 -42 18 -18 27
10 3 26 13 35 21 15 12 16 18 5 30 -10 12 -9 16 1 20 8 2 4 14 -14 35 -24 29
-26 37 -22 102 5 73 29 134 73 187 15 17 21 35 18 48 -5 17 -1 20 31 20 31 0
37 -3 34 -18z m1139 -202 c5 -17 14 -20 59 -20 47 0 54 2 54 20 0 18 7 20 55
20 48 0 55 -2 55 -20 0 -17 7 -20 51 -20 42 0 52 3 56 20 3 13 14 20 29 20 24
0 24 -1 24 -99 0 -54 3 -119 6 -145 6 -43 5 -48 -15 -53 -15 -4 -20 -11 -16
-24 5 -14 0 -20 -19 -25 -13 -3 -26 -11 -28 -17 -6 -17 18 -269 46 -486 25
-192 21 -181 81 -241 6 -6 22 -19 38 -31 28 -21 34 -47 17 -80 -10 -18 -24
-19 -325 -19 -301 0 -315 1 -325 19 -19 36 -10 55 51 113 l62 58 28 228 c16
125 31 278 35 340 7 110 7 112 -14 112 -15 0 -22 6 -22 19 0 10 -8 25 -18 32
-17 13 -19 27 -14 157 4 133 5 142 24 142 11 0 22 -8 25 -20z m-759 -461 c-2
-65 -7 -122 -11 -126 -4 -4 -38 23 -75 60 l-67 67 64 64 c88 89 94 84 89 -65z
m590 75 c34 -31 62 -61 62 -67 0 -15 -111 -127 -126 -127 -6 0 -14 27 -17 68
-12 119 -7 182 12 182 4 0 35 -25 69 -56z m-658 32 c0 -2 -8 -10 -17 -17 -16
-13 -17 -12 -4 4 13 16 21 21 21 13z m57 -367 c-3 -67 -9 -124 -12 -127 -3 -3
-34 22 -68 56 l-62 62 65 65 c35 36 69 65 74 65 5 0 7 -49 3 -121z m603 56
l65 -65 -62 -62 c-34 -34 -64 -60 -67 -57 -9 9 -19 249 -10 249 5 0 39 -29 74
-65z m-797 -23 l48 -49 -44 -36 c-44 -36 -45 -36 -50 -14 -12 49 -19 147 -10
147 5 0 30 -22 56 -48z m917 -44 l0 -42 -22 21 c-21 22 -21 23 -3 43 10 11 20
20 22 20 1 0 3 -19 3 -42z m-740 -263 c-5 -59 -11 -108 -12 -109 -2 -1 -28 22
-58 50 l-55 52 63 63 c34 34 64 60 67 58 2 -3 0 -54 -5 -114z m634 47 c55 -57
55 -58 -21 -125 l-41 -38 -6 88 c-4 48 -9 100 -11 116 -4 24 -2 26 13 18 9 -5
39 -32 66 -59z m-1203 3 c-5 -34 -10 -40 -37 -46 -17 -3 -36 -9 -42 -13 -7 -4
-12 -4 -12 1 0 8 92 104 96 100 1 -1 -1 -20 -5 -42z m404 -25 c18 -19 17 -20
-2 -20 -12 0 -23 8 -26 20 -3 11 -2 20 2 20 5 0 16 -9 26 -20z m1385 -20 c9
-16 8 -18 -5 -14 -8 4 -15 12 -15 20 0 20 7 17 20 -6z m-2005 -110 l-39 -40
84 -88 85 -87 -90 87 -89 88 39 40 c21 22 41 40 44 40 3 0 -13 -18 -34 -40z
m2097 -127 c-44 -48 -275 -281 -513 -518 -238 -236 -355 -349 -259 -250 96 99
324 330 505 513 182 183 332 338 334 343 1 6 5 8 8 5 3 -3 -31 -45 -75 -93z
m-648 -27 l28 -18 -23 -24 c-12 -13 -33 -24 -45 -24 -23 0 -25 5 -39 98 l-7
42 30 -27 c16 -16 41 -36 56 -47z m-689 17 c-11 -71 -15 -81 -29 -86 -17 -7
-66 28 -66 46 0 9 77 68 98 76 2 1 0 -16 -3 -36z m-400 -23 c18 -20 18 -22
-45 -85 l-64 -65 -68 67 c-63 63 -67 68 -51 85 13 15 32 18 113 18 85 0 99 -3
115 -20z m276 -1 c10 -19 4 -28 -52 -85 l-63 -64 -68 67 c-63 63 -67 68 -51
85 13 15 33 18 119 18 95 0 104 -2 115 -21z m1094 1 c19 -21 18 -22 -48 -88
l-67 -67 -67 67 c-66 66 -67 67 -48 88 16 17 30 20 115 20 85 0 99 -3 115 -20z
m270 0 c18 -20 18 -22 -45 -85 l-64 -65 -68 67 c-63 63 -67 68 -51 85 13 15
32 18 113 18 85 0 99 -3 115 -20z m-1451 -228 c-19 -36 -18 -61 5 -104 l18
-37 -26 -25 -27 -26 -68 69 -67 68 68 61 68 61 21 -20 c20 -19 21 -23 8 -47z
m1136 3 l65 -65 -68 -67 -67 -68 -25 25 -25 26 20 39 c24 47 25 70 5 109 -14
26 -14 31 1 48 10 10 20 18 23 18 4 0 36 -29 71 -65z m-880 -179 c0 -11 -19
-15 -25 -6 -3 5 1 10 9 10 9 0 16 -2 16 -4z m275 -6 c-3 -5 -12 -7 -20 -3 -21
7 -19 13 6 13 11 0 18 -4 14 -10z m270 0 c-3 -5 -10 -10 -16 -10 -5 0 -9 5 -9
10 0 6 7 10 16 10 8 0 12 -4 9 -10z m-220 -220 l-65 -65 -65 65 -65 64 67 69
68 68 62 -68 63 -68 -65 -65z m280 0 l-65 -65 -67 67 -68 68 65 65 64 65 68
-67 68 -68 -65 -65z m-553 133 c32 -32 58 -62 58 -68 0 -6 -27 -37 -60 -70
l-60 -59 -65 64 -65 64 62 63 c34 35 65 63 67 63 3 0 31 -26 63 -57z m213
-483 c5 0 -23 33 -63 73 l-72 73 65 64 65 65 67 -68 68 -67 -53 -53 c-29 -29
-50 -56 -47 -58 3 -3 -4 -14 -15 -24 -21 -19 -23 -17 -293 255 l-272 275 270
-268 c149 -147 274 -267 280 -267z"/>
<path d="M1970 3424 c-77 -51 -82 -58 -37 -50 l37 7 0 -134 c0 -139 -6 -161
-45 -169 -35 -8 68 -13 120 -7 28 3 40 7 27 7 -12 1 -25 8 -27 15 -3 6 -8 92
-12 190 l-8 177 -55 -36z"/>
<path d="M2235 3444 c-44 -22 -65 -54 -65 -99 0 -76 57 -118 131 -96 50 15 50
28 0 23 -31 -3 -42 0 -55 19 -36 52 -9 143 41 137 44 -5 67 -49 67 -126 -1
-79 -23 -129 -84 -193 -22 -23 -38 -44 -36 -47 9 -8 74 38 114 82 53 57 72
104 72 176 0 66 -23 104 -76 126 -43 18 -72 18 -109 -2z"/>
<path d="M5004 3436 c-37 -16 -64 -51 -64 -83 0 -12 14 -38 31 -57 l30 -35
-36 -33 c-51 -47 -57 -94 -18 -138 24 -27 38 -33 81 -38 92 -8 152 35 152 111
0 34 -6 46 -39 77 -37 35 -37 37 -19 49 11 7 26 27 34 46 19 46 5 82 -41 100
-42 18 -71 18 -111 1z m88 -33 c10 -9 18 -27 18 -40 0 -28 -27 -73 -45 -73
-22 0 -65 48 -65 74 0 50 54 73 92 39z m-1 -192 c53 -53 31 -131 -37 -131 -65
0 -91 72 -49 137 21 31 51 29 86 -6z"/>
<path d="M4636 3424 c-3 -9 -6 -29 -6 -46 0 -31 0 -31 21 -12 16 14 40 20 101
23 44 2 79 -1 76 -5 -2 -5 -32 -67 -67 -137 -66 -135 -85 -197 -59 -197 29 0
52 28 65 81 8 30 34 104 59 164 25 61 48 118 51 128 5 16 -5 17 -115 17 -100
0 -121 -3 -126 -16z"/>
<path d="M1550 2955 c0 -13 69 -15 565 -15 496 0 565 2 565 15 0 13 -69 15
-565 15 -496 0 -565 -2 -565 -15z"/>
<path d="M4327 2953 c-4 -3 -7 -10 -7 -15 0 -4 254 -8 565 -8 496 0 565 2 565
15 0 13 -69 15 -558 15 -307 0 -562 -3 -565 -7z"/>
<path d="M594 2430 c-36 -14 -64 -59 -64 -103 0 -50 26 -92 90 -146 109 -92
102 -177 -13 -169 -38 3 -44 7 -64 46 l-22 44 -7 -37 c-9 -52 7 -82 51 -91 63
-11 125 4 162 41 30 30 33 39 33 91 l0 59 -85 80 c-91 85 -104 115 -67 148 38
34 86 20 127 -38 13 -18 14 -16 15 26 0 34 -4 49 -16 53 -23 9 -115 6 -140 -4z"/>
<path d="M990 2427 c-19 -6 -56 -32 -81 -58 -37 -37 -49 -57 -59 -101 -32
-143 48 -262 195 -289 67 -12 169 -7 190 11 14 11 31 87 22 97 -3 2 -12 -9
-21 -25 -40 -77 -196 -65 -258 19 -63 84 -64 210 -4 278 67 75 218 65 257 -18
13 -27 17 -30 22 -17 4 10 7 37 7 61 0 41 -1 43 -37 49 -58 9 -194 5 -233 -7z"/>
<path d="M1360 2432 c-33 -4 -33 -5 -10 -11 32 -9 37 -34 39 -182 2 -171 -7
-235 -33 -247 -16 -8 2 -11 74 -11 90 0 93 1 68 15 -28 14 -28 16 -28 114 l0
100 115 0 115 0 0 -59 c0 -102 -11 -152 -34 -161 -13 -5 48 -9 154 -9 118 0
167 3 152 10 -25 10 -25 14 5 97 l16 42 72 0 71 0 23 -64 c13 -36 20 -70 16
-75 -4 -8 20 -11 72 -10 65 0 74 2 55 12 -28 13 -60 74 -141 272 -71 173 -77
184 -90 170 -5 -6 -44 -95 -86 -200 -42 -104 -83 -200 -91 -212 -18 -28 -58
-39 -90 -24 l-24 11 0 200 c0 197 0 201 22 209 18 7 15 9 -22 14 -55 7 -158
-4 -120 -13 29 -7 38 -32 39 -112 l1 -58 -121 0 c-106 0 -120 2 -115 16 3 9 6
45 6 80 0 58 2 66 23 74 22 9 22 9 -3 9 -14 1 -41 3 -60 5 -19 2 -51 1 -70 -2z
m747 -234 c5 -28 5 -28 -46 -28 -28 0 -51 2 -51 4 0 5 24 72 40 111 l12 30 20
-45 c11 -25 22 -57 25 -72z"/>
<path d="M2488 2430 c-48 -14 -94 -49 -124 -91 -23 -34 -29 -55 -32 -110 -4
-59 0 -77 22 -123 46 -94 153 -144 288 -134 67 5 86 19 98 74 8 36 3 64 -7 36
-3 -7 -15 -25 -27 -39 -19 -22 -29 -25 -94 -25 -59 -1 -78 3 -105 22 -61 42
-82 84 -85 174 -3 90 12 133 61 170 27 20 110 32 151 22 35 -9 86 -54 86 -77
0 -10 5 -19 10 -19 6 0 10 26 10 59 0 58 -1 59 -31 65 -44 8 -188 6 -221 -4z"/>
<path d="M2850 2430 c-23 -5 -27 -8 -13 -9 31 -2 35 -35 31 -240 -3 -157 -5
-174 -22 -187 -18 -12 -9 -14 75 -13 72 0 88 3 69 10 -36 15 -40 25 -40 127
l0 92 115 0 115 0 0 -99 c0 -92 -2 -101 -22 -115 -21 -15 -16 -16 72 -15 73 0
89 3 69 10 -35 13 -39 36 -39 225 0 160 8 203 37 205 10 1 -5 5 -33 10 -29 5
-71 5 -95 0 -24 -5 -34 -9 -23 -10 28 -1 34 -18 34 -102 l0 -69 -115 0 -115 0
0 69 c0 83 6 101 33 101 38 0 13 7 -43 13 -30 2 -71 1 -90 -3z"/>
<path d="M3430 2432 c-32 -4 -33 -5 -10 -11 l25 -7 3 -199 c3 -194 2 -201 -19
-217 -21 -17 -18 -18 72 -18 82 0 91 2 69 13 -27 14 -38 55 -39 155 l-1 52 59
0 c52 0 59 -3 66 -22 7 -22 8 -22 15 7 16 63 17 63 -60 57 l-70 -5 0 82 0 81
50 0 c42 0 55 -5 75 -26 l25 -27 0 47 0 46 -112 -2 c-62 0 -129 -3 -148 -6z"/>
<path d="M4255 2432 c-30 -5 -30 -5 -5 -11 l25 -7 3 -195 c3 -217 -2 -238 -52
-225 -33 8 -100 69 -156 141 l-42 54 32 39 c40 50 49 108 25 150 -27 45 -53
52 -193 51 -70 -1 -116 -4 -102 -8 24 -7 25 -12 33 -106 11 -144 0 -305 -21
-322 -14 -10 -2 -12 73 -13 79 0 87 2 65 13 -23 12 -25 18 -28 95 -3 82 -3 82
22 82 20 0 38 -18 86 -79 33 -44 70 -87 82 -95 19 -13 57 -16 219 -16 l196 0
6 37 c8 47 3 52 -22 22 -16 -20 -29 -24 -70 -24 -35 0 -55 5 -61 15 -5 8 -10
50 -10 93 l0 77 56 0 c47 0 57 -3 61 -20 9 -35 23 -21 23 24 l0 43 -70 -5 -70
-5 0 82 0 81 46 0 c52 0 84 -14 84 -36 0 -8 5 -12 10 -9 6 3 10 24 10 46 l0
39 -112 -1 c-62 -1 -126 -4 -143 -7z m-268 -47 c33 -23 48 -83 33 -129 -13
-41 -35 -56 -79 -56 l-31 0 0 100 0 100 28 0 c15 0 37 -7 49 -15z"/>
<path d="M4615 2430 c-23 -4 -30 -8 -17 -9 12 0 25 -7 27 -13 3 -7 9 -85 13
-174 8 -145 11 -164 32 -194 48 -67 158 -89 240 -47 82 41 97 88 99 294 1 112
5 133 30 134 9 1 0 5 -19 10 -19 5 -55 6 -80 2 -44 -6 -44 -6 -17 -16 l28 -9
-3 -170 -3 -170 -33 -29 c-37 -34 -102 -40 -140 -13 -45 31 -52 62 -52 229 0
152 1 156 23 165 20 8 20 9 2 9 -11 1 -36 3 -55 5 -19 2 -53 1 -75 -4z"/>
<path d="M5166 2424 c-3 -9 -6 -98 -6 -199 0 -190 -6 -230 -37 -238 -10 -3 20
-5 67 -5 67 0 79 2 58 9 -32 12 -36 35 -40 206 l-3 113 171 -171 171 -171 7
32 c3 18 6 112 6 209 0 180 4 202 40 213 29 9 -86 17 -120 9 -25 -6 -28 -9
-12 -10 34 -2 42 -37 42 -184 l-1 -132 -164 168 c-91 92 -167 167 -169 167 -2
0 -7 -7 -10 -16z"/>
<path d="M5736 2433 c-47 -4 -48 -5 -25 -16 l24 -13 3 -194 c3 -189 2 -196
-19 -212 -20 -17 -15 -18 133 -18 143 0 158 2 199 23 24 13 58 42 76 65 95
124 44 306 -97 350 -40 12 -221 22 -294 15z m217 -44 c90 -25 142 -111 135
-221 -4 -74 -29 -117 -82 -142 -37 -17 -142 -22 -166 -6 -11 7 -15 46 -18 194
l-4 186 48 0 c27 0 66 -5 87 -11z"/>
<path d="M6275 2430 c-16 -4 -22 -8 -12 -9 32 -2 39 -48 35 -233 -3 -163 -5
-178 -23 -192 -18 -14 -7 -16 120 -13 l140 2 3 40 2 40 -19 -25 c-17 -21 -28
-25 -71 -25 -34 0 -54 5 -60 15 -5 8 -10 50 -10 93 l0 77 56 0 c48 0 57 -3 61
-21 8 -31 23 -3 23 44 0 34 -2 37 -19 27 -11 -5 -42 -10 -70 -10 l-51 0 0 80
0 80 49 0 c49 0 81 -17 81 -43 1 -28 20 21 20 51 l0 32 -112 -1 c-62 -1 -126
-5 -143 -9z"/>
<path d="M3210 1693 c0 -10 7 -119 15 -244 16 -263 28 -308 103 -388 68 -72
136 -101 237 -101 101 0 169 29 237 101 75 80 87 125 103 388 8 125 15 234 15
244 0 16 -23 17 -355 17 -332 0 -355 -1 -355 -17z m358 -50 c0 -5 3 -17 7 -27
6 -14 2 -24 -14 -38 -34 -27 -47 -22 -48 16 -1 27 2 33 17 29 10 -3 20 2 23
11 6 16 18 23 15 9z m56 -67 c4 -23 0 -50 -13 -84 -27 -69 -16 -99 55 -148 30
-21 51 -40 46 -43 -14 -10 -13 -95 2 -123 10 -19 12 -41 8 -73 -8 -54 -28 -57
-24 -3 5 48 -10 74 -58 98 -31 16 -40 26 -40 46 0 39 -18 66 -40 59 -13 -4
-29 5 -54 30 -41 40 -45 55 -16 55 11 0 20 5 20 10 0 6 -12 10 -26 10 -14 0
-23 4 -19 10 3 6 2 10 -4 10 -5 0 -13 -4 -16 -10 -3 -5 -19 -10 -35 -10 -35 0
-61 -10 -55 -20 3 -5 -4 -6 -15 -3 -21 6 -18 23 5 23 7 0 40 27 74 60 34 33
69 60 79 60 10 0 34 9 55 19 36 18 37 18 37 0 0 -10 -8 -27 -18 -37 -14 -14
-16 -23 -9 -40 9 -20 12 -17 29 30 12 34 16 64 12 87 -5 22 -3 32 3 28 6 -4
14 -22 17 -41z m-227 -11 c27 -25 35 -37 27 -45 -9 -9 -17 -3 -33 19 -13 17
-29 31 -36 31 -9 0 -12 6 -9 15 8 20 7 20 51 -20z m177 -321 c17 -44 -4 -74
-65 -96 -18 -6 -41 -19 -49 -28 -8 -8 -12 -11 -8 -6 3 4 4 14 2 20 -2 6 12 20
31 31 30 16 35 23 30 43 -3 13 -1 30 6 38 15 19 45 18 53 -2z m246 -24 c0 -5
-5 -10 -11 -10 -5 0 -7 5 -4 10 3 6 8 10 11 10 2 0 4 -4 4 -10z m-83 -142 c-3
-8 -6 -5 -6 6 -1 11 2 17 5 13 3 -3 4 -12 1 -19z"/>
<path d="M1128 1465 c-2 -3 -1 -33 3 -66 7 -57 6 -85 -6 -161 -4 -25 -2 -28
26 -28 26 0 30 3 23 18 -4 9 -9 38 -12 65 l-4 47 76 0 76 0 0 -33 c0 -17 -4
-47 -9 -65 -10 -32 -9 -32 26 -32 30 0 34 2 23 14 -8 10 -11 51 -9 128 l3 113
-27 3 c-25 3 -26 2 -17 -23 5 -14 10 -40 10 -56 l0 -29 -69 0 c-67 0 -69 1
-74 27 -3 15 -1 37 3 49 5 12 6 25 3 28 -8 7 -38 8 -45 1z"/>
<path d="M4035 1453 c13 -31 17 -156 7 -200 l-10 -43 55 0 c44 0 58 5 78 25
32 31 32 69 -1 102 -18 18 -22 29 -15 36 6 6 11 25 11 43 0 27 -5 34 -31 43
-18 6 -48 11 -67 11 -29 0 -33 -3 -27 -17z m90 -48 c0 -34 -3 -40 -22 -43 -21
-3 -23 1 -23 43 0 42 2 46 23 43 19 -3 22 -9 22 -43z m9 -81 c23 -22 30 -62
16 -79 -7 -8 -25 -15 -41 -15 -28 0 -29 1 -29 55 0 48 3 55 19 55 11 0 27 -7
35 -16z"/>
<path d="M1441 1320 l0 -110 54 0 c36 0 55 4 58 14 4 11 -3 13 -34 9 l-39 -6
0 47 c0 42 2 46 25 46 14 0 25 -6 25 -12 0 -9 3 -8 9 2 14 20 4 30 -30 30 -27
0 -29 3 -29 36 0 35 1 36 35 32 24 -3 35 0 35 9 0 9 -16 13 -54 13 l-55 0 0
-110z"/>
<path d="M1625 1320 l0 -110 27 0 c26 0 26 1 16 37 -6 22 -7 69 -4 110 7 71 6
73 -16 73 -23 0 -23 -2 -23 -110z"/>
<path d="M1745 1320 l0 -110 56 0 c52 0 79 12 79 34 0 6 -5 5 -12 -2 -7 -7
-26 -12 -44 -12 -31 0 -32 1 -38 59 -4 32 -4 77 0 100 6 38 5 41 -17 41 -24 0
-24 -1 -24 -110z"/>
<path d="M1930 1320 l0 -110 45 0 c35 0 52 6 70 25 30 29 31 45 5 78 -15 19
-18 33 -13 58 8 40 -14 59 -69 59 l-38 0 0 -110z m85 70 c9 -28 -5 -51 -29
-48 -21 3 -33 36 -22 63 7 18 44 8 51 -15z m11 -95 c24 -37 10 -67 -29 -63
-30 3 -32 6 -35 46 -3 39 -1 42 22 42 16 0 32 -9 42 -25z"/>
<path d="M2125 1320 c0 -103 1 -110 20 -110 18 0 20 5 17 45 -3 37 -1 45 13
45 9 0 35 -20 57 -45 28 -31 49 -45 67 -45 25 0 25 1 -12 31 -54 44 -60 61
-40 103 16 35 16 36 -7 61 -18 20 -33 25 -69 25 l-46 0 0 -110z m96 69 c16
-31 -3 -69 -36 -69 -23 0 -25 4 -25 45 0 41 2 45 25 45 15 0 29 -8 36 -21z"/>
<path d="M2364 1396 c-39 -39 -45 -86 -19 -137 37 -70 161 -64 200 11 25 49
19 88 -19 126 -29 29 -41 34 -81 34 -40 0 -52 -5 -81 -34z m116 9 c43 -22 58
-83 33 -133 -16 -33 -23 -37 -60 -40 -32 -2 -47 2 -62 17 -43 43 -39 130 7
156 35 18 46 18 82 0z"/>
<path d="M2788 1348 l4 -83 -80 78 c-44 42 -85 77 -91 77 -7 0 -11 -30 -11
-89 0 -49 -3 -96 -6 -105 -5 -12 0 -16 19 -16 23 0 24 2 16 43 -4 23 -8 61 -9
84 l0 43 76 -80 c42 -44 83 -80 90 -80 11 0 14 23 14 105 0 81 -3 105 -13 105
-11 0 -13 -18 -9 -82z"/>
<path d="M2886 1409 c-3 -13 -7 -63 -8 -112 l-3 -87 29 0 c23 0 27 3 18 12 -7
7 -12 41 -12 82 l0 71 80 -80 c44 -43 81 -77 84 -74 2 2 6 50 8 107 3 87 1
102 -12 102 -13 0 -15 -13 -12 -82 l4 -83 -86 84 c-79 79 -85 83 -90 60z"/>
<path d="M4260 1336 c0 -52 -3 -101 -6 -110 -5 -13 1 -16 26 -16 28 0 31 2 20
15 -9 11 -11 42 -8 110 5 88 4 95 -13 95 -17 0 -19 -9 -19 -94z"/>
<path d="M4380 1320 l0 -110 48 0 c38 0 53 5 70 23 27 29 28 47 2 80 -18 22
-19 29 -8 52 11 24 10 29 -11 46 -14 11 -39 19 -62 19 l-39 0 0 -110z m85 49
c0 -19 -6 -25 -27 -27 -26 -3 -28 -1 -28 31 0 18 3 37 7 40 12 13 48 -20 48
-44z m10 -69 c27 -30 13 -70 -24 -70 -31 0 -41 14 -41 61 0 24 4 29 23 29 13
0 32 -9 42 -20z"/>
<path d="M4575 1320 l0 -111 54 3 c61 3 81 23 24 23 -38 0 -38 0 -41 44 l-3
44 36 -6 c26 -4 35 -2 32 6 -2 7 -18 13 -35 15 -29 3 -32 6 -32 39 0 34 1 35
35 31 24 -3 35 0 35 9 0 9 -16 13 -52 13 l-53 0 0 -110z"/>
<path d="M4760 1320 l0 -110 25 0 c22 0 24 3 15 19 -5 11 -10 31 -10 45 0 40
33 33 81 -19 35 -38 48 -45 79 -45 36 0 38 2 44 40 6 39 8 40 45 40 35 0 39
-3 54 -40 13 -33 20 -40 43 -40 26 0 26 1 10 19 -9 10 -34 57 -55 105 -21 48
-42 88 -45 89 -4 1 -25 -40 -46 -92 -21 -52 -43 -98 -47 -102 -5 -5 -26 9 -48
31 -37 38 -39 41 -27 73 20 55 16 74 -19 86 -18 6 -47 11 -65 11 l-34 0 0
-110z m89 76 c7 -8 11 -27 9 -43 -2 -23 -8 -29 -35 -31 -33 -3 -33 -3 -33 42
0 42 2 46 24 46 13 0 29 -6 35 -14z m205 -48 c9 -35 8 -38 -14 -38 -11 0 -20
3 -20 8 0 19 13 52 20 52 4 0 10 -10 14 -22z"/>
<path d="M5204 1396 c-78 -78 -21 -186 99 -186 44 0 67 13 67 39 0 12 -3 11
-18 -2 -23 -21 -80 -22 -108 -2 -30 21 -47 68 -40 110 12 62 97 84 148 38 17
-15 18 -15 18 10 0 27 -1 27 -66 27 -62 0 -68 -2 -100 -34z"/>
<path d="M5430 1320 c0 -109 0 -110 23 -110 22 0 23 3 19 55 l-4 55 62 0 62 0
-7 -55 c-6 -53 -6 -55 17 -55 23 0 23 2 23 110 0 108 0 110 -23 110 -22 0 -23
-3 -16 -45 l6 -45 -61 0 -61 0 0 45 c0 38 -3 45 -20 45 -19 0 -20 -7 -20 -110z"/>
</g>
</svg>
