<?xml version="1.0" standalone="no"?>
<!DOCTYPE svg PUBLIC "-//W3C//DTD SVG 20010904//EN"
 "http://www.w3.org/TR/2001/REC-SVG-20010904/DTD/svg10.dtd">
<svg version="1.0" xmlns="http://www.w3.org/2000/svg"
 width="1411.000000pt" height="1411.000000pt" viewBox="0 0 1411.000000 1411.000000"
 preserveAspectRatio="xMidYMid meet">
<metadata>
Created by potrace 1.14, written by Peter Selinger 2001-2017
</metadata>
<g transform="translate(0.000000,1411.000000) scale(0.100000,-0.100000)"
fill="#000000" stroke="none">
<path d="M6623 13229 c-544 -28 -1179 -149 -1738 -329 -808 -262 -1571 -674
-2240 -1211 -648 -520 -1217 -1169 -1625 -1855 -215 -361 -428 -793 -550
-1114 -148 -392 -296 -931 -364 -1330 -60 -350 -85 -647 -93 -1070 -8 -428 13
-774 67 -1153 11 -76 20 -140 20 -143 0 -12 1509 3 1530 16 8 5 2 63 -19 193
-70 431 -86 687 -71 1172 10 329 16 403 51 635 198 1304 898 2540 1924 3395
1029 859 2318 1311 3655 1282 284 -6 478 -23 740 -63 2093 -321 3828 -1829
4446 -3861 246 -812 298 -1676 153 -2555 -16 -98 -29 -187 -29 -198 0 -20 10
-20 769 -20 l769 0 16 108 c52 344 66 573 66 1053 0 571 -21 840 -96 1254
-215 1179 -682 2210 -1432 3155 -181 228 -272 329 -523 576 -284 281 -373 363
-554 509 -1078 867 -2351 1391 -3715 1529 -346 35 -780 45 -1157 25z m-8 -362
c7 -17 -151 -684 -177 -750 -11 -28 -52 -47 -68 -31 -8 8 160 740 176 765 6
10 40 27 57 28 4 1 10 -5 12 -12z m895 -28 c221 -17 275 -48 275 -154 0 -48
-4 -58 -34 -89 -19 -20 -54 -43 -78 -52 l-44 -17 53 -21 c190 -76 110 -337
-111 -363 -47 -5 -307 13 -323 23 -4 3 1 17 12 32 27 36 38 104 50 316 16 277
16 278 -22 296 -87 41 -25 49 222 29z m1506 -256 c-49 -175 -156 -598 -156
-620 0 -17 9 -38 20 -48 44 -40 12 -43 -107 -9 -48 14 -53 18 -53 43 0 15 -3
30 -6 34 -3 3 -30 -6 -59 -20 -49 -24 -58 -25 -93 -15 -22 7 -52 22 -67 34
-82 64 -87 233 -10 334 55 72 222 117 295 80 18 -9 37 -16 41 -16 11 0 39 97
39 137 0 24 -7 37 -25 49 -14 9 -22 20 -19 25 3 5 50 9 105 9 91 0 100 -2 95
-17z m-787 -58 c75 -38 91 -92 66 -225 -9 -47 -19 -111 -22 -143 -5 -51 -3
-61 17 -82 20 -22 21 -25 7 -31 -22 -8 -135 12 -153 27 -8 6 -14 20 -14 30 0
24 -1 24 -59 -6 -51 -27 -77 -27 -133 1 -54 28 -61 125 -12 183 30 37 75 52
173 60 75 6 76 6 79 35 5 40 -14 72 -54 91 -38 18 -74 12 -100 -16 -25 -28
-36 -23 -32 14 3 28 10 36 58 60 45 23 64 28 102 23 26 -3 61 -12 77 -21z
m-2583 -100 c32 -20 45 -53 84 -197 35 -126 49 -155 81 -160 32 -4 34 -23 3
-37 -50 -23 -148 -41 -155 -29 -4 6 -18 56 -32 112 -38 151 -58 199 -90 214
-21 10 -36 11 -59 3 -65 -23 -72 -69 -33 -205 29 -99 49 -136 76 -136 30 0 31
-18 2 -33 -38 -20 -211 -62 -220 -54 -3 4 3 17 15 30 30 32 28 72 -8 200 -35
126 -45 144 -82 152 -39 9 -42 21 -11 43 34 24 129 72 142 72 5 0 14 -14 20
-32 l11 -32 43 42 c73 71 150 89 213 47z m-629 -185 c37 -22 54 -54 108 -195
42 -112 58 -135 91 -135 36 0 38 -18 3 -36 -55 -28 -142 -55 -151 -46 -5 5
-25 56 -44 113 -58 170 -94 217 -155 204 -73 -16 -77 -107 -10 -249 35 -76 44
-87 71 -92 36 -8 45 -18 27 -32 -16 -13 -202 -82 -222 -82 -23 0 -18 22 11 45
l25 20 -38 105 c-55 149 -81 192 -120 202 -40 10 -41 17 -5 50 27 25 117 88
125 88 3 0 10 -13 17 -30 15 -37 25 -38 44 -2 43 83 149 117 223 72z m4386
-56 c54 -35 81 -100 72 -168 -3 -28 -11 -56 -17 -63 -17 -20 -68 -15 -173 17
-133 41 -129 42 -121 -26 12 -102 48 -139 147 -151 60 -7 70 -20 38 -46 -20
-16 -35 -19 -89 -15 -38 3 -82 14 -106 26 -48 24 -111 91 -120 127 -22 88 34
254 100 294 77 48 201 50 269 5z m333 -137 c46 -11 49 -14 52 -48 l3 -36 73 1
c65 1 76 -2 110 -27 20 -16 45 -44 54 -63 19 -41 17 -48 -64 -226 -30 -65 -54
-126 -54 -136 0 -10 9 -27 20 -37 12 -11 17 -22 11 -28 -9 -9 -153 46 -169 66
-6 8 10 54 50 140 73 156 81 195 45 231 -34 34 -79 34 -112 2 -23 -23 -125
-220 -125 -242 0 -6 9 -19 20 -29 26 -23 25 -35 -1 -35 -31 0 -219 100 -219
116 0 11 8 13 34 9 29 -6 36 -3 53 22 26 36 101 186 119 237 14 38 13 41 -11
66 -14 14 -25 30 -25 34 0 9 61 2 136 -17z m-5269 -73 c56 -45 117 -169 117
-237 -1 -148 -151 -262 -307 -233 -88 16 -181 155 -181 270 1 72 17 109 70
156 99 86 225 105 301 44z m6254 -209 c119 -85 136 -115 52 -90 -18 6 -26 1
-42 -25 -29 -49 -143 -319 -139 -331 3 -9 46 15 313 180 55 34 109 60 120 59
26 -4 25 -12 -31 -247 -58 -243 -58 -241 -47 -241 12 0 140 108 233 196 l65
62 -22 31 c-13 16 -23 37 -23 46 0 14 9 11 51 -13 68 -39 141 -101 133 -113
-3 -6 -18 -8 -33 -4 -37 8 -81 -23 -311 -214 -212 -177 -249 -202 -275 -181
-8 7 -15 22 -15 34 0 11 25 120 54 241 30 121 52 222 50 224 -8 8 -75 -29
-213 -116 -222 -140 -217 -138 -246 -119 -14 9 -25 21 -25 27 0 6 50 133 111
282 110 268 132 338 110 351 -18 11 -13 36 8 36 10 0 65 -34 122 -75z m-6736
15 c33 -65 32 -76 -10 -84 -44 -9 -77 -49 -69 -85 10 -39 75 -158 110 -199 30
-35 32 -35 63 -23 36 15 50 9 31 -14 -17 -20 -145 -100 -192 -119 -43 -18 -57
-7 -34 26 9 12 16 31 16 41 0 42 -129 262 -160 272 -10 3 -30 3 -44 -1 -19 -4
-26 -2 -26 8 0 22 115 128 138 128 11 0 27 -12 37 -26 l17 -27 18 52 c16 49
53 101 72 101 4 0 19 -22 33 -50z m-770 -334 c72 -103 105 -129 105 -83 0 61
101 146 173 147 61 0 136 -48 177 -115 44 -72 44 -150 -1 -270 -27 -73 -68
-116 -134 -140 -27 -10 -62 -31 -77 -48 -15 -17 -29 -29 -31 -26 -2 2 -28 40
-57 84 -66 100 -251 360 -283 400 -19 23 -33 29 -62 30 -22 0 -40 6 -43 13 -2
7 27 44 65 83 68 71 68 71 83 48 8 -13 47 -68 85 -123z m-254 -278 c84 -100
181 -212 217 -250 58 -61 68 -68 103 -68 63 0 55 -13 -65 -109 -49 -39 -92
-71 -97 -71 -12 0 -11 24 2 54 15 33 -2 59 -165 254 -171 203 -185 216 -230
208 -39 -8 -42 -5 -24 27 12 23 99 137 104 137 2 0 72 -82 155 -182z m-371
-118 c23 -23 27 -77 6 -105 -21 -29 -74 -24 -103 9 -30 35 -29 61 2 91 29 30
68 32 95 5z m8995 14 c37 -15 38 -82 1 -106 -23 -16 -65 -8 -80 14 -21 30 -20
47 6 75 22 23 43 28 73 17z m-221 -105 c67 -34 96 -56 96 -73 0 -6 -50 -65
-111 -130 -60 -66 -112 -130 -115 -143 -5 -17 0 -32 17 -50 56 -60 95 -51 187
45 92 96 98 106 78 137 -9 13 -16 27 -16 30 0 22 107 -20 160 -63 l25 -20 -21
-24 c-12 -12 -67 -74 -122 -136 -128 -141 -137 -155 -123 -181 15 -27 14 -51
-1 -51 -7 0 -41 28 -75 61 -52 51 -61 64 -53 79 17 31 11 40 -23 40 -46 0
-118 39 -144 79 -47 70 -31 108 113 267 l85 95 -20 28 c-37 52 -24 54 63 10z
m359 -30 c28 -15 37 -28 37 -58 0 -56 -62 -80 -100 -39 -26 29 -25 49 5 82 28
30 29 30 58 15z m-8809 -227 c58 -60 85 -82 98 -78 58 19 58 19 58 0 0 -10
-32 -49 -70 -86 -96 -92 -158 -123 -118 -58 18 29 -6 71 -102 173 -97 103
-109 111 -144 95 -15 -6 -29 -8 -33 -4 -9 9 22 71 65 130 l36 48 65 -68 c35
-38 101 -106 145 -152z m-328 -97 c85 -49 84 -56 -30 -190 -42 -49 -76 -92
-76 -95 0 -10 65 -38 104 -46 46 -8 103 26 142 86 34 50 54 52 54 5 0 -98
-125 -215 -230 -215 -74 0 -167 63 -222 149 -68 107 -15 265 107 322 48 23 92
18 151 -16z m9237 -114 c23 -16 58 -43 77 -59 l35 -30 -22 -24 c-13 -13 -23
-27 -23 -30 0 -3 23 -8 51 -10 38 -4 58 -12 77 -32 l27 -27 -30 -25 c-16 -14
-42 -32 -57 -40 -27 -14 -28 -14 -42 20 -8 19 -26 42 -40 51 -23 15 -27 15
-60 0 -35 -17 -132 -96 -173 -141 -22 -24 -22 -26 -6 -59 29 -60 5 -51 -75 28
-115 114 -137 162 -63 134 43 -16 77 4 191 112 87 83 91 88 81 114 -22 57 -9
61 52 18z m-9883 -111 c0 -16 5 -40 11 -54 18 -38 410 -326 445 -326 8 0 26 7
40 16 17 12 28 14 35 7 17 -17 -147 -243 -177 -243 -19 0 -18 29 1 50 14 16
11 22 -39 67 -65 60 -144 113 -165 113 -24 -1 -181 -205 -181 -236 0 -10 105
-90 183 -139 28 -18 30 -18 63 0 70 37 57 -3 -46 -141 -39 -52 -74 -94 -80
-94 -5 0 -10 19 -10 43 0 24 -6 50 -12 59 -15 19 -304 233 -374 278 -48 30
-97 39 -109 20 -8 -12 -45 -13 -45 -1 0 14 153 223 172 235 25 15 31 3 20 -38
-10 -35 -10 -36 53 -94 35 -32 75 -64 90 -72 26 -14 28 -13 56 20 55 66 149
203 149 216 0 7 -41 41 -90 74 l-90 61 -39 -23 c-80 -46 -63 3 50 145 38 48
74 87 79 87 6 0 10 -13 10 -30z m10310 -131 c27 -17 50 -37 50 -44 0 -7 -31
-36 -70 -65 -75 -55 -77 -63 -31 -104 26 -24 27 -42 1 -56 -16 -9 -26 -4 -60
26 l-40 36 -63 -50 c-67 -54 -147 -135 -147 -150 0 -5 10 -22 21 -37 18 -22
20 -29 8 -36 -20 -13 -45 -11 -84 5 -39 17 -65 60 -65 108 0 37 21 60 168 187
67 59 86 91 62 106 -25 15 -8 27 32 22 47 -6 67 2 121 49 20 19 39 34 42 34 3
0 27 -14 55 -31z m277 -345 c1 -5 -27 -28 -63 -52 -36 -23 -68 -50 -71 -59 -4
-9 1 -29 10 -45 21 -37 21 -52 1 -69 -15 -12 -21 -8 -54 28 l-37 43 -59 -42
c-99 -69 -134 -99 -150 -130 -15 -29 -15 -32 5 -59 28 -37 27 -39 -14 -39 -71
0 -125 51 -125 118 0 40 27 72 123 144 45 33 94 72 109 86 26 24 26 26 12 53
l-14 29 57 -6 c56 -5 59 -4 106 35 l48 40 57 -33 c31 -19 57 -38 59 -42z m-31
-371 c67 -23 146 -102 163 -164 12 -42 11 -51 -7 -90 -28 -62 -82 -111 -118
-107 -23 2 -41 21 -95 98 -41 59 -74 96 -86 98 -41 6 -87 -112 -65 -168 5 -14
26 -45 46 -69 20 -23 36 -47 36 -52 0 -5 -14 -9 -32 -9 -45 0 -128 86 -157
163 -27 74 -27 80 8 154 25 52 39 69 86 99 60 38 117 62 151 63 11 1 43 -7 70
-16z m-10856 -459 c-29 -59 -60 -109 -68 -111 -7 -3 -28 9 -47 27 l-34 33 60
120 61 120 41 -42 42 -42 -55 -105z m11144 20 c24 -31 50 -67 57 -81 12 -22
11 -27 -11 -45 -16 -12 -21 -21 -13 -24 32 -14 80 -53 100 -83 26 -38 30 -95
11 -137 -11 -24 -10 -29 6 -38 90 -53 126 -98 126 -155 0 -67 -27 -93 -172
-166 -155 -79 -168 -88 -168 -127 0 -45 -21 -30 -58 43 -49 98 -53 93 118 172
122 56 160 88 160 132 0 38 -37 75 -75 75 -24 0 -220 -93 -247 -117 -10 -9
-18 -27 -18 -40 0 -55 -39 -12 -85 93 -32 73 -43 114 -30 114 3 0 19 -10 35
-22 l30 -22 125 62 c134 67 162 93 146 134 -28 73 -73 75 -208 9 -99 -48 -133
-78 -133 -113 0 -10 -7 -18 -16 -18 -16 0 -114 190 -114 223 0 23 15 22 39 -4
27 -29 59 -22 191 42 126 60 140 72 140 116 0 18 4 33 10 33 5 0 30 -25 54
-56z m-11663 -348 c42 -18 63 -40 84 -89 l15 -36 48 25 c38 21 56 25 98 21
133 -13 216 -112 201 -239 -9 -77 -58 -152 -119 -184 -31 -16 -95 -18 -131 -5
-47 18 -97 71 -108 116 l-11 43 -40 -14 c-52 -18 -121 -18 -157 1 -121 62
-129 244 -16 344 40 35 81 40 136 17z m12294 -500 c20 -38 32 -73 28 -77 -4
-4 -39 -16 -78 -27 -38 -11 -103 -30 -143 -42 l-73 -21 39 -43 c60 -65 75
-100 70 -162 -8 -91 -79 -155 -191 -170 -67 -10 -125 10 -203 70 -92 70 -110
98 -117 186 -3 41 -13 83 -23 97 -12 20 -13 27 -4 33 7 4 76 25 154 45 186 49
428 124 444 137 6 6 12 23 12 38 0 63 31 40 85 -64z m-12449 -52 c76 -69 196
-173 266 -231 116 -96 127 -109 121 -132 -9 -38 -22 -61 -35 -61 -7 0 -103 91
-215 202 -126 126 -206 199 -212 193 -11 -12 -71 -202 -71 -226 0 -9 18 -29
39 -43 36 -26 57 -53 47 -63 -5 -5 -183 45 -208 58 -14 7 -17 17 -12 37 14 56
105 376 110 384 12 19 37 2 170 -118z m24 -479 c232 -62 336 -188 271 -330
-28 -61 -73 -101 -131 -115 -121 -29 -412 55 -483 140 -81 96 -50 266 58 317
39 18 195 11 285 -12z m12234 -136 c52 -14 138 -101 154 -156 25 -84 9 -147
-52 -201 -60 -53 -121 -57 -144 -9 -7 15 -24 71 -38 124 -13 54 -28 101 -33
106 -13 13 -67 -18 -95 -55 -38 -51 -41 -80 -16 -159 13 -38 20 -72 17 -75
-26 -26 -102 70 -113 143 -9 64 1 156 21 187 33 50 151 104 230 105 17 1 48
-4 69 -10z m-12206 -411 c7 -7 12 -31 12 -55 l0 -43 43 0 c51 0 59 5 81 48 14
27 46 45 46 26 0 -19 -42 -320 -45 -323 -2 -2 -11 -1 -20 2 -9 4 -15 19 -15
42 0 46 -37 85 -79 85 -35 0 -44 -22 -60 -139 -5 -40 -15 -79 -21 -85 -23 -23
-274 140 -390 253 -58 57 -60 61 -60 110 0 37 4 53 15 57 8 4 88 -6 178 -20
216 -35 223 -35 237 8 6 19 16 37 23 40 22 8 43 6 55 -6z m12410 -143 c35 -94
34 -105 -15 -105 -33 0 -29 -11 22 -59 29 -27 45 -51 45 -67 0 -25 -5 -27 -89
-39 l-44 -6 6 56 c5 48 3 58 -16 76 -20 19 -30 20 -97 16 -98 -8 -177 -25
-195 -44 -8 -8 -15 -25 -15 -38 0 -24 -16 -42 -27 -31 -10 10 -32 156 -32 219
-1 62 8 71 33 32 14 -21 24 -25 69 -25 67 0 241 26 267 40 11 6 20 21 20 34 0
26 9 38 24 33 6 -2 26 -43 44 -92z m-12632 -486 c164 -84 307 -159 317 -167
11 -10 17 -29 17 -54 0 -31 -4 -38 -19 -38 -10 0 -79 37 -152 81 -249 152
-347 209 -358 209 -8 0 -11 -42 -11 -135 l0 -134 39 -11 c40 -10 66 -32 54
-43 -3 -4 -56 -7 -116 -7 l-110 0 6 215 c6 208 9 235 26 235 4 0 142 -68 307
-151z m12169 67 l30 -36 22 22 c30 29 74 27 113 -5 38 -33 45 -33 64 -6 26 38
68 59 119 59 56 0 95 -18 129 -58 49 -59 53 -82 40 -239 -13 -160 -22 -189
-52 -173 -10 6 -25 22 -32 38 -11 23 -21 28 -66 33 -93 12 -147 73 -159 182
-7 61 -18 87 -38 87 -25 0 -30 -23 -35 -168 -5 -142 -6 -144 -33 -168 -53 -45
-169 -29 -229 33 -53 54 -81 123 -86 213 -5 96 10 154 54 198 32 32 38 34 82
29 38 -4 52 -12 77 -41z"/>
<path d="M7483 12778 c-6 -7 -13 -59 -17 -115 l-7 -102 26 -7 c36 -9 96 10
124 40 27 29 39 102 22 134 -21 40 -128 76 -148 50z"/>
<path d="M7456 12483 c-7 -26 -18 -157 -18 -216 0 -57 9 -67 65 -67 85 0 127
49 127 150 0 101 -23 126 -132 144 -30 5 -37 3 -42 -11z"/>
<path d="M8634 12335 c-33 -22 -67 -112 -67 -175 0 -97 34 -136 113 -128 44 4
66 35 96 139 20 69 22 89 13 111 -23 56 -110 85 -155 53z"/>
<path d="M8058 12274 c-51 -27 -46 -106 6 -120 55 -13 90 19 99 94 l5 42 -41
0 c-23 -1 -54 -7 -69 -16z"/>
<path d="M9255 12158 c-30 -16 -55 -50 -55 -76 0 -18 10 -27 46 -42 78 -34 89
-34 102 -5 19 42 15 83 -13 110 -26 27 -49 31 -80 13z"/>
<path d="M4252 11924 c-46 -19 -56 -54 -36 -123 27 -94 99 -198 159 -229 26
-13 79 8 95 39 36 67 -74 288 -159 317 -19 7 -37 6 -59 -4z"/>
<path d="M3385 11349 c-51 -45 -48 -78 17 -174 29 -43 62 -84 75 -92 32 -21
83 -10 117 26 37 39 37 92 0 161 -60 110 -139 140 -209 79z"/>
<path d="M2420 10533 c-31 -11 -50 -37 -50 -67 0 -34 33 -96 51 -96 6 0 33 22
61 49 55 51 57 68 16 94 -30 19 -59 27 -78 20z"/>
<path d="M12451 9445 c-28 -13 -32 -19 -27 -40 9 -37 46 -94 68 -106 15 -8 25
-4 53 24 52 52 44 105 -16 126 -39 13 -36 14 -78 -4z"/>
<path d="M995 8644 c-51 -55 -38 -130 25 -153 24 -8 38 -5 80 16 28 14 58 36
67 50 14 21 14 27 2 50 -16 30 -80 62 -122 63 -18 0 -37 -10 -52 -26z"/>
<path d="M1364 8539 c-37 -11 -124 -89 -124 -111 0 -25 50 -79 87 -94 18 -8
50 -14 72 -14 33 0 46 7 75 36 46 48 51 67 29 111 -30 61 -83 88 -139 72z"/>
<path d="M12936 8020 c-43 -16 -84 -35 -92 -41 -19 -15 -18 -99 1 -126 34 -49
144 -55 231 -12 69 33 93 103 59 168 -26 51 -82 54 -199 11z"/>
<path d="M680 7600 c-29 -29 -26 -76 6 -105 53 -49 331 -121 437 -113 50 4 64
9 84 32 31 37 29 53 -11 91 -57 53 -289 115 -432 115 -51 0 -68 -4 -84 -20z"/>
<path d="M13184 7462 c-12 -8 8 -128 25 -145 26 -26 121 37 121 79 0 41 -42
74 -92 74 -24 0 -48 -4 -54 -8z"/>
<path d="M644 6975 c54 -48 214 -155 232 -155 20 0 34 42 34 101 0 27 -1 49
-2 49 -2 0 -55 9 -118 20 -63 11 -131 20 -150 20 l-35 -1 39 -34z"/>
<path d="M12871 6547 c-93 -48 -92 -226 2 -270 42 -20 77 -22 100 -4 13 9 19
34 24 109 l6 97 -40 41 c-44 43 -55 46 -92 27z"/>
<path d="M13280 6513 c-69 -25 -80 -119 -17 -142 33 -12 145 4 168 25 34 31
23 86 -22 109 -27 15 -99 19 -129 8z"/>
<path d="M6978 11081 c-98 -8 -111 -19 -116 -106 l-4 -65 -62 0 c-70 0 -77 -4
-100 -47 -12 -24 -16 -59 -16 -136 0 -170 22 -207 123 -207 84 0 63 -13 -26
-15 -84 -3 -130 -22 -152 -64 -9 -18 -28 -34 -49 -41 -44 -14 -83 -53 -91 -91
-6 -26 -11 -29 -44 -29 -53 0 -121 -38 -143 -80 -27 -49 -20 -130 13 -166 32
-36 93 -62 161 -70 52 -6 56 -9 62 -37 3 -16 6 -137 6 -269 l0 -240 -25 -30
c-34 -40 -34 -93 0 -132 31 -36 32 -59 1 -89 -13 -14 -29 -41 -35 -61 -5 -21
-21 -46 -35 -57 -34 -27 -50 -80 -41 -143 l7 -51 -219 -213 c-210 -206 -259
-249 -268 -241 -2 3 -7 72 -11 155 l-7 151 44 14 c35 11 48 22 62 51 16 32 17
43 7 73 -6 19 -25 45 -41 58 -44 34 -46 97 -6 180 41 87 47 183 18 297 -27
101 -74 217 -107 262 -64 89 -74 109 -74 149 0 31 -6 47 -28 69 -51 51 -183
53 -242 4 -25 -22 -30 -33 -30 -70 0 -37 -7 -54 -39 -97 -55 -72 -117 -206
-142 -306 -28 -112 -24 -221 13 -306 15 -33 29 -82 31 -108 5 -47 4 -49 -33
-72 -83 -52 -72 -149 21 -182 l49 -18 0 -66 c0 -149 -22 -424 -35 -449 -52
-94 -51 -86 -31 -145 16 -44 18 -69 12 -142 -4 -48 -14 -97 -21 -108 -8 -11
-197 -204 -419 -430 l-405 -410 1275 -1275 1274 -1275 1277 1277 1278 1278
-333 333 -334 334 -23 194 c-24 203 -60 547 -71 685 l-7 81 45 26 c29 17 50
38 58 59 8 18 25 44 38 58 13 14 28 34 32 45 11 31 -8 615 -22 649 -15 36 -61
56 -133 56 -46 0 -60 -4 -80 -25 -14 -13 -25 -30 -25 -38 0 -13 -40 -27 -76
-27 -7 0 -20 13 -29 30 -25 48 -61 60 -175 60 -112 0 -141 -10 -178 -59 -18
-24 -30 -31 -58 -31 -29 0 -38 6 -55 34 -30 51 -115 72 -186 45 -56 -21 -61
-51 -65 -406 l-3 -302 33 -34 c18 -19 41 -49 50 -68 10 -19 33 -43 55 -54 37
-20 37 -21 31 -65 -4 -25 -8 -47 -10 -49 -6 -7 -237 214 -310 297 l-72 83 5
52 c6 61 -12 107 -52 133 -13 8 -27 28 -30 44 -4 16 -20 46 -36 66 -16 20 -29
42 -29 48 0 6 14 24 30 39 40 38 41 92 3 137 l-27 32 2 249 c0 137 4 258 7
269 4 14 15 20 35 20 128 0 220 70 220 167 0 82 -74 153 -160 153 -33 0 -37 3
-50 43 -13 36 -23 46 -68 68 -30 14 -62 39 -72 54 -27 42 -63 56 -154 63 l-81
6 68 7 c98 8 101 13 105 166 6 208 -2 223 -110 223 l-71 0 6 38 c9 57 -5 105
-33 118 -33 15 -146 22 -242 15z m196 -77 c13 -13 15 -28 10 -80 -9 -88 -1
-96 89 -87 91 8 97 1 97 -120 0 -122 -4 -127 -94 -127 -93 0 -102 -8 -90 -87
l9 -58 107 -5 c119 -7 138 -16 138 -65 0 -31 1 -32 51 -38 67 -8 81 -20 77
-71 l-3 -41 75 -8 c110 -11 145 -46 125 -124 -8 -34 -75 -63 -147 -63 -102 0
-108 -19 -108 -377 l0 -272 31 -29 32 -30 -31 -27 c-17 -15 -34 -40 -37 -56
-7 -31 21 -105 48 -128 11 -8 17 -28 17 -52 0 -26 4 -39 14 -39 30 0 66 -41
66 -74 0 -43 -26 -66 -87 -74 l-48 -7 2 -270 c5 -668 62 -1502 134 -1975 15
-98 22 -110 62 -110 68 -1 161 -65 173 -119 11 -53 23 -69 56 -76 102 -22 178
-105 178 -193 0 -38 -45 -127 -75 -146 -51 -33 -167 -37 -1040 -34 -958 3
-895 -2 -948 74 -34 49 -45 115 -27 168 15 47 88 110 145 126 53 15 60 22 74
75 17 65 97 125 165 125 14 0 28 4 31 10 9 15 62 385 79 555 47 459 103 1748
77 1778 -6 8 -30 17 -54 20 -84 11 -106 94 -35 132 34 18 38 24 38 60 0 32 6
46 30 67 26 23 30 33 30 80 0 49 -4 58 -31 83 l-32 27 32 30 31 29 -1 257 c0
271 -6 344 -31 368 -8 9 -47 20 -87 24 -115 15 -148 42 -139 115 5 41 43 64
123 72 l70 8 3 42 c4 52 17 63 87 70 l57 6 -6 32 c-10 49 11 60 121 61 54 1
99 7 107 13 20 17 31 108 16 126 -9 11 -34 15 -91 15 -94 0 -91 -4 -87 145 l3
100 80 3 c99 3 105 9 97 98 -4 50 -2 68 9 75 8 5 60 9 116 9 80 0 105 -3 117
-16z m-1450 -1180 c18 -7 21 -45 5 -61 -7 -7 -2 -20 17 -42 30 -36 32 -16 -21
-267 -38 -180 -41 -242 -10 -200 8 10 31 90 51 177 43 181 48 193 69 165 23
-30 73 -168 95 -260 16 -68 18 -93 10 -136 -11 -57 -45 -123 -79 -154 -26 -24
-27 -42 -1 -49 27 -7 25 -21 -5 -41 -27 -18 -34 -46 -10 -46 8 0 22 -11 30
-24 9 -14 30 -29 46 -35 21 -7 29 -16 29 -34 0 -27 -16 -37 -60 -37 -54 0 -55
-7 -41 -287 12 -252 23 -355 40 -361 4 -1 16 -9 26 -16 17 -13 17 -15 -3 -58
-12 -24 -22 -62 -22 -85 0 -78 83 -622 111 -725 5 -21 15 -38 22 -38 51 -2
151 -21 164 -32 9 -7 24 -31 34 -54 15 -33 26 -43 58 -53 59 -17 91 -61 91
-123 0 -45 -4 -54 -39 -89 l-39 -39 -603 0 c-332 0 -621 3 -642 6 -74 13 -124
98 -97 164 16 38 61 76 100 85 23 5 34 16 48 48 26 58 40 67 124 78 40 6 78
16 84 22 22 22 124 637 124 747 0 24 -8 64 -17 89 -16 43 -16 44 5 61 12 10
26 37 31 61 17 71 37 557 24 577 -6 10 -28 19 -56 22 -81 10 -90 51 -16 75 19
7 36 20 37 29 2 9 15 21 28 26 31 12 31 28 -2 40 -31 12 -29 44 4 48 12 2 22
5 22 8 0 3 -16 20 -35 39 -61 62 -70 88 -70 205 0 85 5 119 24 175 33 97 70
168 130 249 54 73 56 78 42 105 -11 19 -4 35 19 44 21 8 105 8 124 1z m2400
-430 c3 -9 6 -24 6 -34 0 -29 31 -40 115 -40 87 0 115 11 115 44 0 40 20 47
126 44 l99 -3 11 -33 c17 -52 22 -54 125 -45 l93 8 9 38 c9 35 11 37 51 37 23
0 47 -5 54 -12 9 -9 12 -69 12 -207 0 -108 5 -238 10 -289 11 -107 5 -127 -43
-140 -20 -6 -31 -14 -28 -23 14 -48 -5 -70 -71 -84 -26 -5 -28 -9 -28 -53 0
-111 65 -723 122 -1146 l32 -238 38 -24 c21 -13 47 -42 58 -65 15 -29 33 -45
63 -58 110 -48 132 -146 50 -224 l-30 -28 -641 3 -640 3 -26 24 c-31 29 -51
89 -42 124 9 39 52 83 96 101 28 11 45 27 60 56 11 22 38 51 60 65 22 14 42
35 45 48 29 123 164 1374 151 1396 -3 5 -21 12 -40 15 -48 9 -72 39 -58 71 11
23 9 25 -20 33 -46 12 -72 50 -58 86 6 16 10 129 10 285 0 186 3 260 12 269
18 18 95 15 102 -4z m-1764 -800 c-96 -96 -229 -226 -295 -287 l-120 -111 114
119 c150 157 465 464 471 458 2 -2 -74 -83 -170 -179z m1458 -36 c184 -184
263 -268 250 -268 -2 0 -111 108 -243 240 -132 132 -236 240 -230 240 5 0 105
-96 223 -212z m-33 -296 c-143 -141 -171 -156 -185 -102 -4 14 -10 122 -14
241 l-7 216 27 33 27 32 144 -144 144 -143 -136 -133z m-1272 384 l27 -25 -5
-128 c-13 -322 -15 -344 -30 -366 -13 -19 -13 -24 0 -44 13 -19 14 -53 4 -250
-6 -125 -14 -241 -18 -258 l-7 -30 -143 140 -142 139 143 143 143 143 -143
143 -142 142 137 138 c76 75 141 137 144 137 3 0 18 -11 32 -24z m1278 -694
l131 -127 -141 -138 c-77 -76 -144 -136 -149 -133 -5 3 -15 120 -22 261 -13
274 -11 297 32 274 10 -6 78 -67 149 -137z m-1692 -227 c-91 -89 -92 -90 -100
-63 -15 58 -42 314 -35 342 l7 29 110 -109 110 -109 -92 -90z m1937 143 c-4
-35 -10 -80 -13 -101 l-6 -38 -38 37 c-22 21 -39 44 -39 51 0 13 87 113 98
113 2 0 2 -28 -2 -62z m-2726 -314 c0 -4 -123 -131 -273 -283 -151 -152 -279
-287 -286 -300 -13 -23 24 -61 1148 -1185 l1162 -1161 1159 1165 c638 641
1160 1169 1160 1174 0 5 -78 88 -173 185 -95 97 -183 190 -197 206 -13 17 72
-65 190 -182 l213 -211 -61 -69 c-111 -125 -2278 -2283 -2291 -2283 -18 0
-2351 2331 -2351 2348 0 12 582 602 594 602 3 0 6 -3 6 -6z m1165 -261 c-9
-120 -20 -234 -24 -253 l-7 -35 -28 42 c-15 23 -45 53 -65 66 -39 26 -131 127
-131 144 0 13 259 267 266 260 3 -3 -2 -104 -11 -224z m1344 54 c59 -60 92
-101 88 -110 -7 -19 -227 -220 -234 -213 -6 5 -42 396 -43 459 l0 39 48 -40
c26 -22 89 -83 141 -135z m-2547 18 l-18 -90 -58 -7 c-32 -4 -73 -16 -92 -27
-31 -19 -44 -18 -44 1 0 17 225 240 228 226 1 -7 -6 -53 -16 -103z m838 -40
l54 -55 -39 0 c-22 0 -45 4 -51 8 -13 8 -35 102 -25 102 4 0 31 -25 61 -55z
m2950 -82 c0 -16 -3 -16 -34 -2 -23 11 -36 35 -36 68 0 9 14 2 35 -19 19 -19
35 -40 35 -47z m-1315 -431 c9 -12 37 -33 63 -46 26 -13 63 -40 81 -60 l35
-36 -37 -38 c-58 -59 -85 -72 -127 -58 l-35 11 -16 115 c-9 63 -19 138 -22
165 l-7 50 24 -40 c14 -22 32 -50 41 -63z m-1334 -92 c-11 -73 -23 -136 -28
-140 -4 -4 -22 -11 -39 -14 -27 -6 -37 -1 -82 42 -29 26 -52 55 -52 64 0 21
49 62 111 93 26 14 60 40 76 59 15 19 29 34 30 32 2 -2 -6 -63 -16 -136z
m-830 -11 l32 -41 -141 -141 -142 -142 -142 142 -142 143 39 40 39 40 212 0
212 0 33 -41z m574 1 l39 -40 -142 -143 -142 -142 -142 142 -142 143 39 40 39
40 206 0 206 0 39 -40z m2300 0 l39 -40 -142 -143 -142 -142 -142 142 -142
143 39 40 39 40 206 0 206 0 39 -40z m580 0 l39 -40 -142 -143 -142 -142 -140
140 c-77 77 -140 142 -140 145 0 4 15 23 34 43 l34 37 209 0 209 0 39 -40z
m-3075 -380 l48 -40 -24 -44 c-47 -85 -42 -179 15 -266 l29 -45 -61 -63 -62
-62 -142 142 -143 143 137 137 c76 76 142 138 146 138 5 0 31 -18 57 -40z
m2403 -98 l137 -137 -143 -143 -142 -142 -60 60 -59 60 21 22 c72 79 88 195
38 286 l-28 53 38 39 c22 22 44 40 50 40 5 0 72 -62 148 -138z m-1856 -389
l-27 -28 -27 28 -28 27 55 0 55 0 -28 -27z m587 21 c25 -10 0 -34 -34 -34 -31
0 -59 25 -38 33 19 8 54 8 72 1z m582 -6 c7 -11 -21 -38 -41 -38 -20 0 -48 27
-41 38 4 7 22 12 41 12 19 0 37 -5 41 -12z m-1049 -195 c73 -76 133 -140 133
-143 0 -3 -63 -68 -140 -145 l-140 -140 -140 140 -140 140 142 142 c79 79 145
143 147 143 3 0 65 -62 138 -137z m572 1 c72 -74 131 -141 131 -147 0 -17
-252 -267 -268 -267 -14 0 -273 243 -281 262 -3 10 267 288 280 288 4 0 66
-61 138 -136z m579 -7 l142 -142 -140 -140 -140 -140 -141 142 -142 141 132
141 c73 78 136 141 139 141 4 0 71 -64 150 -143z m-575 -565 c75 -76 137 -143
137 -148 0 -5 -63 -72 -140 -149 l-140 -140 -140 140 c-77 77 -140 144 -140
149 0 10 270 286 280 286 3 0 68 -62 143 -138z"/>
<path d="M3830 6051 c-69 -45 -132 -85 -140 -90 -34 -21 3 -22 65 -1 36 12 69
19 73 15 4 -4 7 -134 6 -290 -1 -327 -4 -345 -63 -346 -20 0 -45 -4 -55 -8
-18 -7 -18 -8 5 -14 34 -9 320 -7 344 3 19 7 18 8 -5 14 -14 3 -36 7 -50 8
-16 2 -26 11 -31 28 -4 14 -8 140 -9 280 -2 140 -5 306 -9 368 l-6 114 -125
-81z"/>
<path d="M4440 6121 c-44 -14 -104 -48 -126 -73 -99 -109 -71 -283 56 -349 58
-30 240 -2 240 37 0 10 -6 11 -26 4 -14 -6 -46 -10 -71 -10 -39 0 -50 5 -83
38 -104 103 -57 312 70 312 32 0 48 -7 80 -36 58 -52 74 -114 68 -265 -4 -115
-5 -120 -48 -205 -34 -71 -61 -106 -132 -178 -48 -49 -85 -92 -82 -95 15 -16
127 62 216 149 79 78 103 109 133 171 60 126 64 292 11 384 -56 95 -198 149
-306 116z"/>
<path d="M10267 6100 c-107 -27 -167 -97 -167 -194 0 -50 34 -104 93 -149 20
-15 37 -32 37 -36 0 -4 -23 -22 -51 -41 -156 -101 -165 -295 -16 -372 33 -17
64 -23 144 -26 115 -5 160 9 222 70 121 118 87 264 -89 379 l-24 16 42 27 c91
57 129 174 80 246 -34 50 -94 80 -170 85 -35 2 -80 0 -101 -5z m118 -54 c85
-36 87 -164 3 -244 l-35 -33 -49 33 c-59 40 -94 90 -94 135 0 94 85 146 175
109z m-24 -391 c119 -74 152 -195 77 -281 -105 -120 -293 -6 -257 155 5 25 19
60 30 78 20 32 74 83 88 83 3 0 32 -16 62 -35z"/>
<path d="M9458 6094 c-3 -5 -8 -52 -12 -104 -5 -85 -4 -93 9 -75 8 11 20 28
28 38 7 11 33 23 58 28 61 11 306 11 314 -1 3 -5 -25 -67 -63 -137 -118 -217
-232 -483 -232 -538 0 -35 14 -38 62 -17 60 27 77 50 88 118 18 109 117 374
214 573 28 57 42 99 37 104 -12 12 -496 23 -503 11z"/>
<path d="M2960 5075 l0 -35 1180 0 1180 0 0 35 0 35 -1180 0 -1180 0 0 -35z"/>
<path d="M8828 5073 c-26 -4 -43 -27 -32 -44 3 -5 487 -9 1185 -9 l1179 0 0
30 0 30 -1152 -1 c-634 -1 -1165 -4 -1180 -6z"/>
<path d="M4045 3977 c-8 -13 -81 -187 -161 -388 -168 -419 -207 -504 -237
-524 -32 -20 -116 -27 -157 -12 -61 21 -60 21 -58 463 3 430 4 434 54 434 12
0 25 4 28 9 12 18 -201 27 -314 12 -55 -7 -53 -17 5 -23 44 -4 52 -32 60 -210
l7 -158 -251 0 -251 0 1 118 c1 148 11 231 30 243 8 5 24 9 37 9 12 0 22 4 22
9 0 18 -225 27 -325 12 l-50 -7 48 -14 c29 -7 53 -21 60 -34 14 -24 18 -770 4
-819 -5 -20 -20 -34 -48 -47 l-41 -18 52 -7 c29 -4 119 -4 199 0 133 7 142 9
104 19 -24 6 -53 21 -65 34 -21 21 -23 31 -26 220 l-4 199 77 6 c43 4 156 7
252 7 l175 0 -7 -192 c-9 -227 -16 -259 -64 -274 -30 -10 -21 -12 80 -17 147
-9 380 -9 499 0 85 6 90 7 59 17 -50 16 -50 54 1 193 l42 114 152 -3 151 -3
49 -138 c40 -111 47 -142 38 -157 -9 -15 -6 -18 26 -24 61 -10 270 -7 277 4 3
6 -3 10 -14 10 -57 0 -100 49 -161 185 -18 39 -83 195 -146 347 -119 292 -179
428 -188 428 -3 0 -12 -10 -21 -23z m5 -274 c18 -40 90 -255 90 -270 0 -10
-28 -13 -116 -13 -89 0 -115 3 -111 13 2 6 28 76 57 155 29 78 56 142 60 142
4 0 13 -12 20 -27z"/>
<path d="M1025 3986 c-5 -3 -26 -7 -46 -10 -52 -9 -121 -59 -148 -106 -32 -57
-38 -142 -16 -211 16 -48 34 -70 166 -199 153 -150 179 -187 179 -256 0 -31
-8 -45 -49 -85 -44 -45 -52 -49 -97 -49 -109 0 -167 38 -199 128 -10 26 -20
54 -23 62 -9 27 -23 -73 -20 -143 3 -46 8 -71 18 -78 61 -38 260 -38 348 1 63
27 128 97 139 149 5 20 8 70 7 111 -1 113 -24 148 -193 293 -158 135 -184 174
-162 246 36 122 207 129 286 13 14 -20 25 -45 25 -54 0 -10 4 -18 9 -18 13 0
25 102 17 144 -4 19 -13 40 -22 47 -14 11 -196 24 -219 15z"/>
<path d="M1860 3979 c-237 -31 -423 -275 -395 -519 15 -137 58 -224 151 -309
107 -98 244 -141 448 -141 140 0 211 14 231 44 19 29 37 116 33 163 l-3 38
-26 -50 c-50 -95 -100 -119 -244 -119 -92 -1 -105 2 -167 31 -178 84 -273 282
-241 501 29 196 131 297 314 309 188 13 308 -51 334 -179 3 -16 9 -28 14 -28
15 0 21 41 21 141 0 112 12 102 -135 119 -104 11 -241 11 -335 -1z"/>
<path d="M5005 3980 c-172 -21 -326 -140 -385 -298 -30 -78 -37 -198 -16 -285
41 -173 151 -293 328 -354 59 -20 99 -26 205 -30 176 -7 239 1 274 36 30 30
52 115 47 178 l-3 38 -36 -65 c-53 -96 -73 -105 -234 -105 -124 0 -133 1 -188
30 -74 37 -146 115 -189 203 -32 66 -33 69 -33 207 0 131 2 144 27 197 33 72
97 141 156 170 41 20 62 23 167 23 111 0 124 -2 171 -27 67 -35 121 -98 129
-151 11 -64 24 -24 31 96 7 98 6 105 -13 116 -46 24 -308 37 -438 21z"/>
<path d="M8890 3980 c-140 -4 -265 -8 -278 -9 -35 -2 -15 -21 22 -21 21 0 40
-8 52 -21 18 -20 19 -41 18 -403 -1 -425 -4 -455 -55 -476 -48 -20 -124 8
-195 72 -62 57 -260 290 -277 325 -9 20 -4 29 37 73 26 28 59 76 74 108 68
146 1 304 -140 330 -68 13 -419 22 -478 13 -48 -8 -46 -9 35 -26 16 -4 27 -15
32 -33 10 -35 10 -789 0 -824 -5 -19 -18 -31 -43 -40 l-37 -13 39 -7 c49 -9
214 -8 279 1 49 6 49 7 17 14 -18 3 -44 18 -57 31 -25 25 -25 28 -25 186 l0
160 63 0 63 0 83 -116 c94 -130 190 -237 235 -262 27 -14 84 -17 432 -20 l401
-4 12 32 c6 18 11 63 11 99 l0 65 -22 -44 c-31 -60 -77 -82 -172 -82 -76 0
-128 17 -140 47 -3 9 -6 96 -6 192 l0 176 101 -6 c114 -6 152 -23 157 -70 2
-15 7 -27 11 -27 13 0 21 54 21 132 l0 69 -32 -17 c-22 -12 -68 -18 -145 -22
l-113 -5 0 178 0 178 108 -5 c59 -2 117 -10 129 -16 12 -7 27 -28 33 -47 6
-19 15 -35 20 -35 9 0 19 55 23 130 2 39 -1 45 -18 46 -11 0 -135 -3 -275 -6z
m-830 -85 c42 -21 88 -80 101 -127 16 -59 6 -168 -18 -210 -33 -57 -75 -78
-159 -78 l-74 0 0 208 c0 153 3 211 13 221 15 15 96 7 137 -14z"/>
<path d="M10569 3988 c-1 -2 -5 -192 -9 -423 -5 -262 -12 -434 -19 -457 -13
-42 -43 -68 -81 -69 l-25 -1 25 -8 c14 -4 81 -8 150 -8 69 0 136 4 150 8 24 8
24 8 -6 9 -43 1 -73 28 -84 76 -7 30 -29 461 -30 594 0 7 159 -147 353 -343
193 -196 357 -356 363 -356 7 0 15 8 19 18 3 9 10 206 14 437 8 455 11 477 61
483 108 15 -77 39 -205 27 -74 -7 -96 -25 -30 -25 57 0 66 -25 77 -218 5 -92
7 -232 6 -310 l-3 -144 -290 293 c-159 162 -318 322 -352 356 -53 54 -79 72
-84 61z"/>
<path d="M5668 3973 c-54 -5 -66 -23 -15 -23 43 0 55 -10 67 -51 11 -39 12
-683 1 -773 -8 -63 -25 -85 -70 -87 -14 -1 -3 -5 24 -9 61 -10 279 -10 320 -1
l30 7 -40 7 c-74 12 -78 20 -86 158 -4 68 -8 166 -8 217 l-1 92 173 0 c96 0
208 -3 250 -6 l77 -7 0 -116 c0 -64 -3 -161 -7 -215 l-6 -99 -41 -16 -41 -16
30 -6 c40 -9 213 -8 300 1 39 4 58 8 44 8 -14 1 -40 7 -57 13 -54 19 -57 41
-57 459 0 401 3 430 50 438 118 19 -112 41 -263 26 -60 -7 -77 -24 -24 -24 15
0 33 -4 41 -9 19 -12 29 -95 30 -243 l1 -118 -251 0 -252 0 6 160 c6 181 15
210 67 210 16 0 31 4 34 9 10 16 -187 25 -326 14z"/>
<path d="M6902 3973 c-53 -4 -65 -23 -13 -23 15 0 36 -6 47 -14 18 -14 19 -30
19 -434 0 -457 2 -444 -58 -459 -54 -13 99 -23 243 -16 124 6 124 7 70 17
l-55 11 -13 50 c-7 28 -15 128 -19 224 l-6 174 110 -5 c123 -6 151 -16 160
-59 5 -26 23 -42 23 -20 0 5 5 44 11 85 12 87 7 103 -24 81 -16 -11 -51 -15
-144 -15 l-123 0 0 164 0 165 46 7 c64 9 181 -2 208 -20 13 -8 29 -28 36 -45
7 -17 16 -31 20 -31 11 0 24 145 16 159 -7 10 -419 13 -554 4z"/>
<path d="M9388 3973 c-55 -5 -66 -23 -14 -23 69 0 68 3 86 -430 5 -140 15
-272 20 -292 15 -51 78 -128 136 -166 69 -44 127 -55 247 -50 83 4 114 10 159
30 71 33 127 89 164 164 28 57 28 60 37 313 13 425 15 431 78 431 16 0 29 4
29 9 0 14 -160 24 -245 16 -41 -4 -73 -11 -69 -16 3 -5 16 -9 28 -9 13 0 34
-9 47 -19 l24 -19 -2 -314 c0 -206 -5 -329 -13 -358 -17 -64 -51 -104 -116
-136 -157 -77 -321 4 -354 174 -5 29 -11 178 -12 330 -3 304 2 334 52 340 141
17 -106 39 -282 25z"/>
<path d="M11740 3971 c-76 -6 -82 -13 -23 -25 17 -4 37 -14 44 -22 20 -24 30
-280 21 -566 -8 -291 -10 -297 -70 -314 l-27 -7 25 -7 c37 -12 471 -11 568 0
376 43 549 534 282 801 -69 69 -138 106 -237 125 -83 16 -462 26 -583 15z
m411 -65 c258 -46 401 -254 361 -528 -26 -179 -114 -267 -296 -299 -124 -21
-236 4 -256 57 -6 15 -10 185 -10 399 l0 374 23 4 c44 8 103 6 178 -7z"/>
<path d="M12885 3970 c-51 -6 -46 -17 10 -22 51 -5 54 -31 54 -438 1 -201 -2
-383 -6 -404 -5 -34 -11 -41 -47 -55 l-41 -16 45 -7 c25 -3 152 -7 282 -7 198
-1 239 1 252 14 17 17 29 84 24 135 l-3 35 -23 -43 c-32 -60 -71 -75 -184 -70
-127 5 -122 -3 -126 225 l-3 186 103 -7 c111 -8 148 -22 148 -59 0 -20 18 -59
21 -47 4 15 24 210 21 210 -2 0 -16 -7 -33 -15 -19 -10 -72 -18 -144 -22
l-115 -6 0 176 0 177 88 -1 c113 0 151 -14 177 -61 11 -21 23 -38 26 -38 9 0
19 65 19 123 l0 47 -247 -2 c-137 0 -270 -4 -298 -8z"/>
<path d="M6454 2393 c3 -32 8 -116 11 -188 18 -377 45 -749 60 -807 63 -246
263 -450 506 -515 86 -23 243 -22 329 1 128 35 233 99 327 200 112 119 176
260 193 425 9 78 46 713 51 871 l3 65 -743 3 -743 2 6 -57z m806 -67 c0 -25
-12 -46 -26 -46 -18 0 -18 14 1 30 22 18 12 23 -19 9 -31 -15 -32 -24 -6 -46
11 -10 20 -28 20 -42 0 -55 -128 -129 -152 -87 -6 11 -18 15 -36 11 -22 -4
-21 -3 5 6 37 13 47 32 32 60 -5 11 -9 39 -7 62 3 39 5 42 33 44 29 3 29 2 7
-9 -30 -15 -24 -42 9 -46 19 -2 31 4 43 23 26 39 96 62 96 31z m-227 -46 c-15
-22 -29 -38 -32 -35 -2 3 0 10 6 16 6 6 9 18 6 26 -6 15 12 33 34 33 7 0 1
-17 -14 -40z m-265 -2 c-3 -7 -11 -13 -18 -13 -7 0 -15 6 -17 13 -3 7 4 12 17
12 13 0 20 -5 18 -12z m-27 -39 c16 -8 25 -7 40 7 18 17 19 16 19 -19 0 -31 8
-43 60 -90 33 -29 60 -58 60 -64 0 -5 -9 -18 -20 -28 -20 -18 -21 -18 -45 5
-13 12 -36 40 -51 62 -15 21 -29 36 -31 34 -7 -6 43 -101 61 -115 9 -8 16 -18
16 -24 0 -21 -40 28 -67 83 -25 49 -33 57 -78 72 l-50 16 43 1 c34 1 42 5 42
20 0 10 -9 30 -20 44 -11 14 -20 29 -20 34 0 4 5 0 11 -9 5 -10 19 -23 30 -29z
m559 12 c5 -11 10 -31 10 -44 0 -14 7 -30 15 -37 24 -20 17 -67 -25 -166 -22
-52 -40 -104 -40 -116 0 -48 22 -97 56 -127 50 -44 187 -142 237 -169 25 -14
32 -21 17 -17 -14 4 -32 8 -40 9 -9 1 -22 6 -29 10 -11 7 -13 2 -8 -25 3 -19
0 -62 -6 -97 -9 -56 -9 -64 9 -85 11 -12 26 -31 34 -42 14 -18 14 -19 -2 -6
-22 17 -23 3 -2 -28 17 -23 16 -67 -2 -162 -10 -50 8 -27 33 44 l22 62 -5 -55
c-8 -87 -13 -100 -33 -100 -11 0 -29 -15 -41 -35 -20 -32 -60 -65 -60 -49 0 3
9 19 21 35 l20 29 -27 0 c-27 0 -27 1 -8 14 18 14 17 15 -16 30 l-35 15 43 1
c41 0 42 1 42 33 0 64 -21 111 -69 158 -27 25 -61 49 -77 53 -61 15 -71 29
-78 108 -8 76 -25 108 -57 108 -9 0 -19 -6 -22 -12 -7 -20 -116 60 -159 117
-44 58 -47 75 -15 75 31 0 67 11 67 20 0 14 -94 19 -105 5 -6 -8 -49 -18 -100
-24 -87 -10 -91 -12 -122 -48 l-33 -38 10 35 c6 19 10 36 10 38 0 2 -21 0 -47
-3 l-48 -6 25 20 c14 11 28 21 33 21 16 0 6 21 -15 30 -33 13 -7 12 30 -1 30
-10 35 -8 101 48 38 32 70 65 70 75 1 15 84 78 103 78 4 0 8 5 8 10 0 6 -15 4
-35 -5 -20 -8 -33 -10 -30 -5 13 21 87 50 150 59 94 14 156 56 175 120 7 20
13 42 15 49 6 18 23 15 35 -7z m-596 -43 c-3 -4 -12 -8 -20 -8 -12 0 -12 4 -2
20 8 13 15 16 19 8 4 -7 5 -16 3 -20z m346 7 c0 -14 -4 -25 -10 -25 -11 0 -14
33 -3 43 11 11 13 8 13 -18z m-115 -25 c3 -5 1 -10 -4 -10 -6 0 -11 5 -11 10
0 6 2 10 4 10 3 0 8 -4 11 -10z m-275 -380 c0 -5 -4 -10 -10 -10 -5 0 -10 5
-10 10 0 6 5 10 10 10 6 0 10 -4 10 -10z m40 -77 c0 -5 -4 -14 -8 -21 -7 -9
-13 -8 -27 8 -18 20 -18 20 8 20 15 0 27 -3 27 -7z m840 -194 c0 -5 -4 -9 -10
-9 -5 0 -10 7 -10 16 0 8 5 12 10 9 6 -3 10 -10 10 -16z m68 -22 c2 -10 -3
-17 -12 -17 -18 0 -29 16 -21 31 9 14 29 6 33 -14z m-409 -16 c22 -22 41 -80
41 -123 0 -21 -5 -28 -20 -28 -11 0 -26 -12 -34 -27 -11 -22 -32 -34 -96 -56
-44 -15 -85 -25 -91 -22 -14 9 -11 -11 4 -23 9 -8 31 -4 80 13 38 14 73 25 80
25 24 -1 -109 -51 -150 -57 -26 -3 -51 -15 -64 -29 -35 -37 -43 -28 -12 13
l28 36 -55 -6 c-61 -7 -53 5 15 24 l40 11 -28 14 c-36 19 -34 27 3 19 23 -5
42 1 84 24 76 44 82 53 62 96 -15 30 -15 39 -4 62 24 50 84 67 117 34z m375
-38 c9 -23 -11 -14 -28 12 -17 25 -16 25 3 13 11 -7 23 -18 25 -25z m121 26
c4 -6 5 -13 2 -16 -8 -7 -47 7 -47 18 0 13 37 11 45 -2z m-45 -66 c0 -12 -31
-19 -42 -8 -3 3 -3 17 0 31 4 24 5 24 23 8 11 -9 19 -23 19 -31z m90 -3 c9
-16 7 -22 -6 -27 -20 -7 -48 8 -52 28 -4 24 46 22 58 -1z m30 -55 c-7 -8 -17
-15 -23 -15 -6 0 -2 8 9 19 22 21 33 19 14 -4z m-79 -5 c32 -26 3 -27 -31 0
-19 15 -21 20 -9 20 9 0 27 -9 40 -20z m-480 -74 c-6 -14 -15 -26 -21 -26 -6
0 -4 13 5 31 19 36 30 33 16 -5z m-316 -25 c-2 -5 -14 -11 -26 -14 -15 -4 -19
-2 -15 10 3 8 6 19 6 24 0 6 8 5 20 -1 11 -6 18 -15 15 -19z m15 -70 c0 -14
-18 -23 -30 -16 -6 4 -8 11 -5 16 8 12 35 12 35 0z m490 -85 c0 -3 -4 -8 -10
-11 -5 -3 -10 -1 -10 4 0 6 5 11 10 11 6 0 10 -2 10 -4z m30 -66 c0 -5 -2 -10
-4 -10 -3 0 -8 5 -11 10 -3 6 -1 10 4 10 6 0 11 -4 11 -10z"/>
<path d="M7257 2141 c-4 -36 -15 -81 -25 -100 -14 -30 -22 -36 -46 -34 l-29 2
22 -20 c12 -12 21 -32 21 -49 0 -17 5 -30 10 -30 6 0 10 15 10 34 0 18 11 53
24 77 28 52 39 112 27 154 -7 26 -8 22 -14 -34z"/>
<path d="M6945 1840 c-10 -11 -29 -20 -43 -20 -48 0 -152 -22 -152 -32 0 -7
16 -8 43 -4 23 3 67 9 97 13 37 4 60 13 72 27 31 38 16 52 -17 16z"/>
<path d="M2057 1934 c-3 -4 -1 -16 6 -28 17 -29 17 -418 0 -464 -15 -40 -8
-44 67 -40 l52 3 -23 29 c-20 25 -23 43 -27 137 l-5 109 158 0 157 0 -4 -125
c-2 -91 -7 -128 -16 -134 -18 -11 50 -22 89 -14 25 5 26 7 14 20 -12 12 -15
55 -15 233 0 120 4 230 9 244 9 22 7 25 -20 31 -16 4 -43 4 -60 0 -28 -6 -29
-8 -15 -24 12 -13 16 -40 16 -109 l0 -92 -104 0 c-57 0 -124 3 -150 6 l-46 7
0 87 c0 65 4 91 15 100 8 7 12 16 9 21 -6 10 -97 12 -107 3z"/>
<path d="M8184 1924 c20 -48 26 -101 26 -254 0 -153 -6 -206 -26 -254 -7 -18
-3 -19 100 -13 113 7 134 14 178 55 65 60 57 149 -18 216 l-43 39 21 30 c26
37 36 120 17 143 -24 29 -79 45 -172 51 -86 6 -90 5 -83 -13z m161 -18 c27
-12 36 -23 45 -57 23 -85 -6 -139 -77 -139 l-43 0 0 93 c0 118 9 130 75 103z
m39 -247 c36 -29 66 -90 66 -137 0 -53 -33 -83 -98 -90 -71 -6 -82 12 -82 145
l0 103 44 0 c29 0 52 -7 70 -21z"/>
<path d="M10732 1852 c-99 -36 -156 -117 -155 -223 1 -67 27 -123 77 -167 44
-39 100 -55 191 -56 97 -1 121 7 134 46 13 38 6 50 -14 21 -49 -71 -221 -47
-285 39 -108 146 -31 328 137 328 68 0 113 -19 146 -61 l27 -34 0 51 c0 62 1
61 -117 69 -71 5 -98 2 -141 -13z"/>
<path d="M2740 1854 c-13 -4 -15 -37 -15 -224 l0 -220 112 0 c61 0 114 3 116
8 2 4 7 20 11 37 l8 30 -26 -28 c-20 -22 -34 -27 -71 -27 -70 0 -85 21 -85
120 l0 80 60 0 c46 0 62 -4 67 -16 5 -13 7 -13 14 -2 5 7 9 21 9 30 0 14 -12
18 -72 20 l-73 3 -3 76 c-3 72 -2 77 20 83 39 10 83 7 104 -9 28 -21 36 -18
32 13 l-3 27 -95 2 c-52 0 -102 -1 -110 -3z"/>
<path d="M3377 1853 c-15 -4 -16 -7 -5 -20 18 -22 18 -368 0 -399 -10 -19 -9
-23 11 -28 40 -11 191 -6 216 7 13 6 28 22 32 35 10 27 -2 29 -26 2 -14 -15
-31 -20 -70 -20 -88 0 -89 2 -94 199 -2 142 0 175 12 195 15 23 15 24 -15 30
-32 6 -33 6 -61 -1z"/>
<path d="M3759 1854 c-14 -4 -15 -12 -8 -42 11 -48 11 -316 0 -364 -9 -37 -8
-38 26 -44 51 -10 151 3 187 24 17 10 41 34 54 53 33 48 25 93 -28 142 -22 21
-40 41 -40 44 0 4 9 25 20 48 25 52 13 98 -32 121 -30 15 -149 27 -179 18z
m159 -50 c41 -46 19 -126 -40 -138 -47 -9 -63 12 -63 82 0 81 7 95 47 87 18
-4 43 -18 56 -31z m26 -203 c26 -27 31 -39 31 -81 0 -61 -17 -81 -76 -87 -64
-7 -78 8 -86 88 -3 37 -3 79 1 94 7 26 10 27 53 22 33 -3 54 -13 77 -36z"/>
<path d="M4173 1852 c-17 -5 -20 -11 -13 -22 5 -8 10 -96 10 -195 0 -146 -3
-185 -15 -202 -15 -21 -14 -23 10 -29 14 -3 41 -3 61 1 34 6 35 7 20 24 -11
13 -16 37 -16 88 0 38 2 72 6 75 3 3 22 2 42 -3 28 -6 55 -27 112 -88 75 -81
107 -101 158 -101 27 1 26 1 -13 32 -46 37 -105 98 -143 146 l-25 33 34 47
c47 65 46 110 -2 158 -35 35 -39 36 -120 40 -46 2 -94 0 -106 -4z m172 -44
c44 -39 46 -127 5 -168 -27 -27 -95 -28 -110 -1 -5 11 -10 58 -10 105 l0 86
44 0 c32 0 52 -6 71 -22z"/>
<path d="M4719 1840 c-51 -27 -106 -92 -120 -142 -16 -60 -5 -131 29 -192 42
-73 75 -90 192 -94 94 -4 96 -4 145 29 126 86 142 269 32 366 -20 18 -53 37
-74 42 -61 17 -163 13 -204 -9z m191 -21 c118 -67 135 -284 27 -361 -36 -26
-112 -35 -160 -19 -82 28 -135 134 -121 243 17 129 145 198 254 137z"/>
<path d="M5538 1854 c-4 -3 0 -17 8 -32 10 -20 14 -67 14 -172 l0 -144 -173
172 c-95 95 -178 172 -184 172 -6 0 -12 -74 -16 -202 -4 -112 -8 -212 -9 -223
-2 -16 4 -21 30 -23 19 -2 41 -1 49 3 14 5 14 8 -2 25 -13 14 -18 42 -21 107
-3 48 -6 119 -8 157 l-3 68 178 -178 c98 -98 182 -175 186 -170 4 4 10 98 13
209 3 111 8 207 12 213 10 15 -61 32 -74 18z"/>
<path d="M6117 1853 c-3 -5 -2 -15 4 -23 5 -8 9 -85 9 -170 l0 -154 -169 172
c-92 95 -173 172 -179 172 -17 0 -22 -41 -22 -215 0 -126 -4 -177 -14 -197
-17 -32 -8 -38 62 -38 l45 0 -24 26 c-23 24 -24 32 -27 181 l-3 155 175 -177
c96 -97 179 -174 184 -171 5 3 12 94 15 203 4 109 8 207 9 218 2 16 -4 21 -29
23 -17 2 -33 -1 -36 -5z"/>
<path d="M8657 1853 c-2 -4 0 -46 5 -93 11 -97 3 -309 -12 -324 -6 -6 -10 -13
-10 -17 0 -10 62 -18 93 -12 25 5 26 6 10 18 -16 12 -18 32 -18 182 0 92 2
186 5 208 5 40 5 40 -32 43 -20 2 -38 -1 -41 -5z"/>
<path d="M9333 1853 c-20 -4 -21 -7 -12 -24 7 -13 9 -91 7 -220 l-3 -199 106
0 c105 0 129 7 129 38 0 10 -4 10 -22 -2 -33 -23 -103 -21 -128 4 -17 17 -20
33 -20 100 l0 80 58 0 c32 0 63 -5 70 -12 9 -9 12 -6 12 15 0 25 -2 26 -67 29
l-68 3 -3 66 c-2 51 1 71 13 83 21 21 98 21 119 1 21 -22 28 -19 24 13 l-3 27
-95 1 c-52 1 -105 0 -117 -3z"/>
<path d="M9744 1853 l-30 -4 4 -167 c2 -92 0 -190 -5 -219 -12 -60 -8 -63 63
-63 l45 0 -20 29 c-28 38 -32 177 -5 167 9 -3 27 -6 41 -6 18 0 47 -24 111
-90 83 -87 89 -91 139 -97 64 -7 107 2 99 22 -3 8 4 44 15 80 l20 65 79 0 78
0 27 -69 c14 -38 32 -74 38 -79 17 -13 97 -24 97 -13 0 5 -6 11 -13 14 -19 7
-83 134 -152 300 -32 75 -61 137 -65 137 -8 0 -23 -33 -106 -243 -64 -164 -91
-205 -124 -187 -25 14 -150 159 -150 175 0 7 14 40 32 73 29 57 30 65 20 101
-9 28 -21 43 -45 54 -34 15 -141 27 -193 20z m130 -33 c54 -20 75 -123 35
-174 -18 -22 -28 -26 -75 -26 l-54 0 0 44 c0 23 -3 71 -6 105 l-7 61 41 0 c22
0 52 -4 66 -10z m455 -126 c33 -86 30 -94 -30 -94 l-52 0 6 36 c8 51 38 125
48 119 4 -3 17 -30 28 -61z"/>
<path d="M3118 1683 c2 -93 0 -192 -6 -221 -9 -50 -8 -53 13 -58 39 -10 81 -1
75 16 -3 8 -5 108 -5 223 l0 207 -41 0 -40 0 4 -167z"/>
<path d="M8918 1683 c2 -92 0 -191 -6 -220 l-9 -52 46 -7 c61 -9 177 10 203
33 29 26 48 67 48 102 0 22 -13 45 -45 81 l-46 51 21 33 c25 42 26 87 1 117
-17 22 -28 24 -118 27 l-99 4 4 -169z m133 141 c34 -17 62 -73 52 -101 -14
-40 -35 -53 -86 -53 l-50 0 5 73 c7 103 17 114 79 81z m29 -199 c61 -31 80
-126 35 -170 -29 -30 -83 -33 -115 -7 -19 15 -23 31 -27 105 l-6 87 42 0 c23
0 55 -7 71 -15z"/>
<path d="M11128 1659 c2 -110 -1 -202 -6 -219 -8 -23 -7 -30 5 -34 19 -8 67
-8 87 0 14 5 14 8 1 27 -11 15 -15 48 -15 114 l0 93 125 0 125 0 0 -97 c0 -54
-4 -105 -10 -113 -12 -19 5 -30 47 -30 55 0 63 7 46 41 -12 24 -14 67 -11 219
l3 190 -40 0 -40 0 3 -90 3 -90 -127 0 -126 0 4 90 4 90 -40 0 -41 0 3 -191z"/>
</g>
</svg>
